G04 #@! TF.FileFunction,Soldermask,Bot*
%FSLAX46Y46*%
G04 Gerber Fmt 4.6, Leading zero omitted, Abs format (unit mm)*
G04 Created by KiCad (PCBNEW 4.0.1-stable) date 8/2/2016 8:04:58 AM*
%MOMM*%
G01*
G04 APERTURE LIST*
%ADD10C,0.100000*%
%ADD11R,1.600000X1.150000*%
%ADD12R,1.150000X1.600000*%
%ADD13R,1.700480X2.099260*%
%ADD14R,2.099260X1.700480*%
%ADD15R,0.800000X1.750000*%
%ADD16O,1.650000X1.350000*%
%ADD17O,1.400000X1.950000*%
%ADD18R,2.127200X2.127200*%
%ADD19O,2.127200X2.127200*%
%ADD20R,1.200100X1.200100*%
%ADD21R,1.300000X1.600000*%
%ADD22C,1.300000*%
%ADD23R,1.900000X1.100000*%
%ADD24R,1.200000X1.400000*%
%ADD25C,2.686000*%
%ADD26C,1.924000*%
%ADD27R,1.924000X1.924000*%
%ADD28R,2.398980X5.899100*%
%ADD29R,1.400000X3.600000*%
%ADD30R,2.432000X1.924000*%
G04 APERTURE END LIST*
D10*
D11*
X168550000Y-98100000D03*
X170450000Y-98100000D03*
D12*
X165100000Y-82250000D03*
X165100000Y-80350000D03*
D10*
G36*
X163555977Y-113569150D02*
X164369150Y-112755977D01*
X165500521Y-113887348D01*
X164687348Y-114700521D01*
X163555977Y-113569150D01*
X163555977Y-113569150D01*
G37*
G36*
X164899479Y-114912652D02*
X165712652Y-114099479D01*
X166844023Y-115230850D01*
X166030850Y-116044023D01*
X164899479Y-114912652D01*
X164899479Y-114912652D01*
G37*
D13*
X121150060Y-53100000D03*
X117649940Y-53100000D03*
D14*
X112400000Y-72249940D03*
X112400000Y-75750060D03*
X112300000Y-91349940D03*
X112300000Y-94850060D03*
X112300000Y-110349940D03*
X112300000Y-113850060D03*
X121800000Y-129449940D03*
X121800000Y-132950060D03*
X130900000Y-54149940D03*
X130900000Y-57650060D03*
X129400000Y-75549940D03*
X129400000Y-79050060D03*
X131500000Y-91249940D03*
X131500000Y-94750060D03*
X131500000Y-110349940D03*
X131500000Y-113850060D03*
D13*
X156250060Y-55400000D03*
X152749940Y-55400000D03*
D14*
X148600000Y-76049940D03*
X148600000Y-79550060D03*
X148900000Y-93549940D03*
X148900000Y-97050060D03*
X148900000Y-112549940D03*
X148900000Y-116050060D03*
X150500000Y-129449940D03*
X150500000Y-132950060D03*
D13*
X174550060Y-55500000D03*
X171049940Y-55500000D03*
D14*
X172600000Y-78449940D03*
X172600000Y-81950060D03*
X181600000Y-119849940D03*
X181600000Y-123350060D03*
D15*
X145699100Y-52662540D03*
X146349100Y-52662540D03*
X146999100Y-52662540D03*
X147649100Y-52662540D03*
X148299100Y-52662540D03*
D16*
X144499100Y-52662540D03*
X149499100Y-52662540D03*
D17*
X143499100Y-49962540D03*
X150499100Y-49962540D03*
D18*
X178700000Y-141300000D03*
D19*
X178700000Y-138760000D03*
X176160000Y-141200000D03*
X176160000Y-138660000D03*
X173620000Y-141300000D03*
X173620000Y-138760000D03*
D20*
X135750000Y-139099240D03*
X137650000Y-139099240D03*
X136700000Y-141098220D03*
X126050000Y-121699240D03*
X127950000Y-121699240D03*
X127000000Y-123698220D03*
X126250000Y-65099240D03*
X128150000Y-65099240D03*
X127200000Y-67098220D03*
X126150000Y-83499240D03*
X128050000Y-83499240D03*
X127100000Y-85498220D03*
X126150000Y-103299240D03*
X128050000Y-103299240D03*
X127100000Y-105298220D03*
D21*
X175700000Y-72300000D03*
X175700000Y-74500000D03*
X135800000Y-136600000D03*
X135800000Y-134400000D03*
X126200000Y-119500000D03*
X126200000Y-117300000D03*
X126200000Y-62900000D03*
X126200000Y-60700000D03*
X126200000Y-81000000D03*
X126200000Y-78800000D03*
X126300000Y-101000000D03*
X126300000Y-98800000D03*
D22*
X180625000Y-73800000D03*
X180625000Y-78800000D03*
D23*
X178875000Y-73300000D03*
X178875000Y-74800000D03*
X178875000Y-77800000D03*
X178875000Y-79300000D03*
D24*
X181725000Y-71150000D03*
X181725000Y-81450000D03*
X179525000Y-81450000D03*
X179525000Y-71150000D03*
D25*
X120940000Y-56420000D03*
X114590000Y-58960000D03*
D26*
X114590000Y-66580000D03*
X117130000Y-66580000D03*
D27*
X119670000Y-66580000D03*
D26*
X122210000Y-66580000D03*
D25*
X120940000Y-75420000D03*
X114590000Y-77960000D03*
D26*
X114590000Y-85580000D03*
X117130000Y-85580000D03*
D27*
X119670000Y-85580000D03*
D26*
X122210000Y-85580000D03*
D25*
X120940000Y-94520000D03*
X114590000Y-97060000D03*
D26*
X114590000Y-104680000D03*
X117130000Y-104680000D03*
D27*
X119670000Y-104680000D03*
D26*
X122210000Y-104680000D03*
D25*
X120940000Y-113520000D03*
X114590000Y-116060000D03*
D26*
X114590000Y-123680000D03*
X117130000Y-123680000D03*
D27*
X119670000Y-123680000D03*
D26*
X122210000Y-123680000D03*
D25*
X130440000Y-132620000D03*
X124090000Y-135160000D03*
D26*
X124090000Y-142780000D03*
X126630000Y-142780000D03*
D27*
X129170000Y-142780000D03*
D26*
X131710000Y-142780000D03*
D25*
X140040000Y-56420000D03*
X133690000Y-58960000D03*
D26*
X133690000Y-66580000D03*
X136230000Y-66580000D03*
D27*
X138770000Y-66580000D03*
D26*
X141310000Y-66580000D03*
D25*
X140040000Y-75420000D03*
X133690000Y-77960000D03*
D26*
X133690000Y-85580000D03*
X136230000Y-85580000D03*
D27*
X138770000Y-85580000D03*
D26*
X141310000Y-85580000D03*
D25*
X140040000Y-94520000D03*
X133690000Y-97060000D03*
D26*
X133690000Y-104680000D03*
X136230000Y-104680000D03*
D27*
X138770000Y-104680000D03*
D26*
X141310000Y-104680000D03*
D25*
X140040000Y-113520000D03*
X133690000Y-116060000D03*
D26*
X133690000Y-123680000D03*
X136230000Y-123680000D03*
D27*
X138770000Y-123680000D03*
D26*
X141310000Y-123680000D03*
D25*
X159040000Y-56420000D03*
X152690000Y-58960000D03*
D26*
X152690000Y-66580000D03*
X155230000Y-66580000D03*
D27*
X157770000Y-66580000D03*
D26*
X160310000Y-66580000D03*
D25*
X159040000Y-75420000D03*
X152690000Y-77960000D03*
D26*
X152690000Y-85580000D03*
X155230000Y-85580000D03*
D27*
X157770000Y-85580000D03*
D26*
X160310000Y-85580000D03*
D25*
X159040000Y-94520000D03*
X152690000Y-97060000D03*
D26*
X152690000Y-104680000D03*
X155230000Y-104680000D03*
D27*
X157770000Y-104680000D03*
D26*
X160310000Y-104680000D03*
D25*
X159040000Y-113520000D03*
X152690000Y-116060000D03*
D26*
X152690000Y-123680000D03*
X155230000Y-123680000D03*
D27*
X157770000Y-123680000D03*
D26*
X160310000Y-123680000D03*
D25*
X159040000Y-132620000D03*
X152690000Y-135160000D03*
D26*
X152690000Y-142780000D03*
X155230000Y-142780000D03*
D27*
X157770000Y-142780000D03*
D26*
X160310000Y-142780000D03*
D25*
X178140000Y-56420000D03*
X171790000Y-58960000D03*
D26*
X171790000Y-66580000D03*
X174330000Y-66580000D03*
D27*
X176870000Y-66580000D03*
D26*
X179410000Y-66580000D03*
D25*
X180780000Y-92640000D03*
X178240000Y-86290000D03*
D26*
X170620000Y-86290000D03*
X170620000Y-88830000D03*
D27*
X170620000Y-91370000D03*
D26*
X170620000Y-93910000D03*
D25*
X180680000Y-130640000D03*
X178140000Y-124290000D03*
D26*
X170520000Y-124290000D03*
X170520000Y-126830000D03*
D27*
X170520000Y-129370000D03*
D26*
X170520000Y-131910000D03*
D10*
G36*
X169824156Y-116711520D02*
X169145334Y-116032698D01*
X170559548Y-114618484D01*
X171238370Y-115297306D01*
X169824156Y-116711520D01*
X169824156Y-116711520D01*
G37*
G36*
X169258471Y-116145834D02*
X168579649Y-115467012D01*
X169993863Y-114052798D01*
X170672685Y-114731620D01*
X169258471Y-116145834D01*
X169258471Y-116145834D01*
G37*
G36*
X168692786Y-115580149D02*
X168013964Y-114901327D01*
X169428178Y-113487113D01*
X170107000Y-114165935D01*
X168692786Y-115580149D01*
X168692786Y-115580149D01*
G37*
G36*
X168127100Y-115014464D02*
X167448278Y-114335642D01*
X168862492Y-112921428D01*
X169541314Y-113600250D01*
X168127100Y-115014464D01*
X168127100Y-115014464D01*
G37*
G36*
X167561415Y-114448778D02*
X166882593Y-113769956D01*
X168296807Y-112355742D01*
X168975629Y-113034564D01*
X167561415Y-114448778D01*
X167561415Y-114448778D01*
G37*
G36*
X166995729Y-113883093D02*
X166316907Y-113204271D01*
X167731121Y-111790057D01*
X168409943Y-112468879D01*
X166995729Y-113883093D01*
X166995729Y-113883093D01*
G37*
G36*
X166430044Y-113317407D02*
X165751222Y-112638585D01*
X167165436Y-111224371D01*
X167844258Y-111903193D01*
X166430044Y-113317407D01*
X166430044Y-113317407D01*
G37*
G36*
X165864358Y-112751722D02*
X165185536Y-112072900D01*
X166599750Y-110658686D01*
X167278572Y-111337508D01*
X165864358Y-112751722D01*
X165864358Y-112751722D01*
G37*
G36*
X165298673Y-112186036D02*
X164619851Y-111507214D01*
X166034065Y-110093000D01*
X166712887Y-110771822D01*
X165298673Y-112186036D01*
X165298673Y-112186036D01*
G37*
G36*
X164732988Y-111620351D02*
X164054166Y-110941529D01*
X165468380Y-109527315D01*
X166147202Y-110206137D01*
X164732988Y-111620351D01*
X164732988Y-111620351D01*
G37*
G36*
X164167302Y-111054666D02*
X163488480Y-110375844D01*
X164902694Y-108961630D01*
X165581516Y-109640452D01*
X164167302Y-111054666D01*
X164167302Y-111054666D01*
G37*
G36*
X163488480Y-107024156D02*
X164167302Y-106345334D01*
X165581516Y-107759548D01*
X164902694Y-108438370D01*
X163488480Y-107024156D01*
X163488480Y-107024156D01*
G37*
G36*
X164054166Y-106458471D02*
X164732988Y-105779649D01*
X166147202Y-107193863D01*
X165468380Y-107872685D01*
X164054166Y-106458471D01*
X164054166Y-106458471D01*
G37*
G36*
X164619851Y-105892786D02*
X165298673Y-105213964D01*
X166712887Y-106628178D01*
X166034065Y-107307000D01*
X164619851Y-105892786D01*
X164619851Y-105892786D01*
G37*
G36*
X165185536Y-105327100D02*
X165864358Y-104648278D01*
X167278572Y-106062492D01*
X166599750Y-106741314D01*
X165185536Y-105327100D01*
X165185536Y-105327100D01*
G37*
G36*
X165751222Y-104761415D02*
X166430044Y-104082593D01*
X167844258Y-105496807D01*
X167165436Y-106175629D01*
X165751222Y-104761415D01*
X165751222Y-104761415D01*
G37*
G36*
X166316907Y-104195729D02*
X166995729Y-103516907D01*
X168409943Y-104931121D01*
X167731121Y-105609943D01*
X166316907Y-104195729D01*
X166316907Y-104195729D01*
G37*
G36*
X166882593Y-103630044D02*
X167561415Y-102951222D01*
X168975629Y-104365436D01*
X168296807Y-105044258D01*
X166882593Y-103630044D01*
X166882593Y-103630044D01*
G37*
G36*
X167448278Y-103064358D02*
X168127100Y-102385536D01*
X169541314Y-103799750D01*
X168862492Y-104478572D01*
X167448278Y-103064358D01*
X167448278Y-103064358D01*
G37*
G36*
X168013964Y-102498673D02*
X168692786Y-101819851D01*
X170107000Y-103234065D01*
X169428178Y-103912887D01*
X168013964Y-102498673D01*
X168013964Y-102498673D01*
G37*
G36*
X168579649Y-101932988D02*
X169258471Y-101254166D01*
X170672685Y-102668380D01*
X169993863Y-103347202D01*
X168579649Y-101932988D01*
X168579649Y-101932988D01*
G37*
G36*
X169145334Y-101367302D02*
X169824156Y-100688480D01*
X171238370Y-102102694D01*
X170559548Y-102781516D01*
X169145334Y-101367302D01*
X169145334Y-101367302D01*
G37*
G36*
X172440452Y-102781516D02*
X171761630Y-102102694D01*
X173175844Y-100688480D01*
X173854666Y-101367302D01*
X172440452Y-102781516D01*
X172440452Y-102781516D01*
G37*
G36*
X173006137Y-103347202D02*
X172327315Y-102668380D01*
X173741529Y-101254166D01*
X174420351Y-101932988D01*
X173006137Y-103347202D01*
X173006137Y-103347202D01*
G37*
G36*
X173571822Y-103912887D02*
X172893000Y-103234065D01*
X174307214Y-101819851D01*
X174986036Y-102498673D01*
X173571822Y-103912887D01*
X173571822Y-103912887D01*
G37*
G36*
X174137508Y-104478572D02*
X173458686Y-103799750D01*
X174872900Y-102385536D01*
X175551722Y-103064358D01*
X174137508Y-104478572D01*
X174137508Y-104478572D01*
G37*
G36*
X174703193Y-105044258D02*
X174024371Y-104365436D01*
X175438585Y-102951222D01*
X176117407Y-103630044D01*
X174703193Y-105044258D01*
X174703193Y-105044258D01*
G37*
G36*
X175268879Y-105609943D02*
X174590057Y-104931121D01*
X176004271Y-103516907D01*
X176683093Y-104195729D01*
X175268879Y-105609943D01*
X175268879Y-105609943D01*
G37*
G36*
X175834564Y-106175629D02*
X175155742Y-105496807D01*
X176569956Y-104082593D01*
X177248778Y-104761415D01*
X175834564Y-106175629D01*
X175834564Y-106175629D01*
G37*
G36*
X176400250Y-106741314D02*
X175721428Y-106062492D01*
X177135642Y-104648278D01*
X177814464Y-105327100D01*
X176400250Y-106741314D01*
X176400250Y-106741314D01*
G37*
G36*
X176965935Y-107307000D02*
X176287113Y-106628178D01*
X177701327Y-105213964D01*
X178380149Y-105892786D01*
X176965935Y-107307000D01*
X176965935Y-107307000D01*
G37*
G36*
X177531620Y-107872685D02*
X176852798Y-107193863D01*
X178267012Y-105779649D01*
X178945834Y-106458471D01*
X177531620Y-107872685D01*
X177531620Y-107872685D01*
G37*
G36*
X178097306Y-108438370D02*
X177418484Y-107759548D01*
X178832698Y-106345334D01*
X179511520Y-107024156D01*
X178097306Y-108438370D01*
X178097306Y-108438370D01*
G37*
G36*
X177418484Y-109640452D02*
X178097306Y-108961630D01*
X179511520Y-110375844D01*
X178832698Y-111054666D01*
X177418484Y-109640452D01*
X177418484Y-109640452D01*
G37*
G36*
X176852798Y-110206137D02*
X177531620Y-109527315D01*
X178945834Y-110941529D01*
X178267012Y-111620351D01*
X176852798Y-110206137D01*
X176852798Y-110206137D01*
G37*
G36*
X176287113Y-110771822D02*
X176965935Y-110093000D01*
X178380149Y-111507214D01*
X177701327Y-112186036D01*
X176287113Y-110771822D01*
X176287113Y-110771822D01*
G37*
G36*
X175721428Y-111337508D02*
X176400250Y-110658686D01*
X177814464Y-112072900D01*
X177135642Y-112751722D01*
X175721428Y-111337508D01*
X175721428Y-111337508D01*
G37*
G36*
X175155742Y-111903193D02*
X175834564Y-111224371D01*
X177248778Y-112638585D01*
X176569956Y-113317407D01*
X175155742Y-111903193D01*
X175155742Y-111903193D01*
G37*
G36*
X174590057Y-112468879D02*
X175268879Y-111790057D01*
X176683093Y-113204271D01*
X176004271Y-113883093D01*
X174590057Y-112468879D01*
X174590057Y-112468879D01*
G37*
G36*
X174024371Y-113034564D02*
X174703193Y-112355742D01*
X176117407Y-113769956D01*
X175438585Y-114448778D01*
X174024371Y-113034564D01*
X174024371Y-113034564D01*
G37*
G36*
X173458686Y-113600250D02*
X174137508Y-112921428D01*
X175551722Y-114335642D01*
X174872900Y-115014464D01*
X173458686Y-113600250D01*
X173458686Y-113600250D01*
G37*
G36*
X172893000Y-114165935D02*
X173571822Y-113487113D01*
X174986036Y-114901327D01*
X174307214Y-115580149D01*
X172893000Y-114165935D01*
X172893000Y-114165935D01*
G37*
G36*
X172327315Y-114731620D02*
X173006137Y-114052798D01*
X174420351Y-115467012D01*
X173741529Y-116145834D01*
X172327315Y-114731620D01*
X172327315Y-114731620D01*
G37*
G36*
X171761630Y-115297306D02*
X172440452Y-114618484D01*
X173854666Y-116032698D01*
X173175844Y-116711520D01*
X171761630Y-115297306D01*
X171761630Y-115297306D01*
G37*
D28*
X165100000Y-95799000D03*
X165100000Y-86401000D03*
D29*
X165800000Y-145400000D03*
X165800000Y-138600000D03*
X169800000Y-138600000D03*
X169800000Y-145400000D03*
D30*
X163400000Y-129949000D03*
X163400000Y-133251000D03*
M02*
