M48
;DRILL file {KiCad 4.0.1-stable} date 8/2/2016 8:05:25 AM
;FORMAT={-:-/ absolute / inch / decimal}
FMAT,2
INCH,TZ
T1C0.016
T2C0.020
T3C0.022
T4C0.030
T5C0.040
T6C0.059
T7C0.035
T8C0.067
T9C0.157
%
G90
G05
M72
T1
X4.5118Y-2.7205
X4.6102Y-2.748
X4.811Y-3.4803
X5.0394Y-3.2402
X5.0512Y-2.5079
X5.0512Y-2.7283
X5.0512Y-4.0079
X5.0512Y-4.7362
X5.1535Y-2.7598
X5.2638Y-2.7913
X5.3622Y-2.811
X5.4213Y-5.4055
X5.4724Y-5.7402
X5.5827Y-2.8504
X5.6535Y-2.1575
X5.6575Y-3.563
X5.6693Y-5.0433
X5.689Y-4.4291
X5.6929Y-3.685
X5.6969Y-3.5315
X5.7126Y-2.1575
X5.7165Y-5.0945
X5.7244Y-3.5039
X5.7402Y-2.7283
X5.748Y-2.1969
X5.748Y-4.3031
X5.7874Y-4.2835
X5.7874Y-4.3819
X5.7874Y-4.7126
X5.7874Y-5.7362
X5.7992Y-2.1969
X5.8189Y-4.2638
X5.8583Y-2.1575
X5.8583Y-3.2362
X5.8622Y-4.2283
X5.874Y-2.7283
X5.9016Y-2.7953
X6.0118Y-5.0039
X6.0669Y-5.1496
X6.0906Y-4.9764
X6.126Y-5.1181
X6.2756Y-4.2362
X6.2795Y-3.563
X6.311Y-3.5315
X6.3346Y-3.5039
X6.3622Y-3.4724
X6.4134Y-4.189
X6.4134Y-4.9409
X6.4291Y-5.7756
X6.4291Y-5.8937
X6.4331Y-4.8425
X6.4606Y-4.1654
X6.4606Y-4.8583
X6.4606Y-4.9409
X6.5Y-2.937
X6.5236Y-2.9134
X6.5512Y-2.8898
X6.5512Y-4.0039
X6.5827Y-2.9094
X6.5827Y-3.9606
X6.5866Y-4.2835
X6.5866Y-4.3583
X6.5906Y-4.3189
X6.6102Y-2.8819
X6.6102Y-3.9882
X6.6102Y-5.0433
X6.6102Y-5.3228
X6.6102Y-5.5039
X6.622Y-4.6496
X6.6378Y-2.9055
X6.6417Y-3.9606
X6.6575Y-4.2756
X6.6732Y-2.8583
X6.7008Y-4.1654
X6.7362Y-2.7283
X6.7362Y-2.815
X6.7441Y-3.9567
X6.7677Y-4.0984
X6.8937Y-4.6181
X6.8976Y-4.
X6.9134Y-4.2087
X6.9409Y-4.
X6.9488Y-4.0394
X6.9685Y-4.6299
X6.9882Y-4.0433
X7.Y-4.0787
X7.0827Y-4.4291
X7.0906Y-4.4882
X7.122Y-4.563
X7.1457Y-4.5984
X7.1693Y-4.6339
T4
X4.5114Y-2.6213
X4.5114Y-3.3693
X4.5114Y-4.1213
X4.5114Y-4.8693
X4.6114Y-2.6213
X4.6114Y-3.3693
X4.6114Y-4.1213
X4.6114Y-4.8693
X4.7114Y-2.6213
X4.7114Y-3.3693
X4.7114Y-4.1213
X4.7114Y-4.8693
X4.8114Y-2.6213
X4.8114Y-3.3693
X4.8114Y-4.1213
X4.8114Y-4.8693
X4.8854Y-5.6213
X4.9854Y-5.6213
X5.0854Y-5.6213
X5.1854Y-5.6213
X5.2634Y-2.6213
X5.2634Y-3.3693
X5.2634Y-4.1213
X5.2634Y-4.8693
X5.3634Y-2.6213
X5.3634Y-3.3693
X5.3634Y-4.1213
X5.3634Y-4.8693
X5.4634Y-2.6213
X5.4634Y-3.3693
X5.4634Y-4.1213
X5.4634Y-4.8693
X5.5634Y-2.6213
X5.5634Y-3.3693
X5.5634Y-4.1213
X5.5634Y-4.8693
X6.0114Y-2.6213
X6.0114Y-3.3693
X6.0114Y-4.1213
X6.0114Y-4.8693
X6.0114Y-5.6213
X6.1114Y-2.6213
X6.1114Y-3.3693
X6.1114Y-4.1213
X6.1114Y-4.8693
X6.1114Y-5.6213
X6.2114Y-2.6213
X6.2114Y-3.3693
X6.2114Y-4.1213
X6.2114Y-4.8693
X6.2114Y-5.6213
X6.3114Y-2.6213
X6.3114Y-3.3693
X6.3114Y-4.1213
X6.3114Y-4.8693
X6.3114Y-5.6213
X6.7134Y-4.8933
X6.7134Y-4.9933
X6.7134Y-5.0933
X6.7134Y-5.1933
X6.7173Y-3.3972
X6.7173Y-3.4972
X6.7173Y-3.5972
X6.7173Y-3.6972
X6.7634Y-2.6213
X6.8634Y-2.6213
X6.9634Y-2.6213
X7.0634Y-2.6213
T5
X6.8354Y-5.463
X6.8354Y-5.563
X6.9354Y-5.4591
X6.9354Y-5.5591
X7.0354Y-5.463
X7.0354Y-5.563
T6
X4.5114Y-2.3213
X4.5114Y-3.0693
X4.5114Y-3.8213
X4.5114Y-4.5693
X4.7614Y-2.2213
X4.7614Y-2.9693
X4.7614Y-3.7213
X4.7614Y-4.4693
X4.8854Y-5.3213
X5.1354Y-5.2213
X5.2634Y-2.3213
X5.2634Y-3.0693
X5.2634Y-3.8213
X5.2634Y-4.5693
X5.5134Y-2.2213
X5.5134Y-2.9693
X5.5134Y-3.7213
X5.5134Y-4.4693
X6.0114Y-2.3213
X6.0114Y-3.0693
X6.0114Y-3.8213
X6.0114Y-4.5693
X6.0114Y-5.3213
X6.2614Y-2.2213
X6.2614Y-2.9693
X6.2614Y-3.7213
X6.2614Y-4.4693
X6.2614Y-5.2213
X6.7634Y-2.3213
X7.0134Y-2.2213
X7.0134Y-4.8933
X7.0173Y-3.3972
X7.1134Y-5.1433
X7.1173Y-3.6472
T7
X7.1112Y-2.9055
X7.1112Y-3.1024
T8
X4.4614Y-2.4213
X4.4614Y-3.1693
X4.4614Y-3.9213
X4.4614Y-4.6693
X4.8354Y-5.4213
X4.8614Y-2.4213
X4.8614Y-3.1693
X4.8614Y-3.9213
X4.8614Y-4.6693
X5.2134Y-2.4213
X5.2134Y-3.1693
X5.2134Y-3.9213
X5.2134Y-4.6693
X5.2354Y-5.4213
X5.6134Y-2.4213
X5.6134Y-3.1693
X5.6134Y-3.9213
X5.6134Y-4.6693
X5.9614Y-2.4213
X5.9614Y-3.1693
X5.9614Y-3.9213
X5.9614Y-4.6693
X5.9614Y-5.4213
X6.3614Y-2.4213
X6.3614Y-3.1693
X6.3614Y-3.9213
X6.3614Y-4.6693
X6.3614Y-5.4213
X6.7134Y-2.4213
X6.9134Y-4.8433
X6.9134Y-5.2433
X6.9173Y-3.3472
X6.9173Y-3.7472
X7.1134Y-2.4213
T9
X4.6614Y-2.4213
X4.6614Y-3.1693
X4.6614Y-3.9213
X4.6614Y-4.6693
X5.0354Y-5.4213
X5.4134Y-2.4213
X5.4134Y-3.1693
X5.4134Y-3.9213
X5.4134Y-4.6693
X6.1614Y-2.4213
X6.1614Y-3.1693
X6.1614Y-3.9213
X6.1614Y-4.6693
X6.1614Y-5.4213
X6.9134Y-2.4213
X6.9134Y-5.0433
X6.9173Y-3.5472
T2
X5.6496Y-1.9542G85X5.6496Y-1.9798
G05
X5.9252Y-1.9542G85X5.9252Y-1.9798
G05
T3
X5.6948Y-2.0733G85X5.683Y-2.0733
G05
X5.8917Y-2.0733G85X5.8799Y-2.0733
G05
T0
M30
