G04 #@! TF.FileFunction,Copper,L1,Top,Signal*
%FSLAX46Y46*%
G04 Gerber Fmt 4.6, Leading zero omitted, Abs format (unit mm)*
G04 Created by KiCad (PCBNEW 4.0.1-stable) date 8/2/2016 8:04:58 AM*
%MOMM*%
G01*
G04 APERTURE LIST*
%ADD10C,0.100000*%
%ADD11O,1.250000X0.950000*%
%ADD12O,1.000000X1.550000*%
%ADD13R,1.727200X1.727200*%
%ADD14O,1.727200X1.727200*%
%ADD15R,0.900000X1.200000*%
%ADD16C,2.286000*%
%ADD17C,1.524000*%
%ADD18R,1.524000X1.524000*%
%ADD19C,0.600000*%
%ADD20C,0.250000*%
%ADD21C,0.400000*%
%ADD22C,0.254000*%
G04 APERTURE END LIST*
D10*
D11*
X144499100Y-52662540D03*
X149499100Y-52662540D03*
D12*
X143499100Y-49962540D03*
X150499100Y-49962540D03*
D13*
X178700000Y-141300000D03*
D14*
X178700000Y-138760000D03*
X176160000Y-141200000D03*
X176160000Y-138660000D03*
X173620000Y-141300000D03*
X173620000Y-138760000D03*
D15*
X146000000Y-60200000D03*
X146000000Y-58000000D03*
X147800000Y-60200000D03*
X147800000Y-58000000D03*
D16*
X120940000Y-56420000D03*
X114590000Y-58960000D03*
D17*
X114590000Y-66580000D03*
X117130000Y-66580000D03*
D18*
X119670000Y-66580000D03*
D17*
X122210000Y-66580000D03*
D16*
X120940000Y-75420000D03*
X114590000Y-77960000D03*
D17*
X114590000Y-85580000D03*
X117130000Y-85580000D03*
D18*
X119670000Y-85580000D03*
D17*
X122210000Y-85580000D03*
D16*
X120940000Y-94520000D03*
X114590000Y-97060000D03*
D17*
X114590000Y-104680000D03*
X117130000Y-104680000D03*
D18*
X119670000Y-104680000D03*
D17*
X122210000Y-104680000D03*
D16*
X120940000Y-113520000D03*
X114590000Y-116060000D03*
D17*
X114590000Y-123680000D03*
X117130000Y-123680000D03*
D18*
X119670000Y-123680000D03*
D17*
X122210000Y-123680000D03*
D16*
X130440000Y-132620000D03*
X124090000Y-135160000D03*
D17*
X124090000Y-142780000D03*
X126630000Y-142780000D03*
D18*
X129170000Y-142780000D03*
D17*
X131710000Y-142780000D03*
D16*
X140040000Y-56420000D03*
X133690000Y-58960000D03*
D17*
X133690000Y-66580000D03*
X136230000Y-66580000D03*
D18*
X138770000Y-66580000D03*
D17*
X141310000Y-66580000D03*
D16*
X140040000Y-75420000D03*
X133690000Y-77960000D03*
D17*
X133690000Y-85580000D03*
X136230000Y-85580000D03*
D18*
X138770000Y-85580000D03*
D17*
X141310000Y-85580000D03*
D16*
X140040000Y-94520000D03*
X133690000Y-97060000D03*
D17*
X133690000Y-104680000D03*
X136230000Y-104680000D03*
D18*
X138770000Y-104680000D03*
D17*
X141310000Y-104680000D03*
D16*
X140040000Y-113520000D03*
X133690000Y-116060000D03*
D17*
X133690000Y-123680000D03*
X136230000Y-123680000D03*
D18*
X138770000Y-123680000D03*
D17*
X141310000Y-123680000D03*
D16*
X159040000Y-56420000D03*
X152690000Y-58960000D03*
D17*
X152690000Y-66580000D03*
X155230000Y-66580000D03*
D18*
X157770000Y-66580000D03*
D17*
X160310000Y-66580000D03*
D16*
X159040000Y-75420000D03*
X152690000Y-77960000D03*
D17*
X152690000Y-85580000D03*
X155230000Y-85580000D03*
D18*
X157770000Y-85580000D03*
D17*
X160310000Y-85580000D03*
D16*
X159040000Y-94520000D03*
X152690000Y-97060000D03*
D17*
X152690000Y-104680000D03*
X155230000Y-104680000D03*
D18*
X157770000Y-104680000D03*
D17*
X160310000Y-104680000D03*
D16*
X159040000Y-113520000D03*
X152690000Y-116060000D03*
D17*
X152690000Y-123680000D03*
X155230000Y-123680000D03*
D18*
X157770000Y-123680000D03*
D17*
X160310000Y-123680000D03*
D16*
X159040000Y-132620000D03*
X152690000Y-135160000D03*
D17*
X152690000Y-142780000D03*
X155230000Y-142780000D03*
D18*
X157770000Y-142780000D03*
D17*
X160310000Y-142780000D03*
D16*
X178140000Y-56420000D03*
X171790000Y-58960000D03*
D17*
X171790000Y-66580000D03*
X174330000Y-66580000D03*
D18*
X176870000Y-66580000D03*
D17*
X179410000Y-66580000D03*
D16*
X180780000Y-92640000D03*
X178240000Y-86290000D03*
D17*
X170620000Y-86290000D03*
X170620000Y-88830000D03*
D18*
X170620000Y-91370000D03*
D17*
X170620000Y-93910000D03*
D16*
X180680000Y-130640000D03*
X178140000Y-124290000D03*
D17*
X170520000Y-124290000D03*
X170520000Y-126830000D03*
D18*
X170520000Y-129370000D03*
D17*
X170520000Y-131910000D03*
D19*
X163300000Y-146700000D03*
X163300000Y-149700000D03*
X177000000Y-117600000D03*
X180100000Y-114000000D03*
X159400000Y-107600000D03*
X171100000Y-69300000D03*
X171100000Y-71500000D03*
X147000000Y-111300000D03*
X148800000Y-82200000D03*
X147000000Y-119700000D03*
X147000000Y-145700000D03*
X167900000Y-139800000D03*
X148900000Y-107400000D03*
X149200000Y-69300000D03*
X148800000Y-54800000D03*
X162900000Y-106400000D03*
X159500000Y-90500000D03*
X143600000Y-54800000D03*
X143700000Y-90500000D03*
X144600000Y-93600000D03*
X144000000Y-128100000D03*
X167900000Y-128100000D03*
X175600000Y-106900000D03*
X166400000Y-101700000D03*
X160300000Y-89700000D03*
X144700000Y-89700000D03*
X144500000Y-112500000D03*
X167200000Y-100600000D03*
X160900000Y-89000000D03*
X145400000Y-89000000D03*
X145200000Y-129400000D03*
X179900000Y-112500000D03*
X175100000Y-117300000D03*
X139000000Y-145800000D03*
X170200000Y-105800000D03*
X171900000Y-104100000D03*
X146000000Y-109300000D03*
X137700000Y-137300000D03*
X128000000Y-82300000D03*
X128300000Y-101800000D03*
X128300000Y-120300000D03*
X128300000Y-63700000D03*
X128300000Y-69300000D03*
X145800000Y-69300000D03*
X145100000Y-54800000D03*
X146000000Y-55800000D03*
X147300000Y-55800000D03*
X169100000Y-108600000D03*
X167400000Y-109700000D03*
X167300000Y-108800000D03*
X167900000Y-135200000D03*
X164100000Y-105800000D03*
X147000000Y-108800000D03*
X147800000Y-108300000D03*
X167300000Y-110700000D03*
X114600000Y-69100000D03*
X166400000Y-73400000D03*
X175200000Y-101600000D03*
X117100000Y-69800000D03*
X165100000Y-74600000D03*
X168700000Y-100600000D03*
X167900000Y-101300000D03*
X161600000Y-88200000D03*
X122200000Y-88400000D03*
X130900000Y-70100000D03*
X168600000Y-73800000D03*
X177500000Y-102700000D03*
X176500000Y-102600000D03*
X167900000Y-73200000D03*
X133700000Y-70900000D03*
X136200000Y-71400000D03*
X167200000Y-73900000D03*
X176300000Y-101600000D03*
X171300000Y-100500000D03*
X165700000Y-74000000D03*
X141800000Y-72400000D03*
X177800000Y-103600000D03*
X169500000Y-72600000D03*
X149900000Y-71000000D03*
X152700000Y-127100000D03*
X164100000Y-125500000D03*
X164100000Y-123400000D03*
X154100000Y-130800000D03*
X163400000Y-123000000D03*
X162900000Y-125500000D03*
X154700000Y-126400000D03*
X155600000Y-130000000D03*
X168200000Y-118100000D03*
X180900000Y-115900000D03*
X181500000Y-116800000D03*
X182100000Y-117700000D03*
D20*
X163300000Y-149700000D02*
X163300000Y-146700000D01*
X171100000Y-69300000D02*
X171100000Y-71500000D01*
X148500000Y-81300000D02*
X148500000Y-81900000D01*
X148500000Y-81900000D02*
X148800000Y-82200000D01*
X148500000Y-107600000D02*
X148500000Y-107700000D01*
D21*
X148500000Y-107200000D02*
X148500000Y-107600000D01*
D20*
X147000000Y-111300000D02*
X147000000Y-119700000D01*
X147000000Y-119700000D02*
X147000000Y-145700000D01*
X148800000Y-109500000D02*
X147000000Y-111300000D01*
X148800000Y-108000000D02*
X148800000Y-109500000D01*
X148500000Y-107700000D02*
X148800000Y-108000000D01*
X173620000Y-138760000D02*
X168940000Y-138760000D01*
X168940000Y-138760000D02*
X167900000Y-139800000D01*
D21*
X148500000Y-107200000D02*
X148700000Y-107200000D01*
X148700000Y-107200000D02*
X148900000Y-107400000D01*
D20*
X148500000Y-69300000D02*
X149200000Y-69300000D01*
D21*
X148500000Y-62700000D02*
X148500000Y-69300000D01*
X148500000Y-69300000D02*
X148500000Y-81300000D01*
X148500000Y-81300000D02*
X148500000Y-107200000D01*
X149200000Y-62000000D02*
X148500000Y-62700000D01*
X149200000Y-55200000D02*
X149200000Y-62000000D01*
X148800000Y-54800000D02*
X149200000Y-55200000D01*
D20*
X162900000Y-106400000D02*
X162900000Y-104600000D01*
X162900000Y-104600000D02*
X165300000Y-102200000D01*
X165300000Y-102200000D02*
X165300000Y-99300000D01*
X165300000Y-99300000D02*
X162600000Y-96600000D01*
X162600000Y-96600000D02*
X162600000Y-91549998D01*
X162600000Y-91549998D02*
X161550002Y-90500000D01*
X161550002Y-90500000D02*
X159500000Y-90500000D01*
X144100000Y-55300000D02*
X143600000Y-54800000D01*
X144100000Y-61400000D02*
X144100000Y-55300000D01*
X144900000Y-62200000D02*
X144100000Y-61400000D01*
X144900000Y-70400000D02*
X144900000Y-62200000D01*
X145974998Y-71474998D02*
X144900000Y-70400000D01*
X145974998Y-87125002D02*
X145974998Y-71474998D01*
X143700000Y-89400000D02*
X145974998Y-87125002D01*
X143700000Y-90500000D02*
X143700000Y-89400000D01*
X173400000Y-117900000D02*
X171300000Y-120000000D01*
X144600000Y-106300000D02*
X144600000Y-93600000D01*
X143700000Y-107200000D02*
X144600000Y-106300000D01*
X143700000Y-114100000D02*
X143700000Y-107200000D01*
X144400000Y-114800000D02*
X143700000Y-114100000D01*
X144400000Y-119700000D02*
X144400000Y-114800000D01*
X143800000Y-120300000D02*
X144400000Y-119700000D01*
X143800000Y-127900000D02*
X143800000Y-120300000D01*
X144000000Y-128100000D02*
X143800000Y-127900000D01*
X167900000Y-127700000D02*
X167900000Y-128100000D01*
X167600000Y-127400000D02*
X167900000Y-127700000D01*
X167600000Y-123700000D02*
X167600000Y-127400000D01*
X167900000Y-123400000D02*
X167600000Y-123700000D01*
X168400000Y-122900000D02*
X167900000Y-123400000D01*
X171300000Y-120000000D02*
X168400000Y-122900000D01*
X175600000Y-106900000D02*
X173400000Y-109100000D01*
X173400000Y-109100000D02*
X173400000Y-117900000D01*
X166400000Y-101700000D02*
X166381801Y-101681801D01*
X166381801Y-101681801D02*
X166381801Y-99681801D01*
X166381801Y-99681801D02*
X163100000Y-96400000D01*
X163100000Y-96400000D02*
X163100000Y-90200000D01*
X163100000Y-90200000D02*
X162600000Y-89700000D01*
X162600000Y-89700000D02*
X160300000Y-89700000D01*
X144700000Y-89700000D02*
X145449998Y-90449998D01*
X145449998Y-90449998D02*
X145449998Y-106850002D01*
X145449998Y-106850002D02*
X144500000Y-107800000D01*
X144500000Y-107800000D02*
X144500000Y-112500000D01*
X167200000Y-100600000D02*
X167200000Y-100000000D01*
X167200000Y-100000000D02*
X167200000Y-99800000D01*
X167200000Y-99800000D02*
X163600000Y-96200000D01*
X163600000Y-96200000D02*
X163600000Y-89900000D01*
X163600000Y-89900000D02*
X162700000Y-89000000D01*
X162700000Y-89000000D02*
X160900000Y-89000000D01*
X145400000Y-89000000D02*
X145900000Y-89500000D01*
X145900000Y-89500000D02*
X145900000Y-107200000D01*
X145900000Y-107200000D02*
X145200000Y-107900000D01*
X145200000Y-107900000D02*
X145200000Y-129400000D01*
X175100000Y-117300000D02*
X179900000Y-112500000D01*
D21*
X137700000Y-137300000D02*
X137700000Y-144500000D01*
X137700000Y-144500000D02*
X139000000Y-145800000D01*
D20*
X170200000Y-105800000D02*
X171900000Y-104100000D01*
D21*
X145900000Y-108100000D02*
X146500000Y-107500000D01*
X145900000Y-109200000D02*
X145900000Y-108100000D01*
X146000000Y-109300000D02*
X145900000Y-109200000D01*
X128300000Y-126600000D02*
X128300000Y-128200000D01*
X137700000Y-133400000D02*
X137700000Y-137300000D01*
X133500000Y-129200000D02*
X137700000Y-133400000D01*
X129300000Y-129200000D02*
X133500000Y-129200000D01*
X128300000Y-128200000D02*
X129300000Y-129200000D01*
X128300000Y-81700000D02*
X128300000Y-82000000D01*
X128300000Y-82000000D02*
X128000000Y-82300000D01*
X128300000Y-69300000D02*
X128300000Y-81700000D01*
X128300000Y-81700000D02*
X128300000Y-101800000D01*
X128300000Y-101800000D02*
X128300000Y-120300000D01*
X128300000Y-120300000D02*
X128300000Y-126600000D01*
X128300000Y-126600000D02*
X128300000Y-126700000D01*
X146500000Y-69300000D02*
X145800000Y-69300000D01*
X128300000Y-69300000D02*
X128300000Y-63700000D01*
X146500000Y-62900000D02*
X146500000Y-69300000D01*
X146500000Y-69300000D02*
X146500000Y-107500000D01*
X146500000Y-107500000D02*
X146500000Y-107600000D01*
X144800000Y-61200000D02*
X146500000Y-62900000D01*
X144800000Y-55100000D02*
X144800000Y-61200000D01*
X145100000Y-54800000D02*
X144800000Y-55100000D01*
D20*
X146000000Y-55800000D02*
X146000000Y-58000000D01*
X147800000Y-56300000D02*
X147800000Y-58000000D01*
X147300000Y-55800000D02*
X147800000Y-56300000D01*
X166500000Y-125400000D02*
X166500000Y-123300000D01*
X166500000Y-135400000D02*
X167700000Y-136600000D01*
X167700000Y-136600000D02*
X180700000Y-136600000D01*
X180700000Y-136600000D02*
X181500000Y-137400000D01*
X181500000Y-137400000D02*
X181500000Y-141000000D01*
X181500000Y-141000000D02*
X181200000Y-141300000D01*
X178700000Y-141300000D02*
X181200000Y-141300000D01*
X166500000Y-125400000D02*
X166500000Y-134600000D01*
X166500000Y-134600000D02*
X166500000Y-135400000D01*
X166500000Y-123300000D02*
X172200000Y-117600000D01*
X172200000Y-111700000D02*
X172200000Y-117600000D01*
X169100000Y-108600000D02*
X172200000Y-111700000D01*
X165400000Y-124600000D02*
X165400000Y-122900000D01*
X165400000Y-140300000D02*
X168100000Y-143000000D01*
X168100000Y-143000000D02*
X175200000Y-143000000D01*
X176160000Y-142040000D02*
X175200000Y-143000000D01*
X165400000Y-124600000D02*
X165400000Y-140300000D01*
X170900000Y-117400000D02*
X170900000Y-117300000D01*
X165400000Y-122900000D02*
X170900000Y-117400000D01*
X170900000Y-112500000D02*
X170900000Y-117300000D01*
X167400000Y-109700000D02*
X167500000Y-109800000D01*
X167500000Y-109800000D02*
X168200000Y-109800000D01*
X168200000Y-109800000D02*
X170900000Y-112500000D01*
X176160000Y-142040000D02*
X176160000Y-141300000D01*
X165850002Y-125200000D02*
X165850002Y-123149998D01*
X165850002Y-123149998D02*
X171600000Y-117400000D01*
X165850002Y-135100000D02*
X165850002Y-136350002D01*
X175500000Y-137300000D02*
X176160000Y-137960000D01*
X166800000Y-137300000D02*
X175500000Y-137300000D01*
X165850002Y-136350002D02*
X166800000Y-137300000D01*
X176160000Y-137960000D02*
X176160000Y-138760000D01*
X171600000Y-112100000D02*
X171600000Y-117400000D01*
X168300000Y-108800000D02*
X171600000Y-112100000D01*
X167300000Y-108800000D02*
X168300000Y-108800000D01*
X165850002Y-125149998D02*
X165850002Y-125200000D01*
X165850002Y-125200000D02*
X165850002Y-135100000D01*
X165850002Y-135100000D02*
X165850002Y-135150002D01*
X167900000Y-135200000D02*
X167900000Y-135100000D01*
X167000000Y-123500000D02*
X172900000Y-117600000D01*
X167000000Y-134200000D02*
X167000000Y-123500000D01*
X167900000Y-135100000D02*
X167000000Y-134200000D01*
X172900000Y-111100000D02*
X172900000Y-117600000D01*
X164100000Y-105800000D02*
X166100000Y-107800000D01*
X166100000Y-107800000D02*
X169600000Y-107800000D01*
X169600000Y-107800000D02*
X172900000Y-111100000D01*
X147200000Y-107700000D02*
X147200000Y-107900000D01*
X146000000Y-61400000D02*
X147200000Y-62600000D01*
X147200000Y-62600000D02*
X147200000Y-107700000D01*
X146000000Y-60200000D02*
X146000000Y-61400000D01*
X147000000Y-108100000D02*
X147000000Y-108800000D01*
X147200000Y-107900000D02*
X147000000Y-108100000D01*
X147800000Y-108300000D02*
X147800000Y-107700000D01*
X147800000Y-60200000D02*
X147800000Y-107700000D01*
X139900000Y-146900000D02*
X161000000Y-146900000D01*
X168400000Y-110900000D02*
X170300000Y-112800000D01*
X167500000Y-110900000D02*
X168400000Y-110900000D01*
X167300000Y-110700000D02*
X167500000Y-110900000D01*
X170300000Y-112800000D02*
X170300000Y-117300000D01*
X164900000Y-122700000D02*
X170300000Y-117300000D01*
X164900000Y-141700000D02*
X164900000Y-143000000D01*
X164900000Y-123800000D02*
X164900000Y-141700000D01*
X164900000Y-123800000D02*
X164900000Y-122700000D01*
X161000000Y-146900000D02*
X164900000Y-143000000D01*
X140000000Y-146900000D02*
X139900000Y-146900000D01*
X139900000Y-146900000D02*
X123200000Y-146900000D01*
X123200000Y-146900000D02*
X119300000Y-143000000D01*
X119300000Y-132620000D02*
X119300000Y-143000000D01*
X120940000Y-113520000D02*
X111800000Y-113520000D01*
X120940000Y-94520000D02*
X111800000Y-94520000D01*
X111800000Y-94520000D02*
X111800000Y-94500000D01*
X120940000Y-75420000D02*
X111800000Y-75420000D01*
X111800000Y-75420000D02*
X111800000Y-75400000D01*
X120940000Y-56420000D02*
X113380000Y-56420000D01*
X116020000Y-132620000D02*
X119300000Y-132620000D01*
X119300000Y-132620000D02*
X130440000Y-132620000D01*
X111800000Y-128400000D02*
X116020000Y-132620000D01*
X111800000Y-58000000D02*
X111800000Y-75400000D01*
X111800000Y-75400000D02*
X111800000Y-94500000D01*
X111800000Y-94500000D02*
X111800000Y-113520000D01*
X111800000Y-113520000D02*
X111800000Y-128400000D01*
X113380000Y-56420000D02*
X111800000Y-58000000D01*
X114590000Y-88300000D02*
X114590000Y-88390000D01*
X114590000Y-85580000D02*
X114590000Y-88300000D01*
X123750000Y-92350000D02*
X124000000Y-92600000D01*
X124000000Y-92600000D02*
X125400000Y-94000000D01*
X125400000Y-94000000D02*
X125400000Y-99600000D01*
X125400000Y-99600000D02*
X122800000Y-102200000D01*
X122800000Y-102200000D02*
X115600000Y-102200000D01*
X115600000Y-102200000D02*
X114590000Y-103210000D01*
X114590000Y-103210000D02*
X114590000Y-104680000D01*
X122500000Y-91100000D02*
X123750000Y-92350000D01*
X117300000Y-91100000D02*
X122500000Y-91100000D01*
X114590000Y-88390000D02*
X117300000Y-91100000D01*
X114600000Y-69100000D02*
X114600000Y-69800000D01*
X123800000Y-73200000D02*
X124200000Y-73600000D01*
X114590000Y-84010000D02*
X114590000Y-85580000D01*
X115600000Y-83000000D02*
X114590000Y-84010000D01*
X123000000Y-83000000D02*
X115600000Y-83000000D01*
X125300000Y-80700000D02*
X123000000Y-83000000D01*
X125300000Y-74700000D02*
X125300000Y-80700000D01*
X124200000Y-73600000D02*
X125300000Y-74700000D01*
X122700000Y-72100000D02*
X123800000Y-73200000D01*
X116900000Y-72100000D02*
X122700000Y-72100000D01*
X114600000Y-69800000D02*
X116900000Y-72100000D01*
X114600000Y-128300000D02*
X114600000Y-123690000D01*
X114600000Y-123690000D02*
X114590000Y-123680000D01*
X114590000Y-123680000D02*
X114590000Y-121910000D01*
X114590000Y-104680000D02*
X114590000Y-109990000D01*
X115400000Y-121100000D02*
X114590000Y-121910000D01*
X123000000Y-121100000D02*
X115400000Y-121100000D01*
X125400000Y-118700000D02*
X123000000Y-121100000D01*
X125400000Y-113100000D02*
X125400000Y-118700000D01*
X124000000Y-111700000D02*
X125400000Y-113100000D01*
X116300000Y-111700000D02*
X124000000Y-111700000D01*
X114590000Y-109990000D02*
X116300000Y-111700000D01*
X114600000Y-69100000D02*
X114590000Y-69100000D01*
X166400000Y-74136398D02*
X166400000Y-73400000D01*
X167500000Y-75236398D02*
X166400000Y-74136398D01*
X167500000Y-83500000D02*
X167500000Y-75236398D01*
X165800000Y-85200000D02*
X167500000Y-83500000D01*
X165800000Y-95500000D02*
X165800000Y-85200000D01*
X170000000Y-99700000D02*
X165800000Y-95500000D01*
X175649998Y-99700000D02*
X170000000Y-99700000D01*
X176000000Y-100050002D02*
X175649998Y-99700000D01*
X176000000Y-100800000D02*
X176000000Y-100050002D01*
X175200000Y-101600000D02*
X176000000Y-100800000D01*
X124090000Y-141010000D02*
X124090000Y-142780000D01*
X124900000Y-140200000D02*
X124090000Y-141010000D01*
X132700000Y-140200000D02*
X124900000Y-140200000D01*
X134900000Y-138000000D02*
X132700000Y-140200000D01*
X134900000Y-132900000D02*
X134900000Y-138000000D01*
X132900000Y-130900000D02*
X134900000Y-132900000D01*
X117200000Y-130900000D02*
X132900000Y-130900000D01*
X114590000Y-128290000D02*
X114600000Y-128300000D01*
X114600000Y-128300000D02*
X117200000Y-130900000D01*
X114590000Y-66580000D02*
X114590000Y-69100000D01*
X117130000Y-85580000D02*
X117130000Y-88130000D01*
X124100000Y-91800000D02*
X124300000Y-92000000D01*
X117130000Y-103170000D02*
X117130000Y-104680000D01*
X117500000Y-102800000D02*
X117130000Y-103170000D01*
X123000000Y-102800000D02*
X117500000Y-102800000D01*
X126000000Y-99800000D02*
X123000000Y-102800000D01*
X126000000Y-93700000D02*
X126000000Y-99800000D01*
X124300000Y-92000000D02*
X126000000Y-93700000D01*
X122900000Y-90600000D02*
X124100000Y-91800000D01*
X119600000Y-90600000D02*
X122900000Y-90600000D01*
X117130000Y-88130000D02*
X119600000Y-90600000D01*
X117100000Y-69800000D02*
X117100000Y-70400000D01*
X124000000Y-72700000D02*
X124400000Y-73100000D01*
X117130000Y-84070000D02*
X117130000Y-85580000D01*
X117700000Y-83500000D02*
X117130000Y-84070000D01*
X123300000Y-83500000D02*
X117700000Y-83500000D01*
X125800000Y-81000000D02*
X123300000Y-83500000D01*
X125800000Y-74500000D02*
X125800000Y-81000000D01*
X124400000Y-73100000D02*
X125800000Y-74500000D01*
X122918199Y-71618199D02*
X124000000Y-72700000D01*
X118318199Y-71618199D02*
X122918199Y-71618199D01*
X117100000Y-70400000D02*
X118318199Y-71618199D01*
X117150000Y-122850000D02*
X117150000Y-123660000D01*
X117150000Y-123660000D02*
X117130000Y-123680000D01*
X117130000Y-123680000D02*
X117130000Y-129379998D01*
X117100000Y-69800000D02*
X117130000Y-69800000D01*
X165500000Y-75000000D02*
X165100000Y-74600000D01*
X165800000Y-75000000D02*
X165500000Y-75000000D01*
X166500000Y-75700000D02*
X165800000Y-75000000D01*
X166500000Y-76400000D02*
X166500000Y-75700000D01*
X166500000Y-82900000D02*
X166500000Y-76400000D01*
X164700000Y-84700000D02*
X166500000Y-82900000D01*
X164700000Y-95900000D02*
X164700000Y-84700000D01*
X168700000Y-99900000D02*
X164700000Y-95900000D01*
X168700000Y-100100000D02*
X168700000Y-99900000D01*
X168700000Y-100600000D02*
X168700000Y-100100000D01*
X117130000Y-104680000D02*
X117130000Y-110379998D01*
X118200000Y-121800000D02*
X117150000Y-122850000D01*
X119010000Y-121800000D02*
X118200000Y-121800000D01*
X123100000Y-121800000D02*
X119010000Y-121800000D01*
X125850002Y-119049998D02*
X123100000Y-121800000D01*
X125850002Y-112850002D02*
X125850002Y-119049998D01*
X124249998Y-111249998D02*
X125850002Y-112850002D01*
X118000000Y-111249998D02*
X124249998Y-111249998D01*
X117130000Y-110379998D02*
X118000000Y-111249998D01*
X126630000Y-141819998D02*
X126630000Y-142780000D01*
X127649998Y-140800000D02*
X126630000Y-141819998D01*
X132800000Y-140800000D02*
X127649998Y-140800000D01*
X135350002Y-138249998D02*
X132800000Y-140800000D01*
X135350002Y-132550002D02*
X135350002Y-138249998D01*
X133249998Y-130449998D02*
X135350002Y-132550002D01*
X118200000Y-130449998D02*
X133249998Y-130449998D01*
X117130000Y-129379998D02*
X118200000Y-130449998D01*
X117150000Y-122850000D02*
X117130000Y-122870000D01*
X117130000Y-66580000D02*
X117130000Y-69800000D01*
X126600000Y-93500000D02*
X122600000Y-89500000D01*
X122210000Y-104390000D02*
X126600000Y-100000000D01*
X126600000Y-93500000D02*
X126600000Y-100000000D01*
X122200000Y-89100000D02*
X122200000Y-88400000D01*
X122600000Y-89500000D02*
X122200000Y-89100000D01*
X122210000Y-66580000D02*
X122210000Y-70210000D01*
X124600000Y-72600000D02*
X126400000Y-74400000D01*
X126400000Y-74400000D02*
X126400000Y-81200000D01*
X126400000Y-81200000D02*
X122210000Y-85390000D01*
X122210000Y-70210000D02*
X124600000Y-72600000D01*
X167900000Y-101300000D02*
X167900000Y-99800000D01*
X167900000Y-99800000D02*
X164100000Y-96000000D01*
X164100000Y-96000000D02*
X164100000Y-88400000D01*
X164100000Y-88400000D02*
X163900000Y-88200000D01*
X163900000Y-88200000D02*
X161600000Y-88200000D01*
X122200000Y-88400000D02*
X122210000Y-88400000D01*
X122210000Y-85580000D02*
X122210000Y-88400000D01*
X122210000Y-104680000D02*
X122210000Y-110209996D01*
X126400000Y-119500000D02*
X122220000Y-123680000D01*
X126400000Y-112700000D02*
X126400000Y-119500000D01*
X124499996Y-110799996D02*
X126400000Y-112700000D01*
X122800000Y-110799996D02*
X124499996Y-110799996D01*
X122210000Y-110209996D02*
X122800000Y-110799996D01*
X122220000Y-123680000D02*
X122220000Y-128020000D01*
X135900000Y-138590000D02*
X131710000Y-142780000D01*
X135900000Y-132400000D02*
X135900000Y-138590000D01*
X133400000Y-129900000D02*
X135900000Y-132400000D01*
X124100000Y-129900000D02*
X133400000Y-129900000D01*
X122220000Y-128020000D02*
X124100000Y-129900000D01*
X122210000Y-104390000D02*
X122210000Y-104680000D01*
X122210000Y-85390000D02*
X122210000Y-85580000D01*
X140040000Y-75420000D02*
X130900000Y-75420000D01*
X169000000Y-74200000D02*
X168600000Y-73800000D01*
X169000000Y-84400000D02*
X169000000Y-74200000D01*
X167500000Y-85900000D02*
X169000000Y-84400000D01*
X167500000Y-94900000D02*
X167500000Y-85900000D01*
X170650006Y-98050006D02*
X167500000Y-94900000D01*
X177900004Y-98050006D02*
X170650006Y-98050006D01*
X178449998Y-98600000D02*
X177900004Y-98050006D01*
X178449998Y-101750002D02*
X178449998Y-98600000D01*
X177500000Y-102700000D02*
X178449998Y-101750002D01*
X140040000Y-94520000D02*
X130900000Y-94520000D01*
X131000000Y-94500000D02*
X130900000Y-94500000D01*
X130920000Y-94500000D02*
X131000000Y-94500000D01*
X130900000Y-94520000D02*
X130920000Y-94500000D01*
X140040000Y-56420000D02*
X132080000Y-56420000D01*
X131920000Y-113520000D02*
X140040000Y-113520000D01*
X130900000Y-112500000D02*
X131920000Y-113520000D01*
X130900000Y-57600000D02*
X130900000Y-70100000D01*
X130900000Y-70100000D02*
X130900000Y-75420000D01*
X130900000Y-75420000D02*
X130900000Y-94500000D01*
X130900000Y-94500000D02*
X130900000Y-112500000D01*
X132080000Y-56420000D02*
X130900000Y-57600000D01*
X133690000Y-104680000D02*
X133690000Y-103110000D01*
X133700000Y-92000000D02*
X133690000Y-91990000D01*
X134600000Y-102200000D02*
X133690000Y-103110000D01*
X135200000Y-102200000D02*
X134600000Y-102200000D01*
X139000000Y-102200000D02*
X135200000Y-102200000D01*
X140200000Y-101000000D02*
X139000000Y-102200000D01*
X140200000Y-97000000D02*
X140200000Y-101000000D01*
X141900000Y-95300000D02*
X140200000Y-97000000D01*
X141900000Y-93800000D02*
X141900000Y-95300000D01*
X140700000Y-92600000D02*
X141900000Y-93800000D01*
X134300000Y-92600000D02*
X140700000Y-92600000D01*
X133690000Y-91990000D02*
X134300000Y-92600000D01*
X133700000Y-92000000D02*
X133700000Y-85570000D01*
X133690000Y-104680000D02*
X133700000Y-104690000D01*
X133700000Y-104690000D02*
X133700000Y-110800000D01*
X133700000Y-83700000D02*
X133700000Y-85570000D01*
X133690000Y-110790000D02*
X133700000Y-110800000D01*
X133700000Y-110800000D02*
X134500000Y-111600000D01*
X134500000Y-111600000D02*
X140600000Y-111600000D01*
X140600000Y-111600000D02*
X141900000Y-112900000D01*
X141900000Y-112900000D02*
X141900000Y-114600000D01*
X141900000Y-114600000D02*
X140100000Y-116400000D01*
X140100000Y-116400000D02*
X140100000Y-120100000D01*
X140100000Y-120100000D02*
X139100000Y-121100000D01*
X139100000Y-121100000D02*
X134400000Y-121100000D01*
X134400000Y-121100000D02*
X133690000Y-121810000D01*
X133690000Y-121810000D02*
X133690000Y-123680000D01*
X176500000Y-102600000D02*
X177900000Y-101200000D01*
X177900000Y-101200000D02*
X177900000Y-99100000D01*
X177900000Y-99100000D02*
X177400000Y-98600000D01*
X177400000Y-98600000D02*
X170500000Y-98600000D01*
X170500000Y-98600000D02*
X166900000Y-95000000D01*
X166900000Y-95000000D02*
X166900000Y-85700000D01*
X166900000Y-85700000D02*
X168500000Y-84100000D01*
X168500000Y-84100000D02*
X168500000Y-74900000D01*
X168500000Y-74900000D02*
X167900000Y-74300000D01*
X167900000Y-74300000D02*
X167900000Y-73200000D01*
X133700000Y-70900000D02*
X133690000Y-70900000D01*
X133690000Y-66580000D02*
X133690000Y-70900000D01*
X133690000Y-70900000D02*
X133690000Y-73090000D01*
X134300000Y-83100000D02*
X133700000Y-83700000D01*
X133700000Y-83700000D02*
X133690000Y-83710000D01*
X139000000Y-83100000D02*
X134300000Y-83100000D01*
X140200000Y-81900000D02*
X139000000Y-83100000D01*
X140200000Y-78100000D02*
X140200000Y-81900000D01*
X141900000Y-76400000D02*
X140200000Y-78100000D01*
X141900000Y-74700000D02*
X141900000Y-76400000D01*
X140800000Y-73600000D02*
X141900000Y-74700000D01*
X134200000Y-73600000D02*
X140800000Y-73600000D01*
X133690000Y-73090000D02*
X134200000Y-73600000D01*
X136230000Y-104680000D02*
X136230000Y-103270000D01*
X136230000Y-91430000D02*
X136900000Y-92100000D01*
X136900000Y-92100000D02*
X140900000Y-92100000D01*
X140900000Y-92100000D02*
X142400000Y-93600000D01*
X142400000Y-93600000D02*
X142400000Y-95600000D01*
X142400000Y-95600000D02*
X140800000Y-97200000D01*
X140800000Y-97200000D02*
X140800000Y-101400000D01*
X140800000Y-101400000D02*
X139400000Y-102800000D01*
X139400000Y-102800000D02*
X136700000Y-102800000D01*
X136700000Y-102800000D02*
X136230000Y-103270000D01*
X136230000Y-91430000D02*
X136230000Y-85580000D01*
X136230000Y-104680000D02*
X136230000Y-110330000D01*
X136250000Y-84150000D02*
X136250000Y-85560000D01*
X136250000Y-85560000D02*
X136230000Y-85580000D01*
X136200000Y-71400000D02*
X136230000Y-71400000D01*
X167200000Y-74300000D02*
X167200000Y-73900000D01*
X168000000Y-75100000D02*
X167200000Y-74300000D01*
X168000000Y-83900000D02*
X168000000Y-75100000D01*
X166400000Y-85500000D02*
X168000000Y-83900000D01*
X166400000Y-95200000D02*
X166400000Y-85500000D01*
X170300000Y-99100000D02*
X166400000Y-95200000D01*
X176749998Y-99100000D02*
X170300000Y-99100000D01*
X177449998Y-99800000D02*
X176749998Y-99100000D01*
X177449998Y-100450002D02*
X177449998Y-99800000D01*
X176300000Y-101600000D02*
X177449998Y-100450002D01*
X136230000Y-66580000D02*
X136230000Y-71400000D01*
X136230000Y-71400000D02*
X136230000Y-72330000D01*
X136230000Y-122019998D02*
X136230000Y-123680000D01*
X136649998Y-121600000D02*
X136230000Y-122019998D01*
X139300000Y-121600000D02*
X136649998Y-121600000D01*
X140600000Y-120300000D02*
X139300000Y-121600000D01*
X140600000Y-116700000D02*
X140600000Y-120300000D01*
X142400000Y-114900000D02*
X140600000Y-116700000D01*
X142400000Y-112700000D02*
X142400000Y-114900000D01*
X140800000Y-111100000D02*
X142400000Y-112700000D01*
X137000000Y-111100000D02*
X140800000Y-111100000D01*
X136230000Y-110330000D02*
X137000000Y-111100000D01*
X136800000Y-83600000D02*
X136250000Y-84150000D01*
X136250000Y-84150000D02*
X136230000Y-84170000D01*
X139200000Y-83600000D02*
X136800000Y-83600000D01*
X140650002Y-82149998D02*
X139200000Y-83600000D01*
X140650002Y-78449998D02*
X140650002Y-82149998D01*
X142500000Y-76600000D02*
X140650002Y-78449998D01*
X142500000Y-74500000D02*
X142500000Y-76600000D01*
X141100000Y-73100000D02*
X142500000Y-74500000D01*
X137000000Y-73100000D02*
X141100000Y-73100000D01*
X136230000Y-72330000D02*
X137000000Y-73100000D01*
X171300000Y-100500000D02*
X171000000Y-100200000D01*
X171000000Y-100200000D02*
X169700000Y-100200000D01*
X169700000Y-100200000D02*
X165200000Y-95700000D01*
X165200000Y-95700000D02*
X165200000Y-85100000D01*
X165200000Y-85100000D02*
X167049998Y-83250002D01*
X167049998Y-83250002D02*
X167049998Y-75449998D01*
X167049998Y-75449998D02*
X165700000Y-74100000D01*
X165700000Y-74100000D02*
X165700000Y-74000000D01*
X141800000Y-72400000D02*
X141500000Y-72700000D01*
X143000000Y-77000000D02*
X142900000Y-77000000D01*
X141310000Y-67890000D02*
X140400000Y-68800000D01*
X140400000Y-68800000D02*
X137600000Y-68800000D01*
X137600000Y-68800000D02*
X137000000Y-69400000D01*
X137000000Y-69400000D02*
X137000000Y-71900000D01*
X137000000Y-71900000D02*
X137600000Y-72500000D01*
X137600000Y-72500000D02*
X141300000Y-72500000D01*
X141300000Y-72500000D02*
X141500000Y-72700000D01*
X141500000Y-72700000D02*
X143000000Y-74200000D01*
X143000000Y-74200000D02*
X143000000Y-77000000D01*
X141310000Y-66580000D02*
X141310000Y-67890000D01*
X141310000Y-78590000D02*
X141310000Y-86090000D01*
X142900000Y-77000000D02*
X141310000Y-78590000D01*
X141310000Y-86090000D02*
X140100000Y-87300000D01*
X140100000Y-87300000D02*
X138600000Y-87300000D01*
X138600000Y-87300000D02*
X137800000Y-88100000D01*
X137800000Y-88100000D02*
X137800000Y-90900000D01*
X137800000Y-90900000D02*
X138400000Y-91500000D01*
X138400000Y-91500000D02*
X141100000Y-91500000D01*
X141100000Y-91500000D02*
X143000000Y-93400000D01*
X143000000Y-93400000D02*
X143000000Y-95900000D01*
X143000000Y-95900000D02*
X141300000Y-97600000D01*
X141300000Y-97600000D02*
X141300000Y-104670000D01*
X141300000Y-104670000D02*
X141400000Y-104770000D01*
X141400000Y-104770000D02*
X141310000Y-104680000D01*
X141310000Y-104680000D02*
X141310000Y-105990000D01*
X141310000Y-105990000D02*
X140800000Y-106500000D01*
X140800000Y-106500000D02*
X137700000Y-106500000D01*
X137700000Y-106500000D02*
X136680002Y-107519998D01*
X136680002Y-107519998D02*
X136680002Y-109980002D01*
X136680002Y-109980002D02*
X137200000Y-110500000D01*
X137200000Y-110500000D02*
X141100000Y-110500000D01*
X141100000Y-110500000D02*
X143000000Y-112400000D01*
X143000000Y-112400000D02*
X143000000Y-115200000D01*
X143000000Y-115200000D02*
X141310000Y-116890000D01*
X141310000Y-116890000D02*
X141310000Y-123680000D01*
X177800000Y-103600000D02*
X178900000Y-102500000D01*
X178900000Y-102500000D02*
X178900000Y-98100004D01*
X178900000Y-98100004D02*
X178400000Y-97600004D01*
X178400000Y-97600004D02*
X170963606Y-97600004D01*
X170963606Y-97600004D02*
X168100000Y-94736398D01*
X168100000Y-94736398D02*
X168100000Y-86300000D01*
X168100000Y-86300000D02*
X169500000Y-84900000D01*
X169500000Y-84900000D02*
X169500000Y-72600000D01*
X159040000Y-75420000D02*
X149900000Y-75420000D01*
X150000000Y-75500000D02*
X149900000Y-75500000D01*
X149980000Y-75500000D02*
X150000000Y-75500000D01*
X149900000Y-75420000D02*
X149980000Y-75500000D01*
X159040000Y-94520000D02*
X149900000Y-94520000D01*
X149900000Y-94520000D02*
X149900000Y-94500000D01*
X159040000Y-113520000D02*
X149900000Y-113520000D01*
X149900000Y-113520000D02*
X149900000Y-113500000D01*
X149900000Y-107300000D02*
X149900000Y-113500000D01*
X149900000Y-113500000D02*
X149900000Y-129300000D01*
X153220000Y-132620000D02*
X159040000Y-132620000D01*
X149900000Y-129300000D02*
X153220000Y-132620000D01*
X159040000Y-56420000D02*
X151180000Y-56420000D01*
X149900000Y-70200000D02*
X149900000Y-71000000D01*
X150300000Y-69800000D02*
X149900000Y-70200000D01*
X150300000Y-62900000D02*
X150300000Y-69800000D01*
X149800000Y-62400000D02*
X150300000Y-62900000D01*
X149800000Y-57800000D02*
X149800000Y-62400000D01*
X151180000Y-56420000D02*
X149800000Y-57800000D01*
X149900000Y-71000000D02*
X149900000Y-75500000D01*
X149900000Y-75500000D02*
X149900000Y-94500000D01*
X149900000Y-94500000D02*
X149900000Y-107300000D01*
X149900000Y-107300000D02*
X149900000Y-107500000D01*
X152700000Y-122600000D02*
X152700000Y-123670000D01*
X152700000Y-123670000D02*
X152690000Y-123680000D01*
X152690000Y-123680000D02*
X152690000Y-127090000D01*
X152690000Y-127090000D02*
X152700000Y-127100000D01*
X152700000Y-84000000D02*
X152700000Y-85570000D01*
X152700000Y-85570000D02*
X152690000Y-85580000D01*
X152690000Y-85580000D02*
X152690000Y-92090000D01*
X159200000Y-97100000D02*
X159000000Y-97300000D01*
X152690000Y-71590000D02*
X154600000Y-73500000D01*
X154600000Y-73500000D02*
X159900000Y-73500000D01*
X159900000Y-73500000D02*
X161000000Y-74600000D01*
X161000000Y-74600000D02*
X161000000Y-76700000D01*
X161000000Y-76700000D02*
X159200000Y-78500000D01*
X159200000Y-78500000D02*
X159200000Y-82000000D01*
X159200000Y-82000000D02*
X158100000Y-83100000D01*
X158100000Y-83100000D02*
X153600000Y-83100000D01*
X153600000Y-83100000D02*
X152700000Y-84000000D01*
X152700000Y-84000000D02*
X152690000Y-84010000D01*
X152690000Y-92090000D02*
X153200000Y-92600000D01*
X153200000Y-92600000D02*
X159700000Y-92600000D01*
X159700000Y-92600000D02*
X160600000Y-93500000D01*
X160600000Y-93500000D02*
X160900000Y-93800000D01*
X160900000Y-93800000D02*
X160900000Y-95100000D01*
X160900000Y-95100000D02*
X160900000Y-95400000D01*
X160900000Y-95400000D02*
X159200000Y-97100000D01*
X158000000Y-102200000D02*
X153600000Y-102200000D01*
X153600000Y-102200000D02*
X152700000Y-103100000D01*
X152700000Y-104670000D02*
X152700000Y-103100000D01*
X152690000Y-71590000D02*
X152690000Y-66580000D01*
X158100000Y-102200000D02*
X158000000Y-102200000D01*
X159000000Y-101300000D02*
X158100000Y-102200000D01*
X159000000Y-100500000D02*
X159000000Y-101300000D01*
X159000000Y-100100000D02*
X159000000Y-100500000D01*
X159000000Y-97300000D02*
X159000000Y-100100000D01*
X152700000Y-127100000D02*
X152690000Y-127100000D01*
X164100000Y-123400000D02*
X164100000Y-125500000D01*
X152690000Y-141510000D02*
X152690000Y-142780000D01*
X153600000Y-140600000D02*
X152690000Y-141510000D01*
X157700000Y-140600000D02*
X153600000Y-140600000D01*
X159200000Y-139100000D02*
X157700000Y-140600000D01*
X159200000Y-135800000D02*
X159200000Y-139100000D01*
X161100000Y-133900000D02*
X159200000Y-135800000D01*
X161100000Y-132000000D02*
X161100000Y-133900000D01*
X159900000Y-130800000D02*
X161100000Y-132000000D01*
X154100000Y-130800000D02*
X159900000Y-130800000D01*
X152690000Y-129390000D02*
X154100000Y-130800000D01*
X152690000Y-127100000D02*
X152690000Y-129390000D01*
X152700000Y-104670000D02*
X152700000Y-111000000D01*
X154000000Y-121300000D02*
X152700000Y-122600000D01*
X152700000Y-122600000D02*
X152690000Y-122610000D01*
X158000000Y-121300000D02*
X154000000Y-121300000D01*
X159200000Y-120100000D02*
X158000000Y-121300000D01*
X159200000Y-116200000D02*
X159200000Y-120100000D01*
X160900000Y-114500000D02*
X159200000Y-116200000D01*
X160900000Y-112800000D02*
X160900000Y-114500000D01*
X159600000Y-111500000D02*
X160900000Y-112800000D01*
X153200000Y-111500000D02*
X159600000Y-111500000D01*
X152700000Y-111000000D02*
X153200000Y-111500000D01*
X155230000Y-123680000D02*
X155230000Y-122570000D01*
X155230000Y-110079998D02*
X155300000Y-110149998D01*
X155300000Y-110149998D02*
X156050002Y-110900000D01*
X156050002Y-110900000D02*
X159900000Y-110900000D01*
X159900000Y-110900000D02*
X161600000Y-112600000D01*
X161600000Y-112600000D02*
X161600000Y-114700000D01*
X161600000Y-114700000D02*
X159800000Y-116500000D01*
X159800000Y-116500000D02*
X159800000Y-120500000D01*
X159800000Y-120500000D02*
X158200000Y-122100000D01*
X158200000Y-122100000D02*
X155700000Y-122100000D01*
X155700000Y-122100000D02*
X155230000Y-122570000D01*
X155230000Y-110079998D02*
X155230000Y-104680000D01*
X155230000Y-123680000D02*
X155200000Y-123710000D01*
X155200000Y-123710000D02*
X155200000Y-126400000D01*
X155230000Y-104680000D02*
X155230000Y-103370000D01*
X155230000Y-91530000D02*
X155230000Y-85580000D01*
X158600000Y-102800000D02*
X158800000Y-102800000D01*
X155230000Y-91530000D02*
X155800000Y-92100000D01*
X155800000Y-92100000D02*
X160000000Y-92100000D01*
X160000000Y-92100000D02*
X161400000Y-93500000D01*
X161400000Y-93500000D02*
X161400000Y-95700000D01*
X161400000Y-95700000D02*
X159800000Y-97300000D01*
X158600000Y-102800000D02*
X155800000Y-102800000D01*
X155800000Y-102800000D02*
X155230000Y-103370000D01*
X159500000Y-97600000D02*
X159800000Y-97300000D01*
X159500000Y-102100000D02*
X159500000Y-97600000D01*
X158800000Y-102800000D02*
X159500000Y-102100000D01*
X155230000Y-104680000D02*
X155300000Y-104750000D01*
X155250000Y-84250000D02*
X155250000Y-85560000D01*
X155250000Y-85560000D02*
X155230000Y-85580000D01*
X155230000Y-71530000D02*
X156700000Y-73000000D01*
X156700000Y-73000000D02*
X160100000Y-73000000D01*
X160100000Y-73000000D02*
X161500000Y-74400000D01*
X161500000Y-74400000D02*
X161500000Y-77000000D01*
X161500000Y-77000000D02*
X159700000Y-78800000D01*
X159700000Y-78800000D02*
X159700000Y-82200000D01*
X159700000Y-82200000D02*
X158200000Y-83700000D01*
X158200000Y-83700000D02*
X155800000Y-83700000D01*
X155800000Y-83700000D02*
X155250000Y-84250000D01*
X155250000Y-84250000D02*
X155230000Y-84270000D01*
X155230000Y-71530000D02*
X155230000Y-66580000D01*
X163400000Y-123000000D02*
X162900000Y-123500000D01*
X162900000Y-123500000D02*
X162900000Y-125500000D01*
X154700000Y-126400000D02*
X155200000Y-126400000D01*
X155200000Y-126400000D02*
X155230000Y-126400000D01*
X155600000Y-130000000D02*
X155525001Y-129925001D01*
X155525001Y-129925001D02*
X155525001Y-129674999D01*
X155230000Y-141670000D02*
X155230000Y-142780000D01*
X155600000Y-141300000D02*
X155230000Y-141670000D01*
X158000000Y-141300000D02*
X155600000Y-141300000D01*
X159800000Y-139500000D02*
X158000000Y-141300000D01*
X159800000Y-136100000D02*
X159800000Y-139500000D01*
X161800000Y-134100000D02*
X159800000Y-136100000D01*
X161800000Y-131900000D02*
X161800000Y-134100000D01*
X160100000Y-130200000D02*
X161800000Y-131900000D01*
X156050002Y-130200000D02*
X160100000Y-130200000D01*
X155230000Y-129379998D02*
X155525001Y-129674999D01*
X155230000Y-126400000D02*
X155230000Y-129379998D01*
X155525001Y-129674999D02*
X156050002Y-130200000D01*
X168200000Y-118100000D02*
X164400000Y-121900000D01*
X160300000Y-91649998D02*
X160349998Y-91649998D01*
X160349998Y-91649998D02*
X161900000Y-93200000D01*
X161900000Y-95900000D02*
X161900000Y-95100000D01*
X160000000Y-97800000D02*
X161900000Y-95900000D01*
X160000000Y-101900000D02*
X160000000Y-97800000D01*
X160310000Y-102210000D02*
X160000000Y-101900000D01*
X160310000Y-104680000D02*
X160310000Y-102210000D01*
X161900000Y-93200000D02*
X161900000Y-95100000D01*
X160300000Y-105800000D02*
X160300000Y-104690000D01*
X160300000Y-104690000D02*
X160310000Y-104680000D01*
X160310000Y-85580000D02*
X160310000Y-86190000D01*
X160310000Y-86190000D02*
X159400000Y-87100000D01*
X160310000Y-105790000D02*
X160300000Y-105800000D01*
X160300000Y-105800000D02*
X159900000Y-106200000D01*
X159900000Y-106200000D02*
X156500000Y-106200000D01*
X156500000Y-106200000D02*
X155900000Y-106800000D01*
X155900000Y-106800000D02*
X155900000Y-109849998D01*
X155900000Y-109849998D02*
X156500000Y-110449998D01*
X156500000Y-110449998D02*
X160086396Y-110449998D01*
X160086396Y-110449998D02*
X162050002Y-112413604D01*
X162050002Y-112413604D02*
X162050002Y-114949998D01*
X162050002Y-114949998D02*
X160250002Y-116749998D01*
X160250002Y-116749998D02*
X160250002Y-121900000D01*
X156300000Y-91649998D02*
X160300000Y-91649998D01*
X155800000Y-91149998D02*
X156300000Y-91649998D01*
X155800000Y-87600000D02*
X155800000Y-91149998D01*
X156300000Y-87100000D02*
X155800000Y-87600000D01*
X159400000Y-87100000D02*
X156300000Y-87100000D01*
X160250002Y-121900000D02*
X164400000Y-121900000D01*
X160250002Y-121900000D02*
X160250002Y-123620002D01*
X160250002Y-123620002D02*
X160500000Y-123870000D01*
X160500000Y-123870000D02*
X160500000Y-124600000D01*
X160500000Y-124600000D02*
X159600000Y-125500000D01*
X159600000Y-125500000D02*
X156600000Y-125500000D01*
X156600000Y-125500000D02*
X155700000Y-126400000D01*
X155700000Y-126400000D02*
X155700000Y-129100000D01*
X155700000Y-129100000D02*
X156300000Y-129700000D01*
X156300000Y-129700000D02*
X160500000Y-129700000D01*
X160500000Y-129700000D02*
X163400000Y-132600000D01*
X163400000Y-132600000D02*
X163400000Y-139690000D01*
X163400000Y-139690000D02*
X160310000Y-142780000D01*
X160310000Y-66580000D02*
X160310000Y-72410000D01*
X160310000Y-79090000D02*
X160310000Y-85580000D01*
X162100000Y-77300000D02*
X160310000Y-79090000D01*
X162100000Y-74200000D02*
X162100000Y-77300000D01*
X160310000Y-72410000D02*
X162100000Y-74200000D01*
X180780000Y-92640000D02*
X182800000Y-92640000D01*
X182800000Y-92640000D02*
X182800000Y-92600000D01*
X180680000Y-130640000D02*
X181460000Y-130640000D01*
X181460000Y-130640000D02*
X182800000Y-129300000D01*
X182800000Y-129300000D02*
X182800000Y-92600000D01*
X182800000Y-92600000D02*
X182800000Y-58600000D01*
X180620000Y-56420000D02*
X178140000Y-56420000D01*
X182800000Y-58600000D02*
X180620000Y-56420000D01*
X179500000Y-79300000D02*
X179500000Y-73300000D01*
X172849998Y-85900000D02*
X173600000Y-85149998D01*
X173600000Y-85149998D02*
X173600000Y-84000000D01*
X173600000Y-84000000D02*
X175000000Y-82600000D01*
X175000000Y-82600000D02*
X180763602Y-82600000D01*
X180763602Y-82600000D02*
X181399996Y-81963606D01*
X181399996Y-81963606D02*
X181399996Y-80299996D01*
X181399996Y-80299996D02*
X181000000Y-79900000D01*
X181000000Y-79900000D02*
X180100000Y-79900000D01*
X180100000Y-79900000D02*
X179500000Y-79300000D01*
X171010000Y-85900000D02*
X172849998Y-85900000D01*
X173510000Y-68300000D02*
X171790000Y-66580000D01*
X175200000Y-68300000D02*
X173510000Y-68300000D01*
X176050002Y-69150002D02*
X175200000Y-68300000D01*
X179813604Y-69150002D02*
X176050002Y-69150002D01*
X181399996Y-70736394D02*
X179813604Y-69150002D01*
X181399996Y-72600000D02*
X181399996Y-70736394D01*
X181199996Y-72800000D02*
X181399996Y-72600000D01*
X180000000Y-72800000D02*
X181199996Y-72800000D01*
X179500000Y-73300000D02*
X180000000Y-72800000D01*
X180900000Y-115900000D02*
X180900000Y-115549998D01*
X168600000Y-88310000D02*
X171010000Y-85900000D01*
X168600000Y-94600000D02*
X168600000Y-88310000D01*
X171150002Y-97150002D02*
X168600000Y-94600000D01*
X180650002Y-97150002D02*
X171150002Y-97150002D01*
X181200000Y-97700000D02*
X180650002Y-97150002D01*
X181200000Y-115249998D02*
X181200000Y-97700000D01*
X180900000Y-115549998D02*
X181200000Y-115249998D01*
X180900000Y-115900000D02*
X180700000Y-116100000D01*
X180700000Y-116100000D02*
X180700000Y-120000000D01*
X180700000Y-120000000D02*
X179750002Y-120949998D01*
X179750002Y-120949998D02*
X174550002Y-120949998D01*
X174550002Y-120949998D02*
X173200000Y-122300000D01*
X173200000Y-122300000D02*
X173200000Y-123600000D01*
X173200000Y-123600000D02*
X172510000Y-124290000D01*
X172510000Y-124290000D02*
X170520000Y-124290000D01*
X181500000Y-116800000D02*
X181500000Y-116900000D01*
X172070000Y-126830000D02*
X173800000Y-125100000D01*
X173800000Y-125100000D02*
X173800000Y-122500000D01*
X173800000Y-122500000D02*
X174900000Y-121400000D01*
X172070000Y-126830000D02*
X170520000Y-126830000D01*
X180000000Y-121400000D02*
X174900000Y-121400000D01*
X181400000Y-120000000D02*
X180000000Y-121400000D01*
X181400000Y-117000000D02*
X181400000Y-120000000D01*
X181500000Y-116900000D02*
X181400000Y-117000000D01*
X181500000Y-116800000D02*
X181700000Y-116600000D01*
X181700000Y-116600000D02*
X181700000Y-114700000D01*
X169200000Y-90250000D02*
X170650000Y-88800000D01*
X169200000Y-94400000D02*
X169200000Y-90250000D01*
X171500000Y-96700000D02*
X169200000Y-94400000D01*
X180900000Y-96700000D02*
X171500000Y-96700000D01*
X181700000Y-97500000D02*
X180900000Y-96700000D01*
X181700000Y-114700000D02*
X181700000Y-97500000D01*
X170650000Y-88800000D02*
X172200000Y-88800000D01*
X172200000Y-88800000D02*
X174100000Y-86900000D01*
X174100000Y-86900000D02*
X174100000Y-84300000D01*
X174100000Y-84300000D02*
X175300000Y-83100000D01*
X175300000Y-83100000D02*
X180900000Y-83100000D01*
X180900000Y-83100000D02*
X181849998Y-82150002D01*
X181849998Y-82150002D02*
X181849998Y-70549998D01*
X181849998Y-70549998D02*
X180000000Y-68700000D01*
X180000000Y-68700000D02*
X176450000Y-68700000D01*
X176450000Y-68700000D02*
X174330000Y-66580000D01*
X182100000Y-117700000D02*
X182200000Y-117700000D01*
X178400000Y-93500000D02*
X178400000Y-92200000D01*
X182300000Y-69470000D02*
X179410000Y-66580000D01*
X182300000Y-89400000D02*
X182300000Y-69470000D01*
X181400000Y-90300000D02*
X182300000Y-89400000D01*
X180300000Y-90300000D02*
X181400000Y-90300000D01*
X178400000Y-92200000D02*
X180300000Y-90300000D01*
X170520000Y-131910000D02*
X174290000Y-131910000D01*
X178400000Y-93500000D02*
X171030000Y-93500000D01*
X182200000Y-97300000D02*
X178400000Y-93500000D01*
X182200000Y-125800000D02*
X182200000Y-117700000D01*
X182200000Y-117700000D02*
X182200000Y-97300000D01*
X176800000Y-131200000D02*
X182200000Y-125800000D01*
X175000000Y-131200000D02*
X176800000Y-131200000D01*
X174290000Y-131910000D02*
X175000000Y-131200000D01*
X171030000Y-93500000D02*
X170620000Y-93910000D01*
D22*
G36*
X180440000Y-98014802D02*
X180440000Y-111717498D01*
X180430327Y-111707808D01*
X180086799Y-111565162D01*
X179714833Y-111564838D01*
X179371057Y-111706883D01*
X179107808Y-111969673D01*
X178965162Y-112313201D01*
X178965121Y-112360077D01*
X174960320Y-116364878D01*
X174914833Y-116364838D01*
X174571057Y-116506883D01*
X174307808Y-116769673D01*
X174165162Y-117113201D01*
X174164838Y-117485167D01*
X174306883Y-117828943D01*
X174569673Y-118092192D01*
X174913201Y-118234838D01*
X175285167Y-118235162D01*
X175628943Y-118093117D01*
X175892192Y-117830327D01*
X176034838Y-117486799D01*
X176034879Y-117439923D01*
X180039680Y-113435122D01*
X180085167Y-113435162D01*
X180428943Y-113293117D01*
X180440000Y-113282079D01*
X180440000Y-114935196D01*
X180362599Y-115012597D01*
X180197852Y-115259159D01*
X180192732Y-115284897D01*
X180107808Y-115369673D01*
X179965162Y-115713201D01*
X179964934Y-115974648D01*
X179940000Y-116100000D01*
X179940000Y-119685198D01*
X179435200Y-120189998D01*
X174550002Y-120189998D01*
X174259163Y-120247850D01*
X174012601Y-120412597D01*
X172662599Y-121762599D01*
X172497852Y-122009161D01*
X172440000Y-122300000D01*
X172440000Y-123285198D01*
X172195198Y-123530000D01*
X171717531Y-123530000D01*
X171705010Y-123499697D01*
X171312370Y-123106371D01*
X170799100Y-122893243D01*
X170243339Y-122892758D01*
X169729697Y-123104990D01*
X169336371Y-123497630D01*
X169123243Y-124010900D01*
X169122758Y-124566661D01*
X169334990Y-125080303D01*
X169727630Y-125473629D01*
X169935512Y-125559949D01*
X169729697Y-125644990D01*
X169336371Y-126037630D01*
X169123243Y-126550900D01*
X169122758Y-127106661D01*
X169334990Y-127620303D01*
X169687833Y-127973763D01*
X169522683Y-128004838D01*
X169306559Y-128143910D01*
X169161569Y-128356110D01*
X169110560Y-128608000D01*
X169110560Y-130132000D01*
X169154838Y-130367317D01*
X169293910Y-130583441D01*
X169506110Y-130728431D01*
X169689124Y-130765492D01*
X169336371Y-131117630D01*
X169123243Y-131630900D01*
X169122758Y-132186661D01*
X169334990Y-132700303D01*
X169727630Y-133093629D01*
X170240900Y-133306757D01*
X170796661Y-133307242D01*
X171310303Y-133095010D01*
X171703629Y-132702370D01*
X171717070Y-132670000D01*
X174202861Y-132670000D01*
X174114358Y-132883139D01*
X174113842Y-133474267D01*
X174339580Y-134020595D01*
X174757206Y-134438951D01*
X175303139Y-134665642D01*
X175894267Y-134666158D01*
X176440595Y-134440420D01*
X176858951Y-134022794D01*
X177085642Y-133476861D01*
X177086158Y-132885733D01*
X176860420Y-132339405D01*
X176481677Y-131960000D01*
X176800000Y-131960000D01*
X177090839Y-131902148D01*
X177337401Y-131737401D01*
X178982045Y-130092757D01*
X178902309Y-130284782D01*
X178901692Y-130992114D01*
X179171806Y-131645840D01*
X179671529Y-132146436D01*
X180324782Y-132417691D01*
X181032114Y-132418308D01*
X181685840Y-132148194D01*
X182186436Y-131648471D01*
X182457691Y-130995218D01*
X182457934Y-130716868D01*
X182790000Y-130384802D01*
X182790000Y-144417318D01*
X181065385Y-144760365D01*
X180922525Y-144819540D01*
X180809445Y-144866379D01*
X178862904Y-146167016D01*
X178667016Y-146362904D01*
X177366380Y-148309444D01*
X177366380Y-148309445D01*
X177260365Y-148565385D01*
X176917318Y-150290000D01*
X117082682Y-150290000D01*
X116739635Y-148565385D01*
X116672782Y-148403988D01*
X116633621Y-148309445D01*
X115332984Y-146362904D01*
X115137096Y-146167016D01*
X113190556Y-144866380D01*
X113115592Y-144835329D01*
X112934615Y-144760365D01*
X111210000Y-144417318D01*
X111210000Y-128858681D01*
X111262599Y-128937401D01*
X115482599Y-133157401D01*
X115729160Y-133322148D01*
X116020000Y-133380000D01*
X118540000Y-133380000D01*
X118540000Y-143000000D01*
X118597852Y-143290839D01*
X118762599Y-143537401D01*
X122662599Y-147437401D01*
X122909161Y-147602148D01*
X123200000Y-147660000D01*
X161000000Y-147660000D01*
X161290839Y-147602148D01*
X161537401Y-147437401D01*
X165437401Y-143537401D01*
X165602148Y-143290839D01*
X165660000Y-143000000D01*
X165660000Y-141634802D01*
X167562599Y-143537401D01*
X167809161Y-143702148D01*
X168100000Y-143760000D01*
X175200000Y-143760000D01*
X175490839Y-143702148D01*
X175737401Y-143537401D01*
X176642897Y-142631905D01*
X176733489Y-142613885D01*
X177213355Y-142293248D01*
X177233238Y-142398917D01*
X177372310Y-142615041D01*
X177584510Y-142760031D01*
X177836400Y-142811040D01*
X179563600Y-142811040D01*
X179798917Y-142766762D01*
X180015041Y-142627690D01*
X180160031Y-142415490D01*
X180211040Y-142163600D01*
X180211040Y-142060000D01*
X181200000Y-142060000D01*
X181490839Y-142002148D01*
X181737401Y-141837401D01*
X182037401Y-141537401D01*
X182202148Y-141290839D01*
X182260000Y-141000000D01*
X182260000Y-137400000D01*
X182202148Y-137109161D01*
X182037401Y-136862599D01*
X181237401Y-136062599D01*
X180990839Y-135897852D01*
X180700000Y-135840000D01*
X168582327Y-135840000D01*
X168692192Y-135730327D01*
X168834838Y-135386799D01*
X168835162Y-135014833D01*
X168693117Y-134671057D01*
X168430327Y-134407808D01*
X168177716Y-134302914D01*
X167760000Y-133885198D01*
X167760000Y-129034879D01*
X168085167Y-129035162D01*
X168428943Y-128893117D01*
X168692192Y-128630327D01*
X168834838Y-128286799D01*
X168835162Y-127914833D01*
X168693117Y-127571057D01*
X168619728Y-127497540D01*
X168602148Y-127409161D01*
X168437401Y-127162599D01*
X168360000Y-127085198D01*
X168360000Y-124014802D01*
X173937401Y-118437401D01*
X174102148Y-118190840D01*
X174125233Y-118074785D01*
X174160000Y-117900000D01*
X174160000Y-109414802D01*
X175739680Y-107835122D01*
X175785167Y-107835162D01*
X176128943Y-107693117D01*
X176392192Y-107430327D01*
X176534838Y-107086799D01*
X176535162Y-106714833D01*
X176393117Y-106371057D01*
X176130327Y-106107808D01*
X175786799Y-105965162D01*
X175414833Y-105964838D01*
X175071057Y-106106883D01*
X174807808Y-106369673D01*
X174665162Y-106713201D01*
X174665121Y-106760077D01*
X172862599Y-108562599D01*
X172697852Y-108809161D01*
X172640000Y-109100000D01*
X172640000Y-109765198D01*
X170137401Y-107262599D01*
X169890839Y-107097852D01*
X169600000Y-107040000D01*
X166414802Y-107040000D01*
X165359969Y-105985167D01*
X169264838Y-105985167D01*
X169406883Y-106328943D01*
X169669673Y-106592192D01*
X170013201Y-106734838D01*
X170385167Y-106735162D01*
X170728943Y-106593117D01*
X170992192Y-106330327D01*
X171134838Y-105986799D01*
X171134879Y-105939923D01*
X172039680Y-105035122D01*
X172085167Y-105035162D01*
X172428943Y-104893117D01*
X172692192Y-104630327D01*
X172834838Y-104286799D01*
X172835162Y-103914833D01*
X172693117Y-103571057D01*
X172430327Y-103307808D01*
X172086799Y-103165162D01*
X171714833Y-103164838D01*
X171371057Y-103306883D01*
X171107808Y-103569673D01*
X170965162Y-103913201D01*
X170965121Y-103960077D01*
X170060320Y-104864878D01*
X170014833Y-104864838D01*
X169671057Y-105006883D01*
X169407808Y-105269673D01*
X169265162Y-105613201D01*
X169264838Y-105985167D01*
X165359969Y-105985167D01*
X165035122Y-105660320D01*
X165035162Y-105614833D01*
X164893117Y-105271057D01*
X164630327Y-105007808D01*
X164286799Y-104865162D01*
X163914833Y-104864838D01*
X163660000Y-104970133D01*
X163660000Y-104914802D01*
X165837401Y-102737401D01*
X165972668Y-102534959D01*
X166213201Y-102634838D01*
X166585167Y-102635162D01*
X166928943Y-102493117D01*
X167192192Y-102230327D01*
X167284839Y-102007210D01*
X167369673Y-102092192D01*
X167713201Y-102234838D01*
X168085167Y-102235162D01*
X168428943Y-102093117D01*
X168692192Y-101830327D01*
X168814781Y-101535101D01*
X168885167Y-101535162D01*
X169228943Y-101393117D01*
X169492192Y-101130327D01*
X169573377Y-100934813D01*
X169700000Y-100960000D01*
X170478396Y-100960000D01*
X170506883Y-101028943D01*
X170769673Y-101292192D01*
X171113201Y-101434838D01*
X171485167Y-101435162D01*
X171828943Y-101293117D01*
X172092192Y-101030327D01*
X172234838Y-100686799D01*
X172235036Y-100460000D01*
X175240000Y-100460000D01*
X175240000Y-100485198D01*
X175060320Y-100664878D01*
X175014833Y-100664838D01*
X174671057Y-100806883D01*
X174407808Y-101069673D01*
X174265162Y-101413201D01*
X174264838Y-101785167D01*
X174406883Y-102128943D01*
X174669673Y-102392192D01*
X175013201Y-102534838D01*
X175385167Y-102535162D01*
X175565121Y-102460807D01*
X175564838Y-102785167D01*
X175706883Y-103128943D01*
X175969673Y-103392192D01*
X176313201Y-103534838D01*
X176685167Y-103535162D01*
X176865121Y-103460807D01*
X176864838Y-103785167D01*
X177006883Y-104128943D01*
X177269673Y-104392192D01*
X177613201Y-104534838D01*
X177985167Y-104535162D01*
X178328943Y-104393117D01*
X178592192Y-104130327D01*
X178734838Y-103786799D01*
X178734879Y-103739923D01*
X179437401Y-103037401D01*
X179602148Y-102790839D01*
X179660000Y-102500000D01*
X179660000Y-98100004D01*
X179622206Y-97910002D01*
X180335200Y-97910002D01*
X180440000Y-98014802D01*
X180440000Y-98014802D01*
G37*
X180440000Y-98014802D02*
X180440000Y-111717498D01*
X180430327Y-111707808D01*
X180086799Y-111565162D01*
X179714833Y-111564838D01*
X179371057Y-111706883D01*
X179107808Y-111969673D01*
X178965162Y-112313201D01*
X178965121Y-112360077D01*
X174960320Y-116364878D01*
X174914833Y-116364838D01*
X174571057Y-116506883D01*
X174307808Y-116769673D01*
X174165162Y-117113201D01*
X174164838Y-117485167D01*
X174306883Y-117828943D01*
X174569673Y-118092192D01*
X174913201Y-118234838D01*
X175285167Y-118235162D01*
X175628943Y-118093117D01*
X175892192Y-117830327D01*
X176034838Y-117486799D01*
X176034879Y-117439923D01*
X180039680Y-113435122D01*
X180085167Y-113435162D01*
X180428943Y-113293117D01*
X180440000Y-113282079D01*
X180440000Y-114935196D01*
X180362599Y-115012597D01*
X180197852Y-115259159D01*
X180192732Y-115284897D01*
X180107808Y-115369673D01*
X179965162Y-115713201D01*
X179964934Y-115974648D01*
X179940000Y-116100000D01*
X179940000Y-119685198D01*
X179435200Y-120189998D01*
X174550002Y-120189998D01*
X174259163Y-120247850D01*
X174012601Y-120412597D01*
X172662599Y-121762599D01*
X172497852Y-122009161D01*
X172440000Y-122300000D01*
X172440000Y-123285198D01*
X172195198Y-123530000D01*
X171717531Y-123530000D01*
X171705010Y-123499697D01*
X171312370Y-123106371D01*
X170799100Y-122893243D01*
X170243339Y-122892758D01*
X169729697Y-123104990D01*
X169336371Y-123497630D01*
X169123243Y-124010900D01*
X169122758Y-124566661D01*
X169334990Y-125080303D01*
X169727630Y-125473629D01*
X169935512Y-125559949D01*
X169729697Y-125644990D01*
X169336371Y-126037630D01*
X169123243Y-126550900D01*
X169122758Y-127106661D01*
X169334990Y-127620303D01*
X169687833Y-127973763D01*
X169522683Y-128004838D01*
X169306559Y-128143910D01*
X169161569Y-128356110D01*
X169110560Y-128608000D01*
X169110560Y-130132000D01*
X169154838Y-130367317D01*
X169293910Y-130583441D01*
X169506110Y-130728431D01*
X169689124Y-130765492D01*
X169336371Y-131117630D01*
X169123243Y-131630900D01*
X169122758Y-132186661D01*
X169334990Y-132700303D01*
X169727630Y-133093629D01*
X170240900Y-133306757D01*
X170796661Y-133307242D01*
X171310303Y-133095010D01*
X171703629Y-132702370D01*
X171717070Y-132670000D01*
X174202861Y-132670000D01*
X174114358Y-132883139D01*
X174113842Y-133474267D01*
X174339580Y-134020595D01*
X174757206Y-134438951D01*
X175303139Y-134665642D01*
X175894267Y-134666158D01*
X176440595Y-134440420D01*
X176858951Y-134022794D01*
X177085642Y-133476861D01*
X177086158Y-132885733D01*
X176860420Y-132339405D01*
X176481677Y-131960000D01*
X176800000Y-131960000D01*
X177090839Y-131902148D01*
X177337401Y-131737401D01*
X178982045Y-130092757D01*
X178902309Y-130284782D01*
X178901692Y-130992114D01*
X179171806Y-131645840D01*
X179671529Y-132146436D01*
X180324782Y-132417691D01*
X181032114Y-132418308D01*
X181685840Y-132148194D01*
X182186436Y-131648471D01*
X182457691Y-130995218D01*
X182457934Y-130716868D01*
X182790000Y-130384802D01*
X182790000Y-144417318D01*
X181065385Y-144760365D01*
X180922525Y-144819540D01*
X180809445Y-144866379D01*
X178862904Y-146167016D01*
X178667016Y-146362904D01*
X177366380Y-148309444D01*
X177366380Y-148309445D01*
X177260365Y-148565385D01*
X176917318Y-150290000D01*
X117082682Y-150290000D01*
X116739635Y-148565385D01*
X116672782Y-148403988D01*
X116633621Y-148309445D01*
X115332984Y-146362904D01*
X115137096Y-146167016D01*
X113190556Y-144866380D01*
X113115592Y-144835329D01*
X112934615Y-144760365D01*
X111210000Y-144417318D01*
X111210000Y-128858681D01*
X111262599Y-128937401D01*
X115482599Y-133157401D01*
X115729160Y-133322148D01*
X116020000Y-133380000D01*
X118540000Y-133380000D01*
X118540000Y-143000000D01*
X118597852Y-143290839D01*
X118762599Y-143537401D01*
X122662599Y-147437401D01*
X122909161Y-147602148D01*
X123200000Y-147660000D01*
X161000000Y-147660000D01*
X161290839Y-147602148D01*
X161537401Y-147437401D01*
X165437401Y-143537401D01*
X165602148Y-143290839D01*
X165660000Y-143000000D01*
X165660000Y-141634802D01*
X167562599Y-143537401D01*
X167809161Y-143702148D01*
X168100000Y-143760000D01*
X175200000Y-143760000D01*
X175490839Y-143702148D01*
X175737401Y-143537401D01*
X176642897Y-142631905D01*
X176733489Y-142613885D01*
X177213355Y-142293248D01*
X177233238Y-142398917D01*
X177372310Y-142615041D01*
X177584510Y-142760031D01*
X177836400Y-142811040D01*
X179563600Y-142811040D01*
X179798917Y-142766762D01*
X180015041Y-142627690D01*
X180160031Y-142415490D01*
X180211040Y-142163600D01*
X180211040Y-142060000D01*
X181200000Y-142060000D01*
X181490839Y-142002148D01*
X181737401Y-141837401D01*
X182037401Y-141537401D01*
X182202148Y-141290839D01*
X182260000Y-141000000D01*
X182260000Y-137400000D01*
X182202148Y-137109161D01*
X182037401Y-136862599D01*
X181237401Y-136062599D01*
X180990839Y-135897852D01*
X180700000Y-135840000D01*
X168582327Y-135840000D01*
X168692192Y-135730327D01*
X168834838Y-135386799D01*
X168835162Y-135014833D01*
X168693117Y-134671057D01*
X168430327Y-134407808D01*
X168177716Y-134302914D01*
X167760000Y-133885198D01*
X167760000Y-129034879D01*
X168085167Y-129035162D01*
X168428943Y-128893117D01*
X168692192Y-128630327D01*
X168834838Y-128286799D01*
X168835162Y-127914833D01*
X168693117Y-127571057D01*
X168619728Y-127497540D01*
X168602148Y-127409161D01*
X168437401Y-127162599D01*
X168360000Y-127085198D01*
X168360000Y-124014802D01*
X173937401Y-118437401D01*
X174102148Y-118190840D01*
X174125233Y-118074785D01*
X174160000Y-117900000D01*
X174160000Y-109414802D01*
X175739680Y-107835122D01*
X175785167Y-107835162D01*
X176128943Y-107693117D01*
X176392192Y-107430327D01*
X176534838Y-107086799D01*
X176535162Y-106714833D01*
X176393117Y-106371057D01*
X176130327Y-106107808D01*
X175786799Y-105965162D01*
X175414833Y-105964838D01*
X175071057Y-106106883D01*
X174807808Y-106369673D01*
X174665162Y-106713201D01*
X174665121Y-106760077D01*
X172862599Y-108562599D01*
X172697852Y-108809161D01*
X172640000Y-109100000D01*
X172640000Y-109765198D01*
X170137401Y-107262599D01*
X169890839Y-107097852D01*
X169600000Y-107040000D01*
X166414802Y-107040000D01*
X165359969Y-105985167D01*
X169264838Y-105985167D01*
X169406883Y-106328943D01*
X169669673Y-106592192D01*
X170013201Y-106734838D01*
X170385167Y-106735162D01*
X170728943Y-106593117D01*
X170992192Y-106330327D01*
X171134838Y-105986799D01*
X171134879Y-105939923D01*
X172039680Y-105035122D01*
X172085167Y-105035162D01*
X172428943Y-104893117D01*
X172692192Y-104630327D01*
X172834838Y-104286799D01*
X172835162Y-103914833D01*
X172693117Y-103571057D01*
X172430327Y-103307808D01*
X172086799Y-103165162D01*
X171714833Y-103164838D01*
X171371057Y-103306883D01*
X171107808Y-103569673D01*
X170965162Y-103913201D01*
X170965121Y-103960077D01*
X170060320Y-104864878D01*
X170014833Y-104864838D01*
X169671057Y-105006883D01*
X169407808Y-105269673D01*
X169265162Y-105613201D01*
X169264838Y-105985167D01*
X165359969Y-105985167D01*
X165035122Y-105660320D01*
X165035162Y-105614833D01*
X164893117Y-105271057D01*
X164630327Y-105007808D01*
X164286799Y-104865162D01*
X163914833Y-104864838D01*
X163660000Y-104970133D01*
X163660000Y-104914802D01*
X165837401Y-102737401D01*
X165972668Y-102534959D01*
X166213201Y-102634838D01*
X166585167Y-102635162D01*
X166928943Y-102493117D01*
X167192192Y-102230327D01*
X167284839Y-102007210D01*
X167369673Y-102092192D01*
X167713201Y-102234838D01*
X168085167Y-102235162D01*
X168428943Y-102093117D01*
X168692192Y-101830327D01*
X168814781Y-101535101D01*
X168885167Y-101535162D01*
X169228943Y-101393117D01*
X169492192Y-101130327D01*
X169573377Y-100934813D01*
X169700000Y-100960000D01*
X170478396Y-100960000D01*
X170506883Y-101028943D01*
X170769673Y-101292192D01*
X171113201Y-101434838D01*
X171485167Y-101435162D01*
X171828943Y-101293117D01*
X172092192Y-101030327D01*
X172234838Y-100686799D01*
X172235036Y-100460000D01*
X175240000Y-100460000D01*
X175240000Y-100485198D01*
X175060320Y-100664878D01*
X175014833Y-100664838D01*
X174671057Y-100806883D01*
X174407808Y-101069673D01*
X174265162Y-101413201D01*
X174264838Y-101785167D01*
X174406883Y-102128943D01*
X174669673Y-102392192D01*
X175013201Y-102534838D01*
X175385167Y-102535162D01*
X175565121Y-102460807D01*
X175564838Y-102785167D01*
X175706883Y-103128943D01*
X175969673Y-103392192D01*
X176313201Y-103534838D01*
X176685167Y-103535162D01*
X176865121Y-103460807D01*
X176864838Y-103785167D01*
X177006883Y-104128943D01*
X177269673Y-104392192D01*
X177613201Y-104534838D01*
X177985167Y-104535162D01*
X178328943Y-104393117D01*
X178592192Y-104130327D01*
X178734838Y-103786799D01*
X178734879Y-103739923D01*
X179437401Y-103037401D01*
X179602148Y-102790839D01*
X179660000Y-102500000D01*
X179660000Y-98100004D01*
X179622206Y-97910002D01*
X180335200Y-97910002D01*
X180440000Y-98014802D01*
G36*
X142409414Y-49415729D02*
X142539059Y-49589540D01*
X143249100Y-49589540D01*
X143249100Y-49569540D01*
X143749100Y-49569540D01*
X143749100Y-49589540D01*
X144459141Y-49589540D01*
X144588786Y-49415729D01*
X144491731Y-49210000D01*
X149506469Y-49210000D01*
X149409414Y-49415729D01*
X149539059Y-49589540D01*
X150249100Y-49589540D01*
X150249100Y-49569540D01*
X150749100Y-49569540D01*
X150749100Y-49589540D01*
X151459141Y-49589540D01*
X151588786Y-49415729D01*
X151491731Y-49210000D01*
X176917318Y-49210000D01*
X177260365Y-50934615D01*
X177335329Y-51115592D01*
X177366380Y-51190556D01*
X178667016Y-53137096D01*
X178862904Y-53332984D01*
X180809445Y-54633621D01*
X180903988Y-54672782D01*
X181065385Y-54739635D01*
X182790000Y-55082682D01*
X182790000Y-57515198D01*
X181157401Y-55882599D01*
X180910839Y-55717852D01*
X180620000Y-55660000D01*
X179749773Y-55660000D01*
X179648194Y-55414160D01*
X179148471Y-54913564D01*
X178495218Y-54642309D01*
X177787886Y-54641692D01*
X177134160Y-54911806D01*
X176633564Y-55411529D01*
X176362309Y-56064782D01*
X176361692Y-56772114D01*
X176631806Y-57425840D01*
X177131529Y-57926436D01*
X177784782Y-58197691D01*
X178492114Y-58198308D01*
X179145840Y-57928194D01*
X179646436Y-57428471D01*
X179749610Y-57180000D01*
X180305198Y-57180000D01*
X182040000Y-58914802D01*
X182040000Y-60900407D01*
X181940420Y-60659405D01*
X181522794Y-60241049D01*
X180976861Y-60014358D01*
X180385733Y-60013842D01*
X179839405Y-60239580D01*
X179421049Y-60657206D01*
X179194358Y-61203139D01*
X179193842Y-61794267D01*
X179419580Y-62340595D01*
X179837206Y-62758951D01*
X180383139Y-62985642D01*
X180974267Y-62986158D01*
X181520595Y-62760420D01*
X181938951Y-62342794D01*
X182040000Y-62099441D01*
X182040000Y-68135198D01*
X180794183Y-66889381D01*
X180806757Y-66859100D01*
X180807242Y-66303339D01*
X180595010Y-65789697D01*
X180202370Y-65396371D01*
X179689100Y-65183243D01*
X179133339Y-65182758D01*
X178619697Y-65394990D01*
X178266237Y-65747833D01*
X178235162Y-65582683D01*
X178096090Y-65366559D01*
X177883890Y-65221569D01*
X177632000Y-65170560D01*
X176108000Y-65170560D01*
X175872683Y-65214838D01*
X175656559Y-65353910D01*
X175511569Y-65566110D01*
X175474508Y-65749124D01*
X175122370Y-65396371D01*
X174609100Y-65183243D01*
X174053339Y-65182758D01*
X173539697Y-65394990D01*
X173146371Y-65787630D01*
X173060051Y-65995512D01*
X172975010Y-65789697D01*
X172582370Y-65396371D01*
X172069100Y-65183243D01*
X171513339Y-65182758D01*
X170999697Y-65394990D01*
X170606371Y-65787630D01*
X170393243Y-66300900D01*
X170392758Y-66856661D01*
X170604990Y-67370303D01*
X170997630Y-67763629D01*
X171510900Y-67976757D01*
X172066661Y-67977242D01*
X172099055Y-67963857D01*
X172972599Y-68837401D01*
X173219160Y-69002148D01*
X173510000Y-69060000D01*
X174885198Y-69060000D01*
X175512601Y-69687403D01*
X175759162Y-69852150D01*
X176050002Y-69910002D01*
X179498802Y-69910002D01*
X180639996Y-71051196D01*
X180639996Y-72040000D01*
X180000000Y-72040000D01*
X179709161Y-72097852D01*
X179462599Y-72262599D01*
X178962599Y-72762599D01*
X178797852Y-73009161D01*
X178740000Y-73300000D01*
X178740000Y-79300000D01*
X178797852Y-79590839D01*
X178962599Y-79837401D01*
X179562599Y-80437401D01*
X179809161Y-80602148D01*
X180100000Y-80660000D01*
X180639996Y-80660000D01*
X180639996Y-81648804D01*
X180448800Y-81840000D01*
X175000000Y-81840000D01*
X174709161Y-81897852D01*
X174462599Y-82062599D01*
X173062599Y-83462599D01*
X172897852Y-83709161D01*
X172840000Y-84000000D01*
X172840000Y-84835196D01*
X172535196Y-85140000D01*
X171445940Y-85140000D01*
X171412370Y-85106371D01*
X170899100Y-84893243D01*
X170343339Y-84892758D01*
X170254107Y-84929628D01*
X170260000Y-84900000D01*
X170260000Y-73162463D01*
X170292192Y-73130327D01*
X170434838Y-72786799D01*
X170435162Y-72414833D01*
X170293117Y-72071057D01*
X170030327Y-71807808D01*
X169686799Y-71665162D01*
X169314833Y-71664838D01*
X168971057Y-71806883D01*
X168707808Y-72069673D01*
X168565162Y-72413201D01*
X168565049Y-72542765D01*
X168430327Y-72407808D01*
X168086799Y-72265162D01*
X167714833Y-72264838D01*
X167371057Y-72406883D01*
X167107808Y-72669673D01*
X167073812Y-72751544D01*
X166930327Y-72607808D01*
X166586799Y-72465162D01*
X166214833Y-72464838D01*
X165871057Y-72606883D01*
X165607808Y-72869673D01*
X165526764Y-73064848D01*
X165514833Y-73064838D01*
X165171057Y-73206883D01*
X164907808Y-73469673D01*
X164808529Y-73708762D01*
X164571057Y-73806883D01*
X164307808Y-74069673D01*
X164165162Y-74413201D01*
X164164838Y-74785167D01*
X164306883Y-75128943D01*
X164569673Y-75392192D01*
X164913201Y-75534838D01*
X164960077Y-75534879D01*
X164962599Y-75537401D01*
X165209160Y-75702148D01*
X165252853Y-75710839D01*
X165481522Y-75756325D01*
X165740000Y-76014803D01*
X165740000Y-82585198D01*
X164162599Y-84162599D01*
X163997852Y-84409161D01*
X163940000Y-84700000D01*
X163940000Y-87447957D01*
X163900000Y-87440000D01*
X162162463Y-87440000D01*
X162130327Y-87407808D01*
X161786799Y-87265162D01*
X161414833Y-87264838D01*
X161071057Y-87406883D01*
X160807808Y-87669673D01*
X160665162Y-88013201D01*
X160665099Y-88085388D01*
X160371057Y-88206883D01*
X160107808Y-88469673D01*
X159965162Y-88813201D01*
X159965150Y-88826685D01*
X159771057Y-88906883D01*
X159507808Y-89169673D01*
X159365162Y-89513201D01*
X159365117Y-89564882D01*
X159314833Y-89564838D01*
X158971057Y-89706883D01*
X158707808Y-89969673D01*
X158565162Y-90313201D01*
X158564838Y-90685167D01*
X158649472Y-90889998D01*
X156614802Y-90889998D01*
X156560000Y-90835196D01*
X156560000Y-87914802D01*
X156614802Y-87860000D01*
X159400000Y-87860000D01*
X159690839Y-87802148D01*
X159937401Y-87637401D01*
X160605234Y-86969568D01*
X161100303Y-86765010D01*
X161493629Y-86372370D01*
X161706757Y-85859100D01*
X161707242Y-85303339D01*
X161495010Y-84789697D01*
X161102370Y-84396371D01*
X161070000Y-84382930D01*
X161070000Y-81897139D01*
X161283139Y-81985642D01*
X161874267Y-81986158D01*
X162420595Y-81760420D01*
X162838951Y-81342794D01*
X163065642Y-80796861D01*
X163066158Y-80205733D01*
X162840420Y-79659405D01*
X162422794Y-79241049D01*
X161876861Y-79014358D01*
X161460807Y-79013995D01*
X162637401Y-77837401D01*
X162802148Y-77590840D01*
X162860000Y-77300000D01*
X162860000Y-74200000D01*
X162823176Y-74014873D01*
X162802148Y-73909160D01*
X162637401Y-73662599D01*
X161070000Y-72095198D01*
X161070000Y-67777531D01*
X161100303Y-67765010D01*
X161493629Y-67372370D01*
X161706757Y-66859100D01*
X161707242Y-66303339D01*
X161495010Y-65789697D01*
X161102370Y-65396371D01*
X160589100Y-65183243D01*
X160033339Y-65182758D01*
X159519697Y-65394990D01*
X159166237Y-65747833D01*
X159135162Y-65582683D01*
X158996090Y-65366559D01*
X158783890Y-65221569D01*
X158532000Y-65170560D01*
X157008000Y-65170560D01*
X156772683Y-65214838D01*
X156556559Y-65353910D01*
X156411569Y-65566110D01*
X156374508Y-65749124D01*
X156022370Y-65396371D01*
X155509100Y-65183243D01*
X154953339Y-65182758D01*
X154439697Y-65394990D01*
X154046371Y-65787630D01*
X153960051Y-65995512D01*
X153875010Y-65789697D01*
X153482370Y-65396371D01*
X152969100Y-65183243D01*
X152413339Y-65182758D01*
X151899697Y-65394990D01*
X151506371Y-65787630D01*
X151293243Y-66300900D01*
X151292758Y-66856661D01*
X151504990Y-67370303D01*
X151897630Y-67763629D01*
X151930000Y-67777070D01*
X151930000Y-71590000D01*
X151987852Y-71880839D01*
X152152599Y-72127401D01*
X154062599Y-74037401D01*
X154309161Y-74202148D01*
X154600000Y-74260000D01*
X157685358Y-74260000D01*
X157533564Y-74411529D01*
X157430390Y-74660000D01*
X150660000Y-74660000D01*
X150660000Y-71562463D01*
X150692192Y-71530327D01*
X150834838Y-71186799D01*
X150835162Y-70814833D01*
X150696224Y-70478578D01*
X150837401Y-70337401D01*
X151002148Y-70090840D01*
X151022843Y-69986799D01*
X151060000Y-69800000D01*
X151060000Y-62959424D01*
X151123139Y-62985642D01*
X151714267Y-62986158D01*
X152260595Y-62760420D01*
X152678951Y-62342794D01*
X152812726Y-62020626D01*
X153870645Y-62020626D01*
X154270028Y-62987207D01*
X155008904Y-63727373D01*
X155974785Y-64128442D01*
X157020626Y-64129355D01*
X157987207Y-63729972D01*
X158727373Y-62991096D01*
X159128442Y-62025215D01*
X159128643Y-61794267D01*
X160093842Y-61794267D01*
X160319580Y-62340595D01*
X160737206Y-62758951D01*
X161283139Y-62985642D01*
X161874267Y-62986158D01*
X162420595Y-62760420D01*
X162838951Y-62342794D01*
X163065642Y-61796861D01*
X163065644Y-61794267D01*
X169033842Y-61794267D01*
X169259580Y-62340595D01*
X169677206Y-62758951D01*
X170223139Y-62985642D01*
X170814267Y-62986158D01*
X171360595Y-62760420D01*
X171778951Y-62342794D01*
X171912726Y-62020626D01*
X172970645Y-62020626D01*
X173370028Y-62987207D01*
X174108904Y-63727373D01*
X175074785Y-64128442D01*
X176120626Y-64129355D01*
X177087207Y-63729972D01*
X177827373Y-62991096D01*
X178228442Y-62025215D01*
X178229355Y-60979374D01*
X177829972Y-60012793D01*
X177091096Y-59272627D01*
X176125215Y-58871558D01*
X175079374Y-58870645D01*
X174112793Y-59270028D01*
X173372627Y-60008904D01*
X172971558Y-60974785D01*
X172970645Y-62020626D01*
X171912726Y-62020626D01*
X172005642Y-61796861D01*
X172006158Y-61205733D01*
X171812903Y-60738021D01*
X172142114Y-60738308D01*
X172795840Y-60468194D01*
X173296436Y-59968471D01*
X173567691Y-59315218D01*
X173568308Y-58607886D01*
X173298194Y-57954160D01*
X172798471Y-57453564D01*
X172145218Y-57182309D01*
X171437886Y-57181692D01*
X170784160Y-57451806D01*
X170283564Y-57951529D01*
X170012309Y-58604782D01*
X170011692Y-59312114D01*
X170281806Y-59965840D01*
X170329815Y-60013933D01*
X170225733Y-60013842D01*
X169679405Y-60239580D01*
X169261049Y-60657206D01*
X169034358Y-61203139D01*
X169033842Y-61794267D01*
X163065644Y-61794267D01*
X163066158Y-61205733D01*
X162840420Y-60659405D01*
X162422794Y-60241049D01*
X161876861Y-60014358D01*
X161285733Y-60013842D01*
X160739405Y-60239580D01*
X160321049Y-60657206D01*
X160094358Y-61203139D01*
X160093842Y-61794267D01*
X159128643Y-61794267D01*
X159129355Y-60979374D01*
X158729972Y-60012793D01*
X157991096Y-59272627D01*
X157025215Y-58871558D01*
X155979374Y-58870645D01*
X155012793Y-59270028D01*
X154272627Y-60008904D01*
X153871558Y-60974785D01*
X153870645Y-62020626D01*
X152812726Y-62020626D01*
X152905642Y-61796861D01*
X152906158Y-61205733D01*
X152712903Y-60738021D01*
X153042114Y-60738308D01*
X153695840Y-60468194D01*
X154196436Y-59968471D01*
X154467691Y-59315218D01*
X154468308Y-58607886D01*
X154198194Y-57954160D01*
X153698471Y-57453564D01*
X153045218Y-57182309D01*
X152337886Y-57181692D01*
X151684160Y-57451806D01*
X151183564Y-57951529D01*
X150912309Y-58604782D01*
X150911692Y-59312114D01*
X151181806Y-59965840D01*
X151229815Y-60013933D01*
X151125733Y-60013842D01*
X150579405Y-60239580D01*
X150560000Y-60258951D01*
X150560000Y-58114802D01*
X151494802Y-57180000D01*
X157430227Y-57180000D01*
X157531806Y-57425840D01*
X158031529Y-57926436D01*
X158684782Y-58197691D01*
X159392114Y-58198308D01*
X160045840Y-57928194D01*
X160546436Y-57428471D01*
X160817691Y-56775218D01*
X160818308Y-56067886D01*
X160548194Y-55414160D01*
X160048471Y-54913564D01*
X159395218Y-54642309D01*
X158687886Y-54641692D01*
X158034160Y-54911806D01*
X157533564Y-55411529D01*
X157430390Y-55660000D01*
X151180000Y-55660000D01*
X150889161Y-55717852D01*
X150642599Y-55882599D01*
X149262599Y-57262599D01*
X149097852Y-57509161D01*
X149040000Y-57800000D01*
X149040000Y-62400000D01*
X149097852Y-62690839D01*
X149262599Y-62937401D01*
X149540000Y-63214802D01*
X149540000Y-69485198D01*
X149362599Y-69662599D01*
X149197852Y-69909161D01*
X149140000Y-70200000D01*
X149140000Y-70437537D01*
X149107808Y-70469673D01*
X148965162Y-70813201D01*
X148964838Y-71185167D01*
X149106883Y-71528943D01*
X149140000Y-71562118D01*
X149140000Y-129300000D01*
X149197852Y-129590839D01*
X149362599Y-129837401D01*
X152682599Y-133157401D01*
X152929161Y-133322148D01*
X153220000Y-133380000D01*
X157430227Y-133380000D01*
X157531806Y-133625840D01*
X158031529Y-134126436D01*
X158684782Y-134397691D01*
X159392114Y-134398308D01*
X159621790Y-134303408D01*
X158662599Y-135262599D01*
X158497852Y-135509161D01*
X158440000Y-135800000D01*
X158440000Y-135922315D01*
X157991096Y-135472627D01*
X157025215Y-135071558D01*
X155979374Y-135070645D01*
X155012793Y-135470028D01*
X154272627Y-136208904D01*
X153871558Y-137174785D01*
X153870645Y-138220626D01*
X154270028Y-139187207D01*
X154921683Y-139840000D01*
X153600000Y-139840000D01*
X153309160Y-139897852D01*
X153062599Y-140062599D01*
X152152599Y-140972599D01*
X151987852Y-141219161D01*
X151930000Y-141510000D01*
X151930000Y-141582469D01*
X151899697Y-141594990D01*
X151506371Y-141987630D01*
X151293243Y-142500900D01*
X151292758Y-143056661D01*
X151504990Y-143570303D01*
X151897630Y-143963629D01*
X152410900Y-144176757D01*
X152966661Y-144177242D01*
X153480303Y-143965010D01*
X153873629Y-143572370D01*
X153959949Y-143364488D01*
X154044990Y-143570303D01*
X154437630Y-143963629D01*
X154950900Y-144176757D01*
X155506661Y-144177242D01*
X156020303Y-143965010D01*
X156373763Y-143612167D01*
X156404838Y-143777317D01*
X156543910Y-143993441D01*
X156756110Y-144138431D01*
X157008000Y-144189440D01*
X158532000Y-144189440D01*
X158767317Y-144145162D01*
X158983441Y-144006090D01*
X159128431Y-143793890D01*
X159165492Y-143610876D01*
X159517630Y-143963629D01*
X160030900Y-144176757D01*
X160586661Y-144177242D01*
X161100303Y-143965010D01*
X161493629Y-143572370D01*
X161706757Y-143059100D01*
X161707242Y-142503339D01*
X161693857Y-142470945D01*
X163937401Y-140227401D01*
X164102148Y-139980839D01*
X164140000Y-139790546D01*
X164140000Y-142685198D01*
X160685198Y-146140000D01*
X139871223Y-146140000D01*
X139934838Y-145986799D01*
X139935162Y-145614833D01*
X139793117Y-145271057D01*
X139530327Y-145007808D01*
X139288090Y-144907222D01*
X138535000Y-144154132D01*
X138535000Y-137994267D01*
X149933842Y-137994267D01*
X150159580Y-138540595D01*
X150577206Y-138958951D01*
X151123139Y-139185642D01*
X151714267Y-139186158D01*
X152260595Y-138960420D01*
X152678951Y-138542794D01*
X152905642Y-137996861D01*
X152906158Y-137405733D01*
X152712903Y-136938021D01*
X153042114Y-136938308D01*
X153695840Y-136668194D01*
X154196436Y-136168471D01*
X154467691Y-135515218D01*
X154468308Y-134807886D01*
X154198194Y-134154160D01*
X153698471Y-133653564D01*
X153045218Y-133382309D01*
X152337886Y-133381692D01*
X151684160Y-133651806D01*
X151183564Y-134151529D01*
X150912309Y-134804782D01*
X150911692Y-135512114D01*
X151181806Y-136165840D01*
X151229815Y-136213933D01*
X151125733Y-136213842D01*
X150579405Y-136439580D01*
X150161049Y-136857206D01*
X149934358Y-137403139D01*
X149933842Y-137994267D01*
X138535000Y-137994267D01*
X138535000Y-137727234D01*
X138634838Y-137486799D01*
X138635162Y-137114833D01*
X138535000Y-136872422D01*
X138535000Y-133400000D01*
X138471439Y-133080459D01*
X138290434Y-132809566D01*
X134090434Y-128609566D01*
X134020143Y-128562599D01*
X133819541Y-128428561D01*
X133500000Y-128365000D01*
X129645868Y-128365000D01*
X129135000Y-127854132D01*
X129135000Y-120727234D01*
X129234838Y-120486799D01*
X129235162Y-120114833D01*
X129135000Y-119872422D01*
X129135000Y-118894267D01*
X130933842Y-118894267D01*
X131159580Y-119440595D01*
X131577206Y-119858951D01*
X132123139Y-120085642D01*
X132714267Y-120086158D01*
X133260595Y-119860420D01*
X133678951Y-119442794D01*
X133905642Y-118896861D01*
X133906158Y-118305733D01*
X133712903Y-117838021D01*
X134042114Y-117838308D01*
X134695840Y-117568194D01*
X135196436Y-117068471D01*
X135467691Y-116415218D01*
X135468308Y-115707886D01*
X135198194Y-115054160D01*
X134698471Y-114553564D01*
X134045218Y-114282309D01*
X133337886Y-114281692D01*
X132684160Y-114551806D01*
X132183564Y-115051529D01*
X131912309Y-115704782D01*
X131911692Y-116412114D01*
X132181806Y-117065840D01*
X132229815Y-117113933D01*
X132125733Y-117113842D01*
X131579405Y-117339580D01*
X131161049Y-117757206D01*
X130934358Y-118303139D01*
X130933842Y-118894267D01*
X129135000Y-118894267D01*
X129135000Y-102227234D01*
X129234838Y-101986799D01*
X129235162Y-101614833D01*
X129135000Y-101372422D01*
X129135000Y-70285167D01*
X129964838Y-70285167D01*
X130106883Y-70628943D01*
X130140000Y-70662118D01*
X130140000Y-112500000D01*
X130197852Y-112790839D01*
X130362599Y-113037401D01*
X131382599Y-114057401D01*
X131629161Y-114222148D01*
X131920000Y-114280000D01*
X138430227Y-114280000D01*
X138531806Y-114525840D01*
X139031529Y-115026436D01*
X139684782Y-115297691D01*
X140127121Y-115298077D01*
X139562599Y-115862599D01*
X139397852Y-116109161D01*
X139340000Y-116400000D01*
X139340000Y-116722140D01*
X138991096Y-116372627D01*
X138025215Y-115971558D01*
X136979374Y-115970645D01*
X136012793Y-116370028D01*
X135272627Y-117108904D01*
X134871558Y-118074785D01*
X134870645Y-119120626D01*
X135270028Y-120087207D01*
X135522380Y-120340000D01*
X134400000Y-120340000D01*
X134109161Y-120397852D01*
X133862599Y-120562599D01*
X133152599Y-121272599D01*
X132987852Y-121519161D01*
X132930000Y-121810000D01*
X132930000Y-122482469D01*
X132899697Y-122494990D01*
X132506371Y-122887630D01*
X132293243Y-123400900D01*
X132292758Y-123956661D01*
X132504990Y-124470303D01*
X132897630Y-124863629D01*
X133410900Y-125076757D01*
X133966661Y-125077242D01*
X134480303Y-124865010D01*
X134873629Y-124472370D01*
X134959949Y-124264488D01*
X135044990Y-124470303D01*
X135437630Y-124863629D01*
X135950900Y-125076757D01*
X136506661Y-125077242D01*
X137020303Y-124865010D01*
X137373763Y-124512167D01*
X137404838Y-124677317D01*
X137543910Y-124893441D01*
X137756110Y-125038431D01*
X138008000Y-125089440D01*
X139532000Y-125089440D01*
X139767317Y-125045162D01*
X139983441Y-124906090D01*
X140128431Y-124693890D01*
X140165492Y-124510876D01*
X140517630Y-124863629D01*
X141030900Y-125076757D01*
X141586661Y-125077242D01*
X142100303Y-124865010D01*
X142493629Y-124472370D01*
X142706757Y-123959100D01*
X142707242Y-123403339D01*
X142495010Y-122889697D01*
X142102370Y-122496371D01*
X142070000Y-122482930D01*
X142070000Y-119997139D01*
X142283139Y-120085642D01*
X142874267Y-120086158D01*
X143112054Y-119987907D01*
X143097852Y-120009161D01*
X143040000Y-120300000D01*
X143040000Y-127900000D01*
X143065064Y-128026003D01*
X143064838Y-128285167D01*
X143206883Y-128628943D01*
X143469673Y-128892192D01*
X143813201Y-129034838D01*
X144185167Y-129035162D01*
X144370969Y-128958390D01*
X144265162Y-129213201D01*
X144264838Y-129585167D01*
X144406883Y-129928943D01*
X144669673Y-130192192D01*
X145013201Y-130334838D01*
X145385167Y-130335162D01*
X145728943Y-130193117D01*
X145992192Y-129930327D01*
X146134838Y-129586799D01*
X146135162Y-129214833D01*
X145993117Y-128871057D01*
X145960000Y-128837882D01*
X145960000Y-110234966D01*
X146185167Y-110235162D01*
X146528943Y-110093117D01*
X146792192Y-109830327D01*
X146831836Y-109734854D01*
X147185167Y-109735162D01*
X147528943Y-109593117D01*
X147792192Y-109330327D01*
X147831764Y-109235028D01*
X147985167Y-109235162D01*
X148328943Y-109093117D01*
X148592192Y-108830327D01*
X148734838Y-108486799D01*
X148735162Y-108114833D01*
X148593117Y-107771057D01*
X148560000Y-107737882D01*
X148560000Y-61355105D01*
X148701441Y-61264090D01*
X148846431Y-61051890D01*
X148897440Y-60800000D01*
X148897440Y-59600000D01*
X148853162Y-59364683D01*
X148714090Y-59148559D01*
X148644289Y-59100866D01*
X148701441Y-59064090D01*
X148846431Y-58851890D01*
X148897440Y-58600000D01*
X148897440Y-57400000D01*
X148853162Y-57164683D01*
X148714090Y-56948559D01*
X148560000Y-56843274D01*
X148560000Y-56300000D01*
X148502148Y-56009161D01*
X148337401Y-55762599D01*
X148235122Y-55660320D01*
X148235162Y-55614833D01*
X148093117Y-55271057D01*
X147830327Y-55007808D01*
X147486799Y-54865162D01*
X147114833Y-54864838D01*
X146771057Y-55006883D01*
X146650019Y-55127710D01*
X146530327Y-55007808D01*
X146186799Y-54865162D01*
X146034944Y-54865030D01*
X146035162Y-54614833D01*
X145893117Y-54271057D01*
X145630327Y-54007808D01*
X145286799Y-53865162D01*
X144914833Y-53864838D01*
X144571057Y-54006883D01*
X144349845Y-54227709D01*
X144130327Y-54007808D01*
X143786799Y-53865162D01*
X143414833Y-53864838D01*
X143071057Y-54006883D01*
X142807808Y-54269673D01*
X142665162Y-54613201D01*
X142664838Y-54985167D01*
X142806883Y-55328943D01*
X143069673Y-55592192D01*
X143340000Y-55704442D01*
X143340000Y-60206670D01*
X142876861Y-60014358D01*
X142285733Y-60013842D01*
X141739405Y-60239580D01*
X141321049Y-60657206D01*
X141094358Y-61203139D01*
X141093842Y-61794267D01*
X141319580Y-62340595D01*
X141737206Y-62758951D01*
X142283139Y-62985642D01*
X142874267Y-62986158D01*
X143420595Y-62760420D01*
X143838951Y-62342794D01*
X143876812Y-62251614D01*
X144140000Y-62514802D01*
X144140000Y-70400000D01*
X144197852Y-70690839D01*
X144362599Y-70937401D01*
X145214998Y-71789800D01*
X145214998Y-86810200D01*
X143162599Y-88862599D01*
X142997852Y-89109161D01*
X142940000Y-89400000D01*
X142940000Y-89937537D01*
X142907808Y-89969673D01*
X142765162Y-90313201D01*
X142764838Y-90685167D01*
X142906883Y-91028943D01*
X143169673Y-91292192D01*
X143513201Y-91434838D01*
X143885167Y-91435162D01*
X144228943Y-91293117D01*
X144492192Y-91030327D01*
X144628136Y-90702938D01*
X144689998Y-90764800D01*
X144689998Y-92665078D01*
X144414833Y-92664838D01*
X144071057Y-92806883D01*
X143807808Y-93069673D01*
X143731059Y-93254504D01*
X143702148Y-93109161D01*
X143537401Y-92862599D01*
X141637401Y-90962599D01*
X141390839Y-90797852D01*
X141100000Y-90740000D01*
X138714802Y-90740000D01*
X138560000Y-90585198D01*
X138560000Y-88414802D01*
X138914802Y-88060000D01*
X140100000Y-88060000D01*
X140390839Y-88002148D01*
X140637401Y-87837401D01*
X141497638Y-86977164D01*
X141586661Y-86977242D01*
X142100303Y-86765010D01*
X142493629Y-86372370D01*
X142706757Y-85859100D01*
X142707242Y-85303339D01*
X142495010Y-84789697D01*
X142102370Y-84396371D01*
X142070000Y-84382930D01*
X142070000Y-81897139D01*
X142283139Y-81985642D01*
X142874267Y-81986158D01*
X143420595Y-81760420D01*
X143838951Y-81342794D01*
X144065642Y-80796861D01*
X144066158Y-80205733D01*
X143840420Y-79659405D01*
X143422794Y-79241049D01*
X142876861Y-79014358D01*
X142285733Y-79013842D01*
X142070000Y-79102981D01*
X142070000Y-78904802D01*
X143268139Y-77706663D01*
X143290839Y-77702148D01*
X143537401Y-77537401D01*
X143702148Y-77290839D01*
X143760000Y-77000000D01*
X143760000Y-74200000D01*
X143723176Y-74014873D01*
X143702148Y-73909160D01*
X143537401Y-73662599D01*
X142654669Y-72779867D01*
X142734838Y-72586799D01*
X142735162Y-72214833D01*
X142593117Y-71871057D01*
X142330327Y-71607808D01*
X141986799Y-71465162D01*
X141614833Y-71464838D01*
X141271057Y-71606883D01*
X141137707Y-71740000D01*
X137914802Y-71740000D01*
X137760000Y-71585198D01*
X137760000Y-69714802D01*
X137914802Y-69560000D01*
X140400000Y-69560000D01*
X140690839Y-69502148D01*
X140937401Y-69337401D01*
X141847401Y-68427401D01*
X142012148Y-68180840D01*
X142070000Y-67890000D01*
X142070000Y-67777531D01*
X142100303Y-67765010D01*
X142493629Y-67372370D01*
X142706757Y-66859100D01*
X142707242Y-66303339D01*
X142495010Y-65789697D01*
X142102370Y-65396371D01*
X141589100Y-65183243D01*
X141033339Y-65182758D01*
X140519697Y-65394990D01*
X140166237Y-65747833D01*
X140135162Y-65582683D01*
X139996090Y-65366559D01*
X139783890Y-65221569D01*
X139532000Y-65170560D01*
X138008000Y-65170560D01*
X137772683Y-65214838D01*
X137556559Y-65353910D01*
X137411569Y-65566110D01*
X137374508Y-65749124D01*
X137022370Y-65396371D01*
X136509100Y-65183243D01*
X135953339Y-65182758D01*
X135439697Y-65394990D01*
X135046371Y-65787630D01*
X134960051Y-65995512D01*
X134875010Y-65789697D01*
X134482370Y-65396371D01*
X133969100Y-65183243D01*
X133413339Y-65182758D01*
X132899697Y-65394990D01*
X132506371Y-65787630D01*
X132293243Y-66300900D01*
X132292758Y-66856661D01*
X132504990Y-67370303D01*
X132897630Y-67763629D01*
X132930000Y-67777070D01*
X132930000Y-70347520D01*
X132907808Y-70369673D01*
X132765162Y-70713201D01*
X132764838Y-71085167D01*
X132906883Y-71428943D01*
X132930000Y-71452100D01*
X132930000Y-73090000D01*
X132987852Y-73380839D01*
X133152599Y-73627401D01*
X133662599Y-74137401D01*
X133909161Y-74302148D01*
X134200000Y-74360000D01*
X138585183Y-74360000D01*
X138533564Y-74411529D01*
X138430390Y-74660000D01*
X131660000Y-74660000D01*
X131660000Y-70662463D01*
X131692192Y-70630327D01*
X131834838Y-70286799D01*
X131835162Y-69914833D01*
X131693117Y-69571057D01*
X131660000Y-69537882D01*
X131660000Y-62793330D01*
X132123139Y-62985642D01*
X132714267Y-62986158D01*
X133260595Y-62760420D01*
X133678951Y-62342794D01*
X133812726Y-62020626D01*
X134870645Y-62020626D01*
X135270028Y-62987207D01*
X136008904Y-63727373D01*
X136974785Y-64128442D01*
X138020626Y-64129355D01*
X138987207Y-63729972D01*
X139727373Y-62991096D01*
X140128442Y-62025215D01*
X140129355Y-60979374D01*
X139729972Y-60012793D01*
X138991096Y-59272627D01*
X138025215Y-58871558D01*
X136979374Y-58870645D01*
X136012793Y-59270028D01*
X135272627Y-60008904D01*
X134871558Y-60974785D01*
X134870645Y-62020626D01*
X133812726Y-62020626D01*
X133905642Y-61796861D01*
X133906158Y-61205733D01*
X133712903Y-60738021D01*
X134042114Y-60738308D01*
X134695840Y-60468194D01*
X135196436Y-59968471D01*
X135467691Y-59315218D01*
X135468308Y-58607886D01*
X135198194Y-57954160D01*
X134698471Y-57453564D01*
X134045218Y-57182309D01*
X133337886Y-57181692D01*
X132684160Y-57451806D01*
X132183564Y-57951529D01*
X131912309Y-58604782D01*
X131911692Y-59312114D01*
X132181806Y-59965840D01*
X132229815Y-60013933D01*
X132125733Y-60013842D01*
X131660000Y-60206279D01*
X131660000Y-57914802D01*
X132394802Y-57180000D01*
X138430227Y-57180000D01*
X138531806Y-57425840D01*
X139031529Y-57926436D01*
X139684782Y-58197691D01*
X140392114Y-58198308D01*
X141045840Y-57928194D01*
X141546436Y-57428471D01*
X141817691Y-56775218D01*
X141818308Y-56067886D01*
X141548194Y-55414160D01*
X141048471Y-54913564D01*
X140395218Y-54642309D01*
X139687886Y-54641692D01*
X139034160Y-54911806D01*
X138533564Y-55411529D01*
X138430390Y-55660000D01*
X132080000Y-55660000D01*
X131789161Y-55717852D01*
X131542599Y-55882599D01*
X130362599Y-57062599D01*
X130197852Y-57309161D01*
X130140000Y-57600000D01*
X130140000Y-69537537D01*
X130107808Y-69569673D01*
X129965162Y-69913201D01*
X129964838Y-70285167D01*
X129135000Y-70285167D01*
X129135000Y-69727234D01*
X129234838Y-69486799D01*
X129235162Y-69114833D01*
X129135000Y-68872422D01*
X129135000Y-64127234D01*
X129234838Y-63886799D01*
X129235162Y-63514833D01*
X129093117Y-63171057D01*
X128830327Y-62907808D01*
X128486799Y-62765162D01*
X128114833Y-62764838D01*
X127771057Y-62906883D01*
X127507808Y-63169673D01*
X127365162Y-63513201D01*
X127364838Y-63885167D01*
X127465000Y-64127578D01*
X127465000Y-68872766D01*
X127365162Y-69113201D01*
X127364838Y-69485167D01*
X127465000Y-69727578D01*
X127465000Y-81512929D01*
X127207808Y-81769673D01*
X127065162Y-82113201D01*
X127064838Y-82485167D01*
X127206883Y-82828943D01*
X127465000Y-83087511D01*
X127465000Y-101372766D01*
X127365162Y-101613201D01*
X127364838Y-101985167D01*
X127465000Y-102227578D01*
X127465000Y-119872766D01*
X127365162Y-120113201D01*
X127364838Y-120485167D01*
X127465000Y-120727578D01*
X127465000Y-128200000D01*
X127528561Y-128519541D01*
X127602586Y-128630327D01*
X127709566Y-128790434D01*
X128059132Y-129140000D01*
X124414803Y-129140000D01*
X122980000Y-127705198D01*
X122980000Y-124873399D01*
X123000303Y-124865010D01*
X123393629Y-124472370D01*
X123606757Y-123959100D01*
X123607242Y-123403339D01*
X123596781Y-123378021D01*
X126937401Y-120037401D01*
X127102148Y-119790839D01*
X127160000Y-119500000D01*
X127160000Y-112700000D01*
X127102148Y-112409161D01*
X127102148Y-112409160D01*
X126937401Y-112162599D01*
X125037397Y-110262595D01*
X124790835Y-110097848D01*
X124499996Y-110039996D01*
X123114802Y-110039996D01*
X122970000Y-109895194D01*
X122970000Y-105877531D01*
X123000303Y-105865010D01*
X123393629Y-105472370D01*
X123606757Y-104959100D01*
X123607242Y-104403339D01*
X123509066Y-104165736D01*
X127137401Y-100537401D01*
X127302148Y-100290839D01*
X127360000Y-100000000D01*
X127360000Y-93500000D01*
X127343059Y-93414833D01*
X127302148Y-93209160D01*
X127137401Y-92962599D01*
X123025328Y-88850526D01*
X123134838Y-88586799D01*
X123135162Y-88214833D01*
X122993117Y-87871057D01*
X122970000Y-87847900D01*
X122970000Y-86777531D01*
X123000303Y-86765010D01*
X123393629Y-86372370D01*
X123606757Y-85859100D01*
X123607242Y-85303339D01*
X123538305Y-85136497D01*
X126937401Y-81737401D01*
X127102148Y-81490839D01*
X127160000Y-81200000D01*
X127160000Y-74400000D01*
X127102148Y-74109161D01*
X127102148Y-74109160D01*
X126937401Y-73862599D01*
X122970000Y-69895198D01*
X122970000Y-67777531D01*
X123000303Y-67765010D01*
X123393629Y-67372370D01*
X123606757Y-66859100D01*
X123607242Y-66303339D01*
X123395010Y-65789697D01*
X123002370Y-65396371D01*
X122489100Y-65183243D01*
X121933339Y-65182758D01*
X121419697Y-65394990D01*
X121066237Y-65747833D01*
X121035162Y-65582683D01*
X120896090Y-65366559D01*
X120683890Y-65221569D01*
X120432000Y-65170560D01*
X118908000Y-65170560D01*
X118672683Y-65214838D01*
X118456559Y-65353910D01*
X118311569Y-65566110D01*
X118274508Y-65749124D01*
X117922370Y-65396371D01*
X117409100Y-65183243D01*
X116853339Y-65182758D01*
X116339697Y-65394990D01*
X115946371Y-65787630D01*
X115860051Y-65995512D01*
X115775010Y-65789697D01*
X115382370Y-65396371D01*
X114869100Y-65183243D01*
X114313339Y-65182758D01*
X113799697Y-65394990D01*
X113406371Y-65787630D01*
X113193243Y-66300900D01*
X113192758Y-66856661D01*
X113404990Y-67370303D01*
X113797630Y-67763629D01*
X113830000Y-67777070D01*
X113830000Y-68547520D01*
X113807808Y-68569673D01*
X113665162Y-68913201D01*
X113664838Y-69285167D01*
X113806883Y-69628943D01*
X113840000Y-69662118D01*
X113840000Y-69800000D01*
X113897852Y-70090839D01*
X114062599Y-70337401D01*
X116362599Y-72637401D01*
X116609160Y-72802148D01*
X116900000Y-72860000D01*
X122385198Y-72860000D01*
X124540000Y-75014802D01*
X124540000Y-79458635D01*
X124322794Y-79241049D01*
X123776861Y-79014358D01*
X123185733Y-79013842D01*
X122639405Y-79239580D01*
X122221049Y-79657206D01*
X121994358Y-80203139D01*
X121993842Y-80794267D01*
X122219580Y-81340595D01*
X122637206Y-81758951D01*
X123011024Y-81914174D01*
X122685198Y-82240000D01*
X120378034Y-82240000D01*
X120627373Y-81991096D01*
X121028442Y-81025215D01*
X121029355Y-79979374D01*
X120629972Y-79012793D01*
X119891096Y-78272627D01*
X118925215Y-77871558D01*
X117879374Y-77870645D01*
X116912793Y-78270028D01*
X116172627Y-79008904D01*
X115771558Y-79974785D01*
X115770645Y-81020626D01*
X116170028Y-81987207D01*
X116422380Y-82240000D01*
X115600000Y-82240000D01*
X115309161Y-82297852D01*
X115062599Y-82462599D01*
X114052599Y-83472599D01*
X113887852Y-83719161D01*
X113830000Y-84010000D01*
X113830000Y-84382469D01*
X113799697Y-84394990D01*
X113406371Y-84787630D01*
X113193243Y-85300900D01*
X113192758Y-85856661D01*
X113404990Y-86370303D01*
X113797630Y-86763629D01*
X113830000Y-86777070D01*
X113830000Y-88390000D01*
X113887852Y-88680839D01*
X114052599Y-88927401D01*
X116762599Y-91637401D01*
X117009161Y-91802148D01*
X117300000Y-91860000D01*
X122185198Y-91860000D01*
X124640000Y-94314802D01*
X124640000Y-98658809D01*
X124322794Y-98341049D01*
X123776861Y-98114358D01*
X123185733Y-98113842D01*
X122639405Y-98339580D01*
X122221049Y-98757206D01*
X121994358Y-99303139D01*
X121993842Y-99894267D01*
X122219580Y-100440595D01*
X122637206Y-100858951D01*
X122940365Y-100984833D01*
X122485198Y-101440000D01*
X120277860Y-101440000D01*
X120627373Y-101091096D01*
X121028442Y-100125215D01*
X121029355Y-99079374D01*
X120629972Y-98112793D01*
X119891096Y-97372627D01*
X118925215Y-96971558D01*
X117879374Y-96970645D01*
X116912793Y-97370028D01*
X116172627Y-98108904D01*
X115771558Y-99074785D01*
X115770645Y-100120626D01*
X116170028Y-101087207D01*
X116522206Y-101440000D01*
X115600000Y-101440000D01*
X115309161Y-101497852D01*
X115062599Y-101662599D01*
X114052599Y-102672599D01*
X113887852Y-102919161D01*
X113830000Y-103210000D01*
X113830000Y-103482469D01*
X113799697Y-103494990D01*
X113406371Y-103887630D01*
X113193243Y-104400900D01*
X113192758Y-104956661D01*
X113404990Y-105470303D01*
X113797630Y-105863629D01*
X113830000Y-105877070D01*
X113830000Y-109990000D01*
X113887852Y-110280839D01*
X114052599Y-110527401D01*
X115762599Y-112237401D01*
X116009160Y-112402148D01*
X116300000Y-112460000D01*
X119485183Y-112460000D01*
X119433564Y-112511529D01*
X119330390Y-112760000D01*
X112560000Y-112760000D01*
X112560000Y-100893330D01*
X113023139Y-101085642D01*
X113614267Y-101086158D01*
X114160595Y-100860420D01*
X114578951Y-100442794D01*
X114805642Y-99896861D01*
X114806158Y-99305733D01*
X114612903Y-98838021D01*
X114942114Y-98838308D01*
X115595840Y-98568194D01*
X116096436Y-98068471D01*
X116367691Y-97415218D01*
X116368308Y-96707886D01*
X116098194Y-96054160D01*
X115598471Y-95553564D01*
X114945218Y-95282309D01*
X114237886Y-95281692D01*
X113584160Y-95551806D01*
X113083564Y-96051529D01*
X112812309Y-96704782D01*
X112811692Y-97412114D01*
X113081806Y-98065840D01*
X113129815Y-98113933D01*
X113025733Y-98113842D01*
X112560000Y-98306279D01*
X112560000Y-95280000D01*
X119330227Y-95280000D01*
X119431806Y-95525840D01*
X119931529Y-96026436D01*
X120584782Y-96297691D01*
X121292114Y-96298308D01*
X121945840Y-96028194D01*
X122446436Y-95528471D01*
X122717691Y-94875218D01*
X122718308Y-94167886D01*
X122448194Y-93514160D01*
X121948471Y-93013564D01*
X121295218Y-92742309D01*
X120587886Y-92741692D01*
X119934160Y-93011806D01*
X119433564Y-93511529D01*
X119330390Y-93760000D01*
X112560000Y-93760000D01*
X112560000Y-81793330D01*
X113023139Y-81985642D01*
X113614267Y-81986158D01*
X114160595Y-81760420D01*
X114578951Y-81342794D01*
X114805642Y-80796861D01*
X114806158Y-80205733D01*
X114612903Y-79738021D01*
X114942114Y-79738308D01*
X115595840Y-79468194D01*
X116096436Y-78968471D01*
X116367691Y-78315218D01*
X116368308Y-77607886D01*
X116098194Y-76954160D01*
X115598471Y-76453564D01*
X114945218Y-76182309D01*
X114237886Y-76181692D01*
X113584160Y-76451806D01*
X113083564Y-76951529D01*
X112812309Y-77604782D01*
X112811692Y-78312114D01*
X113081806Y-78965840D01*
X113129815Y-79013933D01*
X113025733Y-79013842D01*
X112560000Y-79206279D01*
X112560000Y-76180000D01*
X119330227Y-76180000D01*
X119431806Y-76425840D01*
X119931529Y-76926436D01*
X120584782Y-77197691D01*
X121292114Y-77198308D01*
X121945840Y-76928194D01*
X122446436Y-76428471D01*
X122717691Y-75775218D01*
X122718308Y-75067886D01*
X122448194Y-74414160D01*
X121948471Y-73913564D01*
X121295218Y-73642309D01*
X120587886Y-73641692D01*
X119934160Y-73911806D01*
X119433564Y-74411529D01*
X119330390Y-74660000D01*
X112560000Y-74660000D01*
X112560000Y-62793330D01*
X113023139Y-62985642D01*
X113614267Y-62986158D01*
X114160595Y-62760420D01*
X114578951Y-62342794D01*
X114712726Y-62020626D01*
X115770645Y-62020626D01*
X116170028Y-62987207D01*
X116908904Y-63727373D01*
X117874785Y-64128442D01*
X118920626Y-64129355D01*
X119887207Y-63729972D01*
X120627373Y-62991096D01*
X121028442Y-62025215D01*
X121028643Y-61794267D01*
X121993842Y-61794267D01*
X122219580Y-62340595D01*
X122637206Y-62758951D01*
X123183139Y-62985642D01*
X123774267Y-62986158D01*
X124320595Y-62760420D01*
X124738951Y-62342794D01*
X124965642Y-61796861D01*
X124966158Y-61205733D01*
X124740420Y-60659405D01*
X124322794Y-60241049D01*
X123776861Y-60014358D01*
X123185733Y-60013842D01*
X122639405Y-60239580D01*
X122221049Y-60657206D01*
X121994358Y-61203139D01*
X121993842Y-61794267D01*
X121028643Y-61794267D01*
X121029355Y-60979374D01*
X120629972Y-60012793D01*
X119891096Y-59272627D01*
X118925215Y-58871558D01*
X117879374Y-58870645D01*
X116912793Y-59270028D01*
X116172627Y-60008904D01*
X115771558Y-60974785D01*
X115770645Y-62020626D01*
X114712726Y-62020626D01*
X114805642Y-61796861D01*
X114806158Y-61205733D01*
X114612903Y-60738021D01*
X114942114Y-60738308D01*
X115595840Y-60468194D01*
X116096436Y-59968471D01*
X116367691Y-59315218D01*
X116368308Y-58607886D01*
X116098194Y-57954160D01*
X115598471Y-57453564D01*
X114945218Y-57182309D01*
X114237886Y-57181692D01*
X113584160Y-57451806D01*
X113083564Y-57951529D01*
X112812309Y-58604782D01*
X112811692Y-59312114D01*
X113081806Y-59965840D01*
X113129815Y-60013933D01*
X113025733Y-60013842D01*
X112560000Y-60206279D01*
X112560000Y-58314802D01*
X113694802Y-57180000D01*
X119330227Y-57180000D01*
X119431806Y-57425840D01*
X119931529Y-57926436D01*
X120584782Y-58197691D01*
X121292114Y-58198308D01*
X121945840Y-57928194D01*
X122446436Y-57428471D01*
X122717691Y-56775218D01*
X122718308Y-56067886D01*
X122448194Y-55414160D01*
X121948471Y-54913564D01*
X121295218Y-54642309D01*
X120587886Y-54641692D01*
X119934160Y-54911806D01*
X119433564Y-55411529D01*
X119330390Y-55660000D01*
X113380000Y-55660000D01*
X113137414Y-55708254D01*
X113089160Y-55717852D01*
X112842599Y-55882599D01*
X111262599Y-57462599D01*
X111210000Y-57541319D01*
X111210000Y-55082682D01*
X112934615Y-54739635D01*
X113115592Y-54664671D01*
X113190556Y-54633620D01*
X115137096Y-53332984D01*
X115332984Y-53137096D01*
X115379996Y-53066737D01*
X143315309Y-53066737D01*
X143374262Y-53169940D01*
X143642641Y-53504371D01*
X144018572Y-53710640D01*
X144186600Y-53590692D01*
X144186600Y-52900040D01*
X144811600Y-52900040D01*
X144811600Y-53590692D01*
X144979628Y-53710640D01*
X145355559Y-53504371D01*
X145623938Y-53169940D01*
X145682891Y-53066737D01*
X148315309Y-53066737D01*
X148374262Y-53169940D01*
X148642641Y-53504371D01*
X149018572Y-53710640D01*
X149186600Y-53590692D01*
X149186600Y-52900040D01*
X149811600Y-52900040D01*
X149811600Y-53590692D01*
X149979628Y-53710640D01*
X150355559Y-53504371D01*
X150623938Y-53169940D01*
X150682891Y-53066737D01*
X150570224Y-52900040D01*
X149811600Y-52900040D01*
X149186600Y-52900040D01*
X148427976Y-52900040D01*
X148315309Y-53066737D01*
X145682891Y-53066737D01*
X145570224Y-52900040D01*
X144811600Y-52900040D01*
X144186600Y-52900040D01*
X143427976Y-52900040D01*
X143315309Y-53066737D01*
X115379996Y-53066737D01*
X115920147Y-52258343D01*
X143315309Y-52258343D01*
X143427976Y-52425040D01*
X144186600Y-52425040D01*
X144186600Y-51734388D01*
X144811600Y-51734388D01*
X144811600Y-52425040D01*
X145570224Y-52425040D01*
X145682891Y-52258343D01*
X148315309Y-52258343D01*
X148427976Y-52425040D01*
X149186600Y-52425040D01*
X149186600Y-51734388D01*
X149811600Y-51734388D01*
X149811600Y-52425040D01*
X150570224Y-52425040D01*
X150682891Y-52258343D01*
X150623938Y-52155140D01*
X150355559Y-51820709D01*
X149979628Y-51614440D01*
X149811600Y-51734388D01*
X149186600Y-51734388D01*
X149018572Y-51614440D01*
X148642641Y-51820709D01*
X148374262Y-52155140D01*
X148315309Y-52258343D01*
X145682891Y-52258343D01*
X145623938Y-52155140D01*
X145355559Y-51820709D01*
X144979628Y-51614440D01*
X144811600Y-51734388D01*
X144186600Y-51734388D01*
X144018572Y-51614440D01*
X143642641Y-51820709D01*
X143374262Y-52155140D01*
X143315309Y-52258343D01*
X115920147Y-52258343D01*
X116633621Y-51190555D01*
X116672782Y-51096012D01*
X116739635Y-50934615D01*
X116824225Y-50509351D01*
X142409414Y-50509351D01*
X142596379Y-50905665D01*
X142920775Y-51200263D01*
X143078985Y-51291926D01*
X143249100Y-51181237D01*
X143249100Y-50335540D01*
X143749100Y-50335540D01*
X143749100Y-51181237D01*
X143919215Y-51291926D01*
X144077425Y-51200263D01*
X144401821Y-50905665D01*
X144588786Y-50509351D01*
X149409414Y-50509351D01*
X149596379Y-50905665D01*
X149920775Y-51200263D01*
X150078985Y-51291926D01*
X150249100Y-51181237D01*
X150249100Y-50335540D01*
X150749100Y-50335540D01*
X150749100Y-51181237D01*
X150919215Y-51291926D01*
X151077425Y-51200263D01*
X151401821Y-50905665D01*
X151588786Y-50509351D01*
X151459141Y-50335540D01*
X150749100Y-50335540D01*
X150249100Y-50335540D01*
X149539059Y-50335540D01*
X149409414Y-50509351D01*
X144588786Y-50509351D01*
X144459141Y-50335540D01*
X143749100Y-50335540D01*
X143249100Y-50335540D01*
X142539059Y-50335540D01*
X142409414Y-50509351D01*
X116824225Y-50509351D01*
X117082682Y-49210000D01*
X142506469Y-49210000D01*
X142409414Y-49415729D01*
X142409414Y-49415729D01*
G37*
X142409414Y-49415729D02*
X142539059Y-49589540D01*
X143249100Y-49589540D01*
X143249100Y-49569540D01*
X143749100Y-49569540D01*
X143749100Y-49589540D01*
X144459141Y-49589540D01*
X144588786Y-49415729D01*
X144491731Y-49210000D01*
X149506469Y-49210000D01*
X149409414Y-49415729D01*
X149539059Y-49589540D01*
X150249100Y-49589540D01*
X150249100Y-49569540D01*
X150749100Y-49569540D01*
X150749100Y-49589540D01*
X151459141Y-49589540D01*
X151588786Y-49415729D01*
X151491731Y-49210000D01*
X176917318Y-49210000D01*
X177260365Y-50934615D01*
X177335329Y-51115592D01*
X177366380Y-51190556D01*
X178667016Y-53137096D01*
X178862904Y-53332984D01*
X180809445Y-54633621D01*
X180903988Y-54672782D01*
X181065385Y-54739635D01*
X182790000Y-55082682D01*
X182790000Y-57515198D01*
X181157401Y-55882599D01*
X180910839Y-55717852D01*
X180620000Y-55660000D01*
X179749773Y-55660000D01*
X179648194Y-55414160D01*
X179148471Y-54913564D01*
X178495218Y-54642309D01*
X177787886Y-54641692D01*
X177134160Y-54911806D01*
X176633564Y-55411529D01*
X176362309Y-56064782D01*
X176361692Y-56772114D01*
X176631806Y-57425840D01*
X177131529Y-57926436D01*
X177784782Y-58197691D01*
X178492114Y-58198308D01*
X179145840Y-57928194D01*
X179646436Y-57428471D01*
X179749610Y-57180000D01*
X180305198Y-57180000D01*
X182040000Y-58914802D01*
X182040000Y-60900407D01*
X181940420Y-60659405D01*
X181522794Y-60241049D01*
X180976861Y-60014358D01*
X180385733Y-60013842D01*
X179839405Y-60239580D01*
X179421049Y-60657206D01*
X179194358Y-61203139D01*
X179193842Y-61794267D01*
X179419580Y-62340595D01*
X179837206Y-62758951D01*
X180383139Y-62985642D01*
X180974267Y-62986158D01*
X181520595Y-62760420D01*
X181938951Y-62342794D01*
X182040000Y-62099441D01*
X182040000Y-68135198D01*
X180794183Y-66889381D01*
X180806757Y-66859100D01*
X180807242Y-66303339D01*
X180595010Y-65789697D01*
X180202370Y-65396371D01*
X179689100Y-65183243D01*
X179133339Y-65182758D01*
X178619697Y-65394990D01*
X178266237Y-65747833D01*
X178235162Y-65582683D01*
X178096090Y-65366559D01*
X177883890Y-65221569D01*
X177632000Y-65170560D01*
X176108000Y-65170560D01*
X175872683Y-65214838D01*
X175656559Y-65353910D01*
X175511569Y-65566110D01*
X175474508Y-65749124D01*
X175122370Y-65396371D01*
X174609100Y-65183243D01*
X174053339Y-65182758D01*
X173539697Y-65394990D01*
X173146371Y-65787630D01*
X173060051Y-65995512D01*
X172975010Y-65789697D01*
X172582370Y-65396371D01*
X172069100Y-65183243D01*
X171513339Y-65182758D01*
X170999697Y-65394990D01*
X170606371Y-65787630D01*
X170393243Y-66300900D01*
X170392758Y-66856661D01*
X170604990Y-67370303D01*
X170997630Y-67763629D01*
X171510900Y-67976757D01*
X172066661Y-67977242D01*
X172099055Y-67963857D01*
X172972599Y-68837401D01*
X173219160Y-69002148D01*
X173510000Y-69060000D01*
X174885198Y-69060000D01*
X175512601Y-69687403D01*
X175759162Y-69852150D01*
X176050002Y-69910002D01*
X179498802Y-69910002D01*
X180639996Y-71051196D01*
X180639996Y-72040000D01*
X180000000Y-72040000D01*
X179709161Y-72097852D01*
X179462599Y-72262599D01*
X178962599Y-72762599D01*
X178797852Y-73009161D01*
X178740000Y-73300000D01*
X178740000Y-79300000D01*
X178797852Y-79590839D01*
X178962599Y-79837401D01*
X179562599Y-80437401D01*
X179809161Y-80602148D01*
X180100000Y-80660000D01*
X180639996Y-80660000D01*
X180639996Y-81648804D01*
X180448800Y-81840000D01*
X175000000Y-81840000D01*
X174709161Y-81897852D01*
X174462599Y-82062599D01*
X173062599Y-83462599D01*
X172897852Y-83709161D01*
X172840000Y-84000000D01*
X172840000Y-84835196D01*
X172535196Y-85140000D01*
X171445940Y-85140000D01*
X171412370Y-85106371D01*
X170899100Y-84893243D01*
X170343339Y-84892758D01*
X170254107Y-84929628D01*
X170260000Y-84900000D01*
X170260000Y-73162463D01*
X170292192Y-73130327D01*
X170434838Y-72786799D01*
X170435162Y-72414833D01*
X170293117Y-72071057D01*
X170030327Y-71807808D01*
X169686799Y-71665162D01*
X169314833Y-71664838D01*
X168971057Y-71806883D01*
X168707808Y-72069673D01*
X168565162Y-72413201D01*
X168565049Y-72542765D01*
X168430327Y-72407808D01*
X168086799Y-72265162D01*
X167714833Y-72264838D01*
X167371057Y-72406883D01*
X167107808Y-72669673D01*
X167073812Y-72751544D01*
X166930327Y-72607808D01*
X166586799Y-72465162D01*
X166214833Y-72464838D01*
X165871057Y-72606883D01*
X165607808Y-72869673D01*
X165526764Y-73064848D01*
X165514833Y-73064838D01*
X165171057Y-73206883D01*
X164907808Y-73469673D01*
X164808529Y-73708762D01*
X164571057Y-73806883D01*
X164307808Y-74069673D01*
X164165162Y-74413201D01*
X164164838Y-74785167D01*
X164306883Y-75128943D01*
X164569673Y-75392192D01*
X164913201Y-75534838D01*
X164960077Y-75534879D01*
X164962599Y-75537401D01*
X165209160Y-75702148D01*
X165252853Y-75710839D01*
X165481522Y-75756325D01*
X165740000Y-76014803D01*
X165740000Y-82585198D01*
X164162599Y-84162599D01*
X163997852Y-84409161D01*
X163940000Y-84700000D01*
X163940000Y-87447957D01*
X163900000Y-87440000D01*
X162162463Y-87440000D01*
X162130327Y-87407808D01*
X161786799Y-87265162D01*
X161414833Y-87264838D01*
X161071057Y-87406883D01*
X160807808Y-87669673D01*
X160665162Y-88013201D01*
X160665099Y-88085388D01*
X160371057Y-88206883D01*
X160107808Y-88469673D01*
X159965162Y-88813201D01*
X159965150Y-88826685D01*
X159771057Y-88906883D01*
X159507808Y-89169673D01*
X159365162Y-89513201D01*
X159365117Y-89564882D01*
X159314833Y-89564838D01*
X158971057Y-89706883D01*
X158707808Y-89969673D01*
X158565162Y-90313201D01*
X158564838Y-90685167D01*
X158649472Y-90889998D01*
X156614802Y-90889998D01*
X156560000Y-90835196D01*
X156560000Y-87914802D01*
X156614802Y-87860000D01*
X159400000Y-87860000D01*
X159690839Y-87802148D01*
X159937401Y-87637401D01*
X160605234Y-86969568D01*
X161100303Y-86765010D01*
X161493629Y-86372370D01*
X161706757Y-85859100D01*
X161707242Y-85303339D01*
X161495010Y-84789697D01*
X161102370Y-84396371D01*
X161070000Y-84382930D01*
X161070000Y-81897139D01*
X161283139Y-81985642D01*
X161874267Y-81986158D01*
X162420595Y-81760420D01*
X162838951Y-81342794D01*
X163065642Y-80796861D01*
X163066158Y-80205733D01*
X162840420Y-79659405D01*
X162422794Y-79241049D01*
X161876861Y-79014358D01*
X161460807Y-79013995D01*
X162637401Y-77837401D01*
X162802148Y-77590840D01*
X162860000Y-77300000D01*
X162860000Y-74200000D01*
X162823176Y-74014873D01*
X162802148Y-73909160D01*
X162637401Y-73662599D01*
X161070000Y-72095198D01*
X161070000Y-67777531D01*
X161100303Y-67765010D01*
X161493629Y-67372370D01*
X161706757Y-66859100D01*
X161707242Y-66303339D01*
X161495010Y-65789697D01*
X161102370Y-65396371D01*
X160589100Y-65183243D01*
X160033339Y-65182758D01*
X159519697Y-65394990D01*
X159166237Y-65747833D01*
X159135162Y-65582683D01*
X158996090Y-65366559D01*
X158783890Y-65221569D01*
X158532000Y-65170560D01*
X157008000Y-65170560D01*
X156772683Y-65214838D01*
X156556559Y-65353910D01*
X156411569Y-65566110D01*
X156374508Y-65749124D01*
X156022370Y-65396371D01*
X155509100Y-65183243D01*
X154953339Y-65182758D01*
X154439697Y-65394990D01*
X154046371Y-65787630D01*
X153960051Y-65995512D01*
X153875010Y-65789697D01*
X153482370Y-65396371D01*
X152969100Y-65183243D01*
X152413339Y-65182758D01*
X151899697Y-65394990D01*
X151506371Y-65787630D01*
X151293243Y-66300900D01*
X151292758Y-66856661D01*
X151504990Y-67370303D01*
X151897630Y-67763629D01*
X151930000Y-67777070D01*
X151930000Y-71590000D01*
X151987852Y-71880839D01*
X152152599Y-72127401D01*
X154062599Y-74037401D01*
X154309161Y-74202148D01*
X154600000Y-74260000D01*
X157685358Y-74260000D01*
X157533564Y-74411529D01*
X157430390Y-74660000D01*
X150660000Y-74660000D01*
X150660000Y-71562463D01*
X150692192Y-71530327D01*
X150834838Y-71186799D01*
X150835162Y-70814833D01*
X150696224Y-70478578D01*
X150837401Y-70337401D01*
X151002148Y-70090840D01*
X151022843Y-69986799D01*
X151060000Y-69800000D01*
X151060000Y-62959424D01*
X151123139Y-62985642D01*
X151714267Y-62986158D01*
X152260595Y-62760420D01*
X152678951Y-62342794D01*
X152812726Y-62020626D01*
X153870645Y-62020626D01*
X154270028Y-62987207D01*
X155008904Y-63727373D01*
X155974785Y-64128442D01*
X157020626Y-64129355D01*
X157987207Y-63729972D01*
X158727373Y-62991096D01*
X159128442Y-62025215D01*
X159128643Y-61794267D01*
X160093842Y-61794267D01*
X160319580Y-62340595D01*
X160737206Y-62758951D01*
X161283139Y-62985642D01*
X161874267Y-62986158D01*
X162420595Y-62760420D01*
X162838951Y-62342794D01*
X163065642Y-61796861D01*
X163065644Y-61794267D01*
X169033842Y-61794267D01*
X169259580Y-62340595D01*
X169677206Y-62758951D01*
X170223139Y-62985642D01*
X170814267Y-62986158D01*
X171360595Y-62760420D01*
X171778951Y-62342794D01*
X171912726Y-62020626D01*
X172970645Y-62020626D01*
X173370028Y-62987207D01*
X174108904Y-63727373D01*
X175074785Y-64128442D01*
X176120626Y-64129355D01*
X177087207Y-63729972D01*
X177827373Y-62991096D01*
X178228442Y-62025215D01*
X178229355Y-60979374D01*
X177829972Y-60012793D01*
X177091096Y-59272627D01*
X176125215Y-58871558D01*
X175079374Y-58870645D01*
X174112793Y-59270028D01*
X173372627Y-60008904D01*
X172971558Y-60974785D01*
X172970645Y-62020626D01*
X171912726Y-62020626D01*
X172005642Y-61796861D01*
X172006158Y-61205733D01*
X171812903Y-60738021D01*
X172142114Y-60738308D01*
X172795840Y-60468194D01*
X173296436Y-59968471D01*
X173567691Y-59315218D01*
X173568308Y-58607886D01*
X173298194Y-57954160D01*
X172798471Y-57453564D01*
X172145218Y-57182309D01*
X171437886Y-57181692D01*
X170784160Y-57451806D01*
X170283564Y-57951529D01*
X170012309Y-58604782D01*
X170011692Y-59312114D01*
X170281806Y-59965840D01*
X170329815Y-60013933D01*
X170225733Y-60013842D01*
X169679405Y-60239580D01*
X169261049Y-60657206D01*
X169034358Y-61203139D01*
X169033842Y-61794267D01*
X163065644Y-61794267D01*
X163066158Y-61205733D01*
X162840420Y-60659405D01*
X162422794Y-60241049D01*
X161876861Y-60014358D01*
X161285733Y-60013842D01*
X160739405Y-60239580D01*
X160321049Y-60657206D01*
X160094358Y-61203139D01*
X160093842Y-61794267D01*
X159128643Y-61794267D01*
X159129355Y-60979374D01*
X158729972Y-60012793D01*
X157991096Y-59272627D01*
X157025215Y-58871558D01*
X155979374Y-58870645D01*
X155012793Y-59270028D01*
X154272627Y-60008904D01*
X153871558Y-60974785D01*
X153870645Y-62020626D01*
X152812726Y-62020626D01*
X152905642Y-61796861D01*
X152906158Y-61205733D01*
X152712903Y-60738021D01*
X153042114Y-60738308D01*
X153695840Y-60468194D01*
X154196436Y-59968471D01*
X154467691Y-59315218D01*
X154468308Y-58607886D01*
X154198194Y-57954160D01*
X153698471Y-57453564D01*
X153045218Y-57182309D01*
X152337886Y-57181692D01*
X151684160Y-57451806D01*
X151183564Y-57951529D01*
X150912309Y-58604782D01*
X150911692Y-59312114D01*
X151181806Y-59965840D01*
X151229815Y-60013933D01*
X151125733Y-60013842D01*
X150579405Y-60239580D01*
X150560000Y-60258951D01*
X150560000Y-58114802D01*
X151494802Y-57180000D01*
X157430227Y-57180000D01*
X157531806Y-57425840D01*
X158031529Y-57926436D01*
X158684782Y-58197691D01*
X159392114Y-58198308D01*
X160045840Y-57928194D01*
X160546436Y-57428471D01*
X160817691Y-56775218D01*
X160818308Y-56067886D01*
X160548194Y-55414160D01*
X160048471Y-54913564D01*
X159395218Y-54642309D01*
X158687886Y-54641692D01*
X158034160Y-54911806D01*
X157533564Y-55411529D01*
X157430390Y-55660000D01*
X151180000Y-55660000D01*
X150889161Y-55717852D01*
X150642599Y-55882599D01*
X149262599Y-57262599D01*
X149097852Y-57509161D01*
X149040000Y-57800000D01*
X149040000Y-62400000D01*
X149097852Y-62690839D01*
X149262599Y-62937401D01*
X149540000Y-63214802D01*
X149540000Y-69485198D01*
X149362599Y-69662599D01*
X149197852Y-69909161D01*
X149140000Y-70200000D01*
X149140000Y-70437537D01*
X149107808Y-70469673D01*
X148965162Y-70813201D01*
X148964838Y-71185167D01*
X149106883Y-71528943D01*
X149140000Y-71562118D01*
X149140000Y-129300000D01*
X149197852Y-129590839D01*
X149362599Y-129837401D01*
X152682599Y-133157401D01*
X152929161Y-133322148D01*
X153220000Y-133380000D01*
X157430227Y-133380000D01*
X157531806Y-133625840D01*
X158031529Y-134126436D01*
X158684782Y-134397691D01*
X159392114Y-134398308D01*
X159621790Y-134303408D01*
X158662599Y-135262599D01*
X158497852Y-135509161D01*
X158440000Y-135800000D01*
X158440000Y-135922315D01*
X157991096Y-135472627D01*
X157025215Y-135071558D01*
X155979374Y-135070645D01*
X155012793Y-135470028D01*
X154272627Y-136208904D01*
X153871558Y-137174785D01*
X153870645Y-138220626D01*
X154270028Y-139187207D01*
X154921683Y-139840000D01*
X153600000Y-139840000D01*
X153309160Y-139897852D01*
X153062599Y-140062599D01*
X152152599Y-140972599D01*
X151987852Y-141219161D01*
X151930000Y-141510000D01*
X151930000Y-141582469D01*
X151899697Y-141594990D01*
X151506371Y-141987630D01*
X151293243Y-142500900D01*
X151292758Y-143056661D01*
X151504990Y-143570303D01*
X151897630Y-143963629D01*
X152410900Y-144176757D01*
X152966661Y-144177242D01*
X153480303Y-143965010D01*
X153873629Y-143572370D01*
X153959949Y-143364488D01*
X154044990Y-143570303D01*
X154437630Y-143963629D01*
X154950900Y-144176757D01*
X155506661Y-144177242D01*
X156020303Y-143965010D01*
X156373763Y-143612167D01*
X156404838Y-143777317D01*
X156543910Y-143993441D01*
X156756110Y-144138431D01*
X157008000Y-144189440D01*
X158532000Y-144189440D01*
X158767317Y-144145162D01*
X158983441Y-144006090D01*
X159128431Y-143793890D01*
X159165492Y-143610876D01*
X159517630Y-143963629D01*
X160030900Y-144176757D01*
X160586661Y-144177242D01*
X161100303Y-143965010D01*
X161493629Y-143572370D01*
X161706757Y-143059100D01*
X161707242Y-142503339D01*
X161693857Y-142470945D01*
X163937401Y-140227401D01*
X164102148Y-139980839D01*
X164140000Y-139790546D01*
X164140000Y-142685198D01*
X160685198Y-146140000D01*
X139871223Y-146140000D01*
X139934838Y-145986799D01*
X139935162Y-145614833D01*
X139793117Y-145271057D01*
X139530327Y-145007808D01*
X139288090Y-144907222D01*
X138535000Y-144154132D01*
X138535000Y-137994267D01*
X149933842Y-137994267D01*
X150159580Y-138540595D01*
X150577206Y-138958951D01*
X151123139Y-139185642D01*
X151714267Y-139186158D01*
X152260595Y-138960420D01*
X152678951Y-138542794D01*
X152905642Y-137996861D01*
X152906158Y-137405733D01*
X152712903Y-136938021D01*
X153042114Y-136938308D01*
X153695840Y-136668194D01*
X154196436Y-136168471D01*
X154467691Y-135515218D01*
X154468308Y-134807886D01*
X154198194Y-134154160D01*
X153698471Y-133653564D01*
X153045218Y-133382309D01*
X152337886Y-133381692D01*
X151684160Y-133651806D01*
X151183564Y-134151529D01*
X150912309Y-134804782D01*
X150911692Y-135512114D01*
X151181806Y-136165840D01*
X151229815Y-136213933D01*
X151125733Y-136213842D01*
X150579405Y-136439580D01*
X150161049Y-136857206D01*
X149934358Y-137403139D01*
X149933842Y-137994267D01*
X138535000Y-137994267D01*
X138535000Y-137727234D01*
X138634838Y-137486799D01*
X138635162Y-137114833D01*
X138535000Y-136872422D01*
X138535000Y-133400000D01*
X138471439Y-133080459D01*
X138290434Y-132809566D01*
X134090434Y-128609566D01*
X134020143Y-128562599D01*
X133819541Y-128428561D01*
X133500000Y-128365000D01*
X129645868Y-128365000D01*
X129135000Y-127854132D01*
X129135000Y-120727234D01*
X129234838Y-120486799D01*
X129235162Y-120114833D01*
X129135000Y-119872422D01*
X129135000Y-118894267D01*
X130933842Y-118894267D01*
X131159580Y-119440595D01*
X131577206Y-119858951D01*
X132123139Y-120085642D01*
X132714267Y-120086158D01*
X133260595Y-119860420D01*
X133678951Y-119442794D01*
X133905642Y-118896861D01*
X133906158Y-118305733D01*
X133712903Y-117838021D01*
X134042114Y-117838308D01*
X134695840Y-117568194D01*
X135196436Y-117068471D01*
X135467691Y-116415218D01*
X135468308Y-115707886D01*
X135198194Y-115054160D01*
X134698471Y-114553564D01*
X134045218Y-114282309D01*
X133337886Y-114281692D01*
X132684160Y-114551806D01*
X132183564Y-115051529D01*
X131912309Y-115704782D01*
X131911692Y-116412114D01*
X132181806Y-117065840D01*
X132229815Y-117113933D01*
X132125733Y-117113842D01*
X131579405Y-117339580D01*
X131161049Y-117757206D01*
X130934358Y-118303139D01*
X130933842Y-118894267D01*
X129135000Y-118894267D01*
X129135000Y-102227234D01*
X129234838Y-101986799D01*
X129235162Y-101614833D01*
X129135000Y-101372422D01*
X129135000Y-70285167D01*
X129964838Y-70285167D01*
X130106883Y-70628943D01*
X130140000Y-70662118D01*
X130140000Y-112500000D01*
X130197852Y-112790839D01*
X130362599Y-113037401D01*
X131382599Y-114057401D01*
X131629161Y-114222148D01*
X131920000Y-114280000D01*
X138430227Y-114280000D01*
X138531806Y-114525840D01*
X139031529Y-115026436D01*
X139684782Y-115297691D01*
X140127121Y-115298077D01*
X139562599Y-115862599D01*
X139397852Y-116109161D01*
X139340000Y-116400000D01*
X139340000Y-116722140D01*
X138991096Y-116372627D01*
X138025215Y-115971558D01*
X136979374Y-115970645D01*
X136012793Y-116370028D01*
X135272627Y-117108904D01*
X134871558Y-118074785D01*
X134870645Y-119120626D01*
X135270028Y-120087207D01*
X135522380Y-120340000D01*
X134400000Y-120340000D01*
X134109161Y-120397852D01*
X133862599Y-120562599D01*
X133152599Y-121272599D01*
X132987852Y-121519161D01*
X132930000Y-121810000D01*
X132930000Y-122482469D01*
X132899697Y-122494990D01*
X132506371Y-122887630D01*
X132293243Y-123400900D01*
X132292758Y-123956661D01*
X132504990Y-124470303D01*
X132897630Y-124863629D01*
X133410900Y-125076757D01*
X133966661Y-125077242D01*
X134480303Y-124865010D01*
X134873629Y-124472370D01*
X134959949Y-124264488D01*
X135044990Y-124470303D01*
X135437630Y-124863629D01*
X135950900Y-125076757D01*
X136506661Y-125077242D01*
X137020303Y-124865010D01*
X137373763Y-124512167D01*
X137404838Y-124677317D01*
X137543910Y-124893441D01*
X137756110Y-125038431D01*
X138008000Y-125089440D01*
X139532000Y-125089440D01*
X139767317Y-125045162D01*
X139983441Y-124906090D01*
X140128431Y-124693890D01*
X140165492Y-124510876D01*
X140517630Y-124863629D01*
X141030900Y-125076757D01*
X141586661Y-125077242D01*
X142100303Y-124865010D01*
X142493629Y-124472370D01*
X142706757Y-123959100D01*
X142707242Y-123403339D01*
X142495010Y-122889697D01*
X142102370Y-122496371D01*
X142070000Y-122482930D01*
X142070000Y-119997139D01*
X142283139Y-120085642D01*
X142874267Y-120086158D01*
X143112054Y-119987907D01*
X143097852Y-120009161D01*
X143040000Y-120300000D01*
X143040000Y-127900000D01*
X143065064Y-128026003D01*
X143064838Y-128285167D01*
X143206883Y-128628943D01*
X143469673Y-128892192D01*
X143813201Y-129034838D01*
X144185167Y-129035162D01*
X144370969Y-128958390D01*
X144265162Y-129213201D01*
X144264838Y-129585167D01*
X144406883Y-129928943D01*
X144669673Y-130192192D01*
X145013201Y-130334838D01*
X145385167Y-130335162D01*
X145728943Y-130193117D01*
X145992192Y-129930327D01*
X146134838Y-129586799D01*
X146135162Y-129214833D01*
X145993117Y-128871057D01*
X145960000Y-128837882D01*
X145960000Y-110234966D01*
X146185167Y-110235162D01*
X146528943Y-110093117D01*
X146792192Y-109830327D01*
X146831836Y-109734854D01*
X147185167Y-109735162D01*
X147528943Y-109593117D01*
X147792192Y-109330327D01*
X147831764Y-109235028D01*
X147985167Y-109235162D01*
X148328943Y-109093117D01*
X148592192Y-108830327D01*
X148734838Y-108486799D01*
X148735162Y-108114833D01*
X148593117Y-107771057D01*
X148560000Y-107737882D01*
X148560000Y-61355105D01*
X148701441Y-61264090D01*
X148846431Y-61051890D01*
X148897440Y-60800000D01*
X148897440Y-59600000D01*
X148853162Y-59364683D01*
X148714090Y-59148559D01*
X148644289Y-59100866D01*
X148701441Y-59064090D01*
X148846431Y-58851890D01*
X148897440Y-58600000D01*
X148897440Y-57400000D01*
X148853162Y-57164683D01*
X148714090Y-56948559D01*
X148560000Y-56843274D01*
X148560000Y-56300000D01*
X148502148Y-56009161D01*
X148337401Y-55762599D01*
X148235122Y-55660320D01*
X148235162Y-55614833D01*
X148093117Y-55271057D01*
X147830327Y-55007808D01*
X147486799Y-54865162D01*
X147114833Y-54864838D01*
X146771057Y-55006883D01*
X146650019Y-55127710D01*
X146530327Y-55007808D01*
X146186799Y-54865162D01*
X146034944Y-54865030D01*
X146035162Y-54614833D01*
X145893117Y-54271057D01*
X145630327Y-54007808D01*
X145286799Y-53865162D01*
X144914833Y-53864838D01*
X144571057Y-54006883D01*
X144349845Y-54227709D01*
X144130327Y-54007808D01*
X143786799Y-53865162D01*
X143414833Y-53864838D01*
X143071057Y-54006883D01*
X142807808Y-54269673D01*
X142665162Y-54613201D01*
X142664838Y-54985167D01*
X142806883Y-55328943D01*
X143069673Y-55592192D01*
X143340000Y-55704442D01*
X143340000Y-60206670D01*
X142876861Y-60014358D01*
X142285733Y-60013842D01*
X141739405Y-60239580D01*
X141321049Y-60657206D01*
X141094358Y-61203139D01*
X141093842Y-61794267D01*
X141319580Y-62340595D01*
X141737206Y-62758951D01*
X142283139Y-62985642D01*
X142874267Y-62986158D01*
X143420595Y-62760420D01*
X143838951Y-62342794D01*
X143876812Y-62251614D01*
X144140000Y-62514802D01*
X144140000Y-70400000D01*
X144197852Y-70690839D01*
X144362599Y-70937401D01*
X145214998Y-71789800D01*
X145214998Y-86810200D01*
X143162599Y-88862599D01*
X142997852Y-89109161D01*
X142940000Y-89400000D01*
X142940000Y-89937537D01*
X142907808Y-89969673D01*
X142765162Y-90313201D01*
X142764838Y-90685167D01*
X142906883Y-91028943D01*
X143169673Y-91292192D01*
X143513201Y-91434838D01*
X143885167Y-91435162D01*
X144228943Y-91293117D01*
X144492192Y-91030327D01*
X144628136Y-90702938D01*
X144689998Y-90764800D01*
X144689998Y-92665078D01*
X144414833Y-92664838D01*
X144071057Y-92806883D01*
X143807808Y-93069673D01*
X143731059Y-93254504D01*
X143702148Y-93109161D01*
X143537401Y-92862599D01*
X141637401Y-90962599D01*
X141390839Y-90797852D01*
X141100000Y-90740000D01*
X138714802Y-90740000D01*
X138560000Y-90585198D01*
X138560000Y-88414802D01*
X138914802Y-88060000D01*
X140100000Y-88060000D01*
X140390839Y-88002148D01*
X140637401Y-87837401D01*
X141497638Y-86977164D01*
X141586661Y-86977242D01*
X142100303Y-86765010D01*
X142493629Y-86372370D01*
X142706757Y-85859100D01*
X142707242Y-85303339D01*
X142495010Y-84789697D01*
X142102370Y-84396371D01*
X142070000Y-84382930D01*
X142070000Y-81897139D01*
X142283139Y-81985642D01*
X142874267Y-81986158D01*
X143420595Y-81760420D01*
X143838951Y-81342794D01*
X144065642Y-80796861D01*
X144066158Y-80205733D01*
X143840420Y-79659405D01*
X143422794Y-79241049D01*
X142876861Y-79014358D01*
X142285733Y-79013842D01*
X142070000Y-79102981D01*
X142070000Y-78904802D01*
X143268139Y-77706663D01*
X143290839Y-77702148D01*
X143537401Y-77537401D01*
X143702148Y-77290839D01*
X143760000Y-77000000D01*
X143760000Y-74200000D01*
X143723176Y-74014873D01*
X143702148Y-73909160D01*
X143537401Y-73662599D01*
X142654669Y-72779867D01*
X142734838Y-72586799D01*
X142735162Y-72214833D01*
X142593117Y-71871057D01*
X142330327Y-71607808D01*
X141986799Y-71465162D01*
X141614833Y-71464838D01*
X141271057Y-71606883D01*
X141137707Y-71740000D01*
X137914802Y-71740000D01*
X137760000Y-71585198D01*
X137760000Y-69714802D01*
X137914802Y-69560000D01*
X140400000Y-69560000D01*
X140690839Y-69502148D01*
X140937401Y-69337401D01*
X141847401Y-68427401D01*
X142012148Y-68180840D01*
X142070000Y-67890000D01*
X142070000Y-67777531D01*
X142100303Y-67765010D01*
X142493629Y-67372370D01*
X142706757Y-66859100D01*
X142707242Y-66303339D01*
X142495010Y-65789697D01*
X142102370Y-65396371D01*
X141589100Y-65183243D01*
X141033339Y-65182758D01*
X140519697Y-65394990D01*
X140166237Y-65747833D01*
X140135162Y-65582683D01*
X139996090Y-65366559D01*
X139783890Y-65221569D01*
X139532000Y-65170560D01*
X138008000Y-65170560D01*
X137772683Y-65214838D01*
X137556559Y-65353910D01*
X137411569Y-65566110D01*
X137374508Y-65749124D01*
X137022370Y-65396371D01*
X136509100Y-65183243D01*
X135953339Y-65182758D01*
X135439697Y-65394990D01*
X135046371Y-65787630D01*
X134960051Y-65995512D01*
X134875010Y-65789697D01*
X134482370Y-65396371D01*
X133969100Y-65183243D01*
X133413339Y-65182758D01*
X132899697Y-65394990D01*
X132506371Y-65787630D01*
X132293243Y-66300900D01*
X132292758Y-66856661D01*
X132504990Y-67370303D01*
X132897630Y-67763629D01*
X132930000Y-67777070D01*
X132930000Y-70347520D01*
X132907808Y-70369673D01*
X132765162Y-70713201D01*
X132764838Y-71085167D01*
X132906883Y-71428943D01*
X132930000Y-71452100D01*
X132930000Y-73090000D01*
X132987852Y-73380839D01*
X133152599Y-73627401D01*
X133662599Y-74137401D01*
X133909161Y-74302148D01*
X134200000Y-74360000D01*
X138585183Y-74360000D01*
X138533564Y-74411529D01*
X138430390Y-74660000D01*
X131660000Y-74660000D01*
X131660000Y-70662463D01*
X131692192Y-70630327D01*
X131834838Y-70286799D01*
X131835162Y-69914833D01*
X131693117Y-69571057D01*
X131660000Y-69537882D01*
X131660000Y-62793330D01*
X132123139Y-62985642D01*
X132714267Y-62986158D01*
X133260595Y-62760420D01*
X133678951Y-62342794D01*
X133812726Y-62020626D01*
X134870645Y-62020626D01*
X135270028Y-62987207D01*
X136008904Y-63727373D01*
X136974785Y-64128442D01*
X138020626Y-64129355D01*
X138987207Y-63729972D01*
X139727373Y-62991096D01*
X140128442Y-62025215D01*
X140129355Y-60979374D01*
X139729972Y-60012793D01*
X138991096Y-59272627D01*
X138025215Y-58871558D01*
X136979374Y-58870645D01*
X136012793Y-59270028D01*
X135272627Y-60008904D01*
X134871558Y-60974785D01*
X134870645Y-62020626D01*
X133812726Y-62020626D01*
X133905642Y-61796861D01*
X133906158Y-61205733D01*
X133712903Y-60738021D01*
X134042114Y-60738308D01*
X134695840Y-60468194D01*
X135196436Y-59968471D01*
X135467691Y-59315218D01*
X135468308Y-58607886D01*
X135198194Y-57954160D01*
X134698471Y-57453564D01*
X134045218Y-57182309D01*
X133337886Y-57181692D01*
X132684160Y-57451806D01*
X132183564Y-57951529D01*
X131912309Y-58604782D01*
X131911692Y-59312114D01*
X132181806Y-59965840D01*
X132229815Y-60013933D01*
X132125733Y-60013842D01*
X131660000Y-60206279D01*
X131660000Y-57914802D01*
X132394802Y-57180000D01*
X138430227Y-57180000D01*
X138531806Y-57425840D01*
X139031529Y-57926436D01*
X139684782Y-58197691D01*
X140392114Y-58198308D01*
X141045840Y-57928194D01*
X141546436Y-57428471D01*
X141817691Y-56775218D01*
X141818308Y-56067886D01*
X141548194Y-55414160D01*
X141048471Y-54913564D01*
X140395218Y-54642309D01*
X139687886Y-54641692D01*
X139034160Y-54911806D01*
X138533564Y-55411529D01*
X138430390Y-55660000D01*
X132080000Y-55660000D01*
X131789161Y-55717852D01*
X131542599Y-55882599D01*
X130362599Y-57062599D01*
X130197852Y-57309161D01*
X130140000Y-57600000D01*
X130140000Y-69537537D01*
X130107808Y-69569673D01*
X129965162Y-69913201D01*
X129964838Y-70285167D01*
X129135000Y-70285167D01*
X129135000Y-69727234D01*
X129234838Y-69486799D01*
X129235162Y-69114833D01*
X129135000Y-68872422D01*
X129135000Y-64127234D01*
X129234838Y-63886799D01*
X129235162Y-63514833D01*
X129093117Y-63171057D01*
X128830327Y-62907808D01*
X128486799Y-62765162D01*
X128114833Y-62764838D01*
X127771057Y-62906883D01*
X127507808Y-63169673D01*
X127365162Y-63513201D01*
X127364838Y-63885167D01*
X127465000Y-64127578D01*
X127465000Y-68872766D01*
X127365162Y-69113201D01*
X127364838Y-69485167D01*
X127465000Y-69727578D01*
X127465000Y-81512929D01*
X127207808Y-81769673D01*
X127065162Y-82113201D01*
X127064838Y-82485167D01*
X127206883Y-82828943D01*
X127465000Y-83087511D01*
X127465000Y-101372766D01*
X127365162Y-101613201D01*
X127364838Y-101985167D01*
X127465000Y-102227578D01*
X127465000Y-119872766D01*
X127365162Y-120113201D01*
X127364838Y-120485167D01*
X127465000Y-120727578D01*
X127465000Y-128200000D01*
X127528561Y-128519541D01*
X127602586Y-128630327D01*
X127709566Y-128790434D01*
X128059132Y-129140000D01*
X124414803Y-129140000D01*
X122980000Y-127705198D01*
X122980000Y-124873399D01*
X123000303Y-124865010D01*
X123393629Y-124472370D01*
X123606757Y-123959100D01*
X123607242Y-123403339D01*
X123596781Y-123378021D01*
X126937401Y-120037401D01*
X127102148Y-119790839D01*
X127160000Y-119500000D01*
X127160000Y-112700000D01*
X127102148Y-112409161D01*
X127102148Y-112409160D01*
X126937401Y-112162599D01*
X125037397Y-110262595D01*
X124790835Y-110097848D01*
X124499996Y-110039996D01*
X123114802Y-110039996D01*
X122970000Y-109895194D01*
X122970000Y-105877531D01*
X123000303Y-105865010D01*
X123393629Y-105472370D01*
X123606757Y-104959100D01*
X123607242Y-104403339D01*
X123509066Y-104165736D01*
X127137401Y-100537401D01*
X127302148Y-100290839D01*
X127360000Y-100000000D01*
X127360000Y-93500000D01*
X127343059Y-93414833D01*
X127302148Y-93209160D01*
X127137401Y-92962599D01*
X123025328Y-88850526D01*
X123134838Y-88586799D01*
X123135162Y-88214833D01*
X122993117Y-87871057D01*
X122970000Y-87847900D01*
X122970000Y-86777531D01*
X123000303Y-86765010D01*
X123393629Y-86372370D01*
X123606757Y-85859100D01*
X123607242Y-85303339D01*
X123538305Y-85136497D01*
X126937401Y-81737401D01*
X127102148Y-81490839D01*
X127160000Y-81200000D01*
X127160000Y-74400000D01*
X127102148Y-74109161D01*
X127102148Y-74109160D01*
X126937401Y-73862599D01*
X122970000Y-69895198D01*
X122970000Y-67777531D01*
X123000303Y-67765010D01*
X123393629Y-67372370D01*
X123606757Y-66859100D01*
X123607242Y-66303339D01*
X123395010Y-65789697D01*
X123002370Y-65396371D01*
X122489100Y-65183243D01*
X121933339Y-65182758D01*
X121419697Y-65394990D01*
X121066237Y-65747833D01*
X121035162Y-65582683D01*
X120896090Y-65366559D01*
X120683890Y-65221569D01*
X120432000Y-65170560D01*
X118908000Y-65170560D01*
X118672683Y-65214838D01*
X118456559Y-65353910D01*
X118311569Y-65566110D01*
X118274508Y-65749124D01*
X117922370Y-65396371D01*
X117409100Y-65183243D01*
X116853339Y-65182758D01*
X116339697Y-65394990D01*
X115946371Y-65787630D01*
X115860051Y-65995512D01*
X115775010Y-65789697D01*
X115382370Y-65396371D01*
X114869100Y-65183243D01*
X114313339Y-65182758D01*
X113799697Y-65394990D01*
X113406371Y-65787630D01*
X113193243Y-66300900D01*
X113192758Y-66856661D01*
X113404990Y-67370303D01*
X113797630Y-67763629D01*
X113830000Y-67777070D01*
X113830000Y-68547520D01*
X113807808Y-68569673D01*
X113665162Y-68913201D01*
X113664838Y-69285167D01*
X113806883Y-69628943D01*
X113840000Y-69662118D01*
X113840000Y-69800000D01*
X113897852Y-70090839D01*
X114062599Y-70337401D01*
X116362599Y-72637401D01*
X116609160Y-72802148D01*
X116900000Y-72860000D01*
X122385198Y-72860000D01*
X124540000Y-75014802D01*
X124540000Y-79458635D01*
X124322794Y-79241049D01*
X123776861Y-79014358D01*
X123185733Y-79013842D01*
X122639405Y-79239580D01*
X122221049Y-79657206D01*
X121994358Y-80203139D01*
X121993842Y-80794267D01*
X122219580Y-81340595D01*
X122637206Y-81758951D01*
X123011024Y-81914174D01*
X122685198Y-82240000D01*
X120378034Y-82240000D01*
X120627373Y-81991096D01*
X121028442Y-81025215D01*
X121029355Y-79979374D01*
X120629972Y-79012793D01*
X119891096Y-78272627D01*
X118925215Y-77871558D01*
X117879374Y-77870645D01*
X116912793Y-78270028D01*
X116172627Y-79008904D01*
X115771558Y-79974785D01*
X115770645Y-81020626D01*
X116170028Y-81987207D01*
X116422380Y-82240000D01*
X115600000Y-82240000D01*
X115309161Y-82297852D01*
X115062599Y-82462599D01*
X114052599Y-83472599D01*
X113887852Y-83719161D01*
X113830000Y-84010000D01*
X113830000Y-84382469D01*
X113799697Y-84394990D01*
X113406371Y-84787630D01*
X113193243Y-85300900D01*
X113192758Y-85856661D01*
X113404990Y-86370303D01*
X113797630Y-86763629D01*
X113830000Y-86777070D01*
X113830000Y-88390000D01*
X113887852Y-88680839D01*
X114052599Y-88927401D01*
X116762599Y-91637401D01*
X117009161Y-91802148D01*
X117300000Y-91860000D01*
X122185198Y-91860000D01*
X124640000Y-94314802D01*
X124640000Y-98658809D01*
X124322794Y-98341049D01*
X123776861Y-98114358D01*
X123185733Y-98113842D01*
X122639405Y-98339580D01*
X122221049Y-98757206D01*
X121994358Y-99303139D01*
X121993842Y-99894267D01*
X122219580Y-100440595D01*
X122637206Y-100858951D01*
X122940365Y-100984833D01*
X122485198Y-101440000D01*
X120277860Y-101440000D01*
X120627373Y-101091096D01*
X121028442Y-100125215D01*
X121029355Y-99079374D01*
X120629972Y-98112793D01*
X119891096Y-97372627D01*
X118925215Y-96971558D01*
X117879374Y-96970645D01*
X116912793Y-97370028D01*
X116172627Y-98108904D01*
X115771558Y-99074785D01*
X115770645Y-100120626D01*
X116170028Y-101087207D01*
X116522206Y-101440000D01*
X115600000Y-101440000D01*
X115309161Y-101497852D01*
X115062599Y-101662599D01*
X114052599Y-102672599D01*
X113887852Y-102919161D01*
X113830000Y-103210000D01*
X113830000Y-103482469D01*
X113799697Y-103494990D01*
X113406371Y-103887630D01*
X113193243Y-104400900D01*
X113192758Y-104956661D01*
X113404990Y-105470303D01*
X113797630Y-105863629D01*
X113830000Y-105877070D01*
X113830000Y-109990000D01*
X113887852Y-110280839D01*
X114052599Y-110527401D01*
X115762599Y-112237401D01*
X116009160Y-112402148D01*
X116300000Y-112460000D01*
X119485183Y-112460000D01*
X119433564Y-112511529D01*
X119330390Y-112760000D01*
X112560000Y-112760000D01*
X112560000Y-100893330D01*
X113023139Y-101085642D01*
X113614267Y-101086158D01*
X114160595Y-100860420D01*
X114578951Y-100442794D01*
X114805642Y-99896861D01*
X114806158Y-99305733D01*
X114612903Y-98838021D01*
X114942114Y-98838308D01*
X115595840Y-98568194D01*
X116096436Y-98068471D01*
X116367691Y-97415218D01*
X116368308Y-96707886D01*
X116098194Y-96054160D01*
X115598471Y-95553564D01*
X114945218Y-95282309D01*
X114237886Y-95281692D01*
X113584160Y-95551806D01*
X113083564Y-96051529D01*
X112812309Y-96704782D01*
X112811692Y-97412114D01*
X113081806Y-98065840D01*
X113129815Y-98113933D01*
X113025733Y-98113842D01*
X112560000Y-98306279D01*
X112560000Y-95280000D01*
X119330227Y-95280000D01*
X119431806Y-95525840D01*
X119931529Y-96026436D01*
X120584782Y-96297691D01*
X121292114Y-96298308D01*
X121945840Y-96028194D01*
X122446436Y-95528471D01*
X122717691Y-94875218D01*
X122718308Y-94167886D01*
X122448194Y-93514160D01*
X121948471Y-93013564D01*
X121295218Y-92742309D01*
X120587886Y-92741692D01*
X119934160Y-93011806D01*
X119433564Y-93511529D01*
X119330390Y-93760000D01*
X112560000Y-93760000D01*
X112560000Y-81793330D01*
X113023139Y-81985642D01*
X113614267Y-81986158D01*
X114160595Y-81760420D01*
X114578951Y-81342794D01*
X114805642Y-80796861D01*
X114806158Y-80205733D01*
X114612903Y-79738021D01*
X114942114Y-79738308D01*
X115595840Y-79468194D01*
X116096436Y-78968471D01*
X116367691Y-78315218D01*
X116368308Y-77607886D01*
X116098194Y-76954160D01*
X115598471Y-76453564D01*
X114945218Y-76182309D01*
X114237886Y-76181692D01*
X113584160Y-76451806D01*
X113083564Y-76951529D01*
X112812309Y-77604782D01*
X112811692Y-78312114D01*
X113081806Y-78965840D01*
X113129815Y-79013933D01*
X113025733Y-79013842D01*
X112560000Y-79206279D01*
X112560000Y-76180000D01*
X119330227Y-76180000D01*
X119431806Y-76425840D01*
X119931529Y-76926436D01*
X120584782Y-77197691D01*
X121292114Y-77198308D01*
X121945840Y-76928194D01*
X122446436Y-76428471D01*
X122717691Y-75775218D01*
X122718308Y-75067886D01*
X122448194Y-74414160D01*
X121948471Y-73913564D01*
X121295218Y-73642309D01*
X120587886Y-73641692D01*
X119934160Y-73911806D01*
X119433564Y-74411529D01*
X119330390Y-74660000D01*
X112560000Y-74660000D01*
X112560000Y-62793330D01*
X113023139Y-62985642D01*
X113614267Y-62986158D01*
X114160595Y-62760420D01*
X114578951Y-62342794D01*
X114712726Y-62020626D01*
X115770645Y-62020626D01*
X116170028Y-62987207D01*
X116908904Y-63727373D01*
X117874785Y-64128442D01*
X118920626Y-64129355D01*
X119887207Y-63729972D01*
X120627373Y-62991096D01*
X121028442Y-62025215D01*
X121028643Y-61794267D01*
X121993842Y-61794267D01*
X122219580Y-62340595D01*
X122637206Y-62758951D01*
X123183139Y-62985642D01*
X123774267Y-62986158D01*
X124320595Y-62760420D01*
X124738951Y-62342794D01*
X124965642Y-61796861D01*
X124966158Y-61205733D01*
X124740420Y-60659405D01*
X124322794Y-60241049D01*
X123776861Y-60014358D01*
X123185733Y-60013842D01*
X122639405Y-60239580D01*
X122221049Y-60657206D01*
X121994358Y-61203139D01*
X121993842Y-61794267D01*
X121028643Y-61794267D01*
X121029355Y-60979374D01*
X120629972Y-60012793D01*
X119891096Y-59272627D01*
X118925215Y-58871558D01*
X117879374Y-58870645D01*
X116912793Y-59270028D01*
X116172627Y-60008904D01*
X115771558Y-60974785D01*
X115770645Y-62020626D01*
X114712726Y-62020626D01*
X114805642Y-61796861D01*
X114806158Y-61205733D01*
X114612903Y-60738021D01*
X114942114Y-60738308D01*
X115595840Y-60468194D01*
X116096436Y-59968471D01*
X116367691Y-59315218D01*
X116368308Y-58607886D01*
X116098194Y-57954160D01*
X115598471Y-57453564D01*
X114945218Y-57182309D01*
X114237886Y-57181692D01*
X113584160Y-57451806D01*
X113083564Y-57951529D01*
X112812309Y-58604782D01*
X112811692Y-59312114D01*
X113081806Y-59965840D01*
X113129815Y-60013933D01*
X113025733Y-60013842D01*
X112560000Y-60206279D01*
X112560000Y-58314802D01*
X113694802Y-57180000D01*
X119330227Y-57180000D01*
X119431806Y-57425840D01*
X119931529Y-57926436D01*
X120584782Y-58197691D01*
X121292114Y-58198308D01*
X121945840Y-57928194D01*
X122446436Y-57428471D01*
X122717691Y-56775218D01*
X122718308Y-56067886D01*
X122448194Y-55414160D01*
X121948471Y-54913564D01*
X121295218Y-54642309D01*
X120587886Y-54641692D01*
X119934160Y-54911806D01*
X119433564Y-55411529D01*
X119330390Y-55660000D01*
X113380000Y-55660000D01*
X113137414Y-55708254D01*
X113089160Y-55717852D01*
X112842599Y-55882599D01*
X111262599Y-57462599D01*
X111210000Y-57541319D01*
X111210000Y-55082682D01*
X112934615Y-54739635D01*
X113115592Y-54664671D01*
X113190556Y-54633620D01*
X115137096Y-53332984D01*
X115332984Y-53137096D01*
X115379996Y-53066737D01*
X143315309Y-53066737D01*
X143374262Y-53169940D01*
X143642641Y-53504371D01*
X144018572Y-53710640D01*
X144186600Y-53590692D01*
X144186600Y-52900040D01*
X144811600Y-52900040D01*
X144811600Y-53590692D01*
X144979628Y-53710640D01*
X145355559Y-53504371D01*
X145623938Y-53169940D01*
X145682891Y-53066737D01*
X148315309Y-53066737D01*
X148374262Y-53169940D01*
X148642641Y-53504371D01*
X149018572Y-53710640D01*
X149186600Y-53590692D01*
X149186600Y-52900040D01*
X149811600Y-52900040D01*
X149811600Y-53590692D01*
X149979628Y-53710640D01*
X150355559Y-53504371D01*
X150623938Y-53169940D01*
X150682891Y-53066737D01*
X150570224Y-52900040D01*
X149811600Y-52900040D01*
X149186600Y-52900040D01*
X148427976Y-52900040D01*
X148315309Y-53066737D01*
X145682891Y-53066737D01*
X145570224Y-52900040D01*
X144811600Y-52900040D01*
X144186600Y-52900040D01*
X143427976Y-52900040D01*
X143315309Y-53066737D01*
X115379996Y-53066737D01*
X115920147Y-52258343D01*
X143315309Y-52258343D01*
X143427976Y-52425040D01*
X144186600Y-52425040D01*
X144186600Y-51734388D01*
X144811600Y-51734388D01*
X144811600Y-52425040D01*
X145570224Y-52425040D01*
X145682891Y-52258343D01*
X148315309Y-52258343D01*
X148427976Y-52425040D01*
X149186600Y-52425040D01*
X149186600Y-51734388D01*
X149811600Y-51734388D01*
X149811600Y-52425040D01*
X150570224Y-52425040D01*
X150682891Y-52258343D01*
X150623938Y-52155140D01*
X150355559Y-51820709D01*
X149979628Y-51614440D01*
X149811600Y-51734388D01*
X149186600Y-51734388D01*
X149018572Y-51614440D01*
X148642641Y-51820709D01*
X148374262Y-52155140D01*
X148315309Y-52258343D01*
X145682891Y-52258343D01*
X145623938Y-52155140D01*
X145355559Y-51820709D01*
X144979628Y-51614440D01*
X144811600Y-51734388D01*
X144186600Y-51734388D01*
X144018572Y-51614440D01*
X143642641Y-51820709D01*
X143374262Y-52155140D01*
X143315309Y-52258343D01*
X115920147Y-52258343D01*
X116633621Y-51190555D01*
X116672782Y-51096012D01*
X116739635Y-50934615D01*
X116824225Y-50509351D01*
X142409414Y-50509351D01*
X142596379Y-50905665D01*
X142920775Y-51200263D01*
X143078985Y-51291926D01*
X143249100Y-51181237D01*
X143249100Y-50335540D01*
X143749100Y-50335540D01*
X143749100Y-51181237D01*
X143919215Y-51291926D01*
X144077425Y-51200263D01*
X144401821Y-50905665D01*
X144588786Y-50509351D01*
X149409414Y-50509351D01*
X149596379Y-50905665D01*
X149920775Y-51200263D01*
X150078985Y-51291926D01*
X150249100Y-51181237D01*
X150249100Y-50335540D01*
X150749100Y-50335540D01*
X150749100Y-51181237D01*
X150919215Y-51291926D01*
X151077425Y-51200263D01*
X151401821Y-50905665D01*
X151588786Y-50509351D01*
X151459141Y-50335540D01*
X150749100Y-50335540D01*
X150249100Y-50335540D01*
X149539059Y-50335540D01*
X149409414Y-50509351D01*
X144588786Y-50509351D01*
X144459141Y-50335540D01*
X143749100Y-50335540D01*
X143249100Y-50335540D01*
X142539059Y-50335540D01*
X142409414Y-50509351D01*
X116824225Y-50509351D01*
X117082682Y-49210000D01*
X142506469Y-49210000D01*
X142409414Y-49415729D01*
G36*
X166262599Y-137837401D02*
X166509161Y-138002148D01*
X166800000Y-138060000D01*
X172317033Y-138060000D01*
X172244753Y-138164533D01*
X172327283Y-138387000D01*
X173247000Y-138387000D01*
X173247000Y-138367000D01*
X173993000Y-138367000D01*
X173993000Y-138387000D01*
X174013000Y-138387000D01*
X174013000Y-139133000D01*
X173993000Y-139133000D01*
X173993000Y-139153000D01*
X173247000Y-139153000D01*
X173247000Y-139133000D01*
X172327283Y-139133000D01*
X172244753Y-139355467D01*
X172577313Y-139836424D01*
X172849110Y-140018014D01*
X172560330Y-140210971D01*
X172235474Y-140697152D01*
X172121400Y-141270641D01*
X172121400Y-141329359D01*
X172235474Y-141902848D01*
X172460752Y-142240000D01*
X168414802Y-142240000D01*
X166160000Y-139985198D01*
X166160000Y-137734802D01*
X166262599Y-137837401D01*
X166262599Y-137837401D01*
G37*
X166262599Y-137837401D02*
X166509161Y-138002148D01*
X166800000Y-138060000D01*
X172317033Y-138060000D01*
X172244753Y-138164533D01*
X172327283Y-138387000D01*
X173247000Y-138387000D01*
X173247000Y-138367000D01*
X173993000Y-138367000D01*
X173993000Y-138387000D01*
X174013000Y-138387000D01*
X174013000Y-139133000D01*
X173993000Y-139133000D01*
X173993000Y-139153000D01*
X173247000Y-139153000D01*
X173247000Y-139133000D01*
X172327283Y-139133000D01*
X172244753Y-139355467D01*
X172577313Y-139836424D01*
X172849110Y-140018014D01*
X172560330Y-140210971D01*
X172235474Y-140697152D01*
X172121400Y-141270641D01*
X172121400Y-141329359D01*
X172235474Y-141902848D01*
X172460752Y-142240000D01*
X168414802Y-142240000D01*
X166160000Y-139985198D01*
X166160000Y-137734802D01*
X166262599Y-137837401D01*
G36*
X162062599Y-97137401D02*
X164540000Y-99614802D01*
X164540000Y-101885198D01*
X162362599Y-104062599D01*
X162197852Y-104309161D01*
X162140000Y-104600000D01*
X162140000Y-105837537D01*
X162107808Y-105869673D01*
X161965162Y-106213201D01*
X161964838Y-106585167D01*
X162106883Y-106928943D01*
X162369673Y-107192192D01*
X162713201Y-107334838D01*
X163085167Y-107335162D01*
X163428943Y-107193117D01*
X163692192Y-106930327D01*
X163793931Y-106685313D01*
X163913201Y-106734838D01*
X163960077Y-106734879D01*
X165562599Y-108337401D01*
X165809161Y-108502148D01*
X166100000Y-108560000D01*
X166387253Y-108560000D01*
X166365162Y-108613201D01*
X166364838Y-108985167D01*
X166506883Y-109328943D01*
X166531453Y-109353556D01*
X166465162Y-109513201D01*
X166464838Y-109885167D01*
X166560613Y-110116960D01*
X166507808Y-110169673D01*
X166365162Y-110513201D01*
X166364838Y-110885167D01*
X166506883Y-111228943D01*
X166769673Y-111492192D01*
X167113201Y-111634838D01*
X167374648Y-111635066D01*
X167500000Y-111660000D01*
X168085198Y-111660000D01*
X169540000Y-113114802D01*
X169540000Y-116985198D01*
X168973646Y-117551552D01*
X168730327Y-117307808D01*
X168386799Y-117165162D01*
X168014833Y-117164838D01*
X167671057Y-117306883D01*
X167407808Y-117569673D01*
X167265162Y-117913201D01*
X167265121Y-117960077D01*
X164085198Y-121140000D01*
X161010002Y-121140000D01*
X161010002Y-119972226D01*
X161283139Y-120085642D01*
X161874267Y-120086158D01*
X162420595Y-119860420D01*
X162838951Y-119442794D01*
X163065642Y-118896861D01*
X163066158Y-118305733D01*
X162840420Y-117759405D01*
X162422794Y-117341049D01*
X161876861Y-117114358D01*
X161285733Y-117113842D01*
X161010002Y-117227772D01*
X161010002Y-117064800D01*
X162587403Y-115487399D01*
X162752150Y-115240838D01*
X162778795Y-115106883D01*
X162810002Y-114949998D01*
X162810002Y-112413604D01*
X162774953Y-112237401D01*
X162752150Y-112122764D01*
X162587403Y-111876203D01*
X160623797Y-109912597D01*
X160377235Y-109747850D01*
X160086396Y-109689998D01*
X156814802Y-109689998D01*
X156660000Y-109535196D01*
X156660000Y-107114802D01*
X156814802Y-106960000D01*
X159900000Y-106960000D01*
X160190839Y-106902148D01*
X160437401Y-106737401D01*
X160847401Y-106327401D01*
X161012148Y-106080839D01*
X161051030Y-105885369D01*
X161100303Y-105865010D01*
X161493629Y-105472370D01*
X161706757Y-104959100D01*
X161707242Y-104403339D01*
X161495010Y-103889697D01*
X161102370Y-103496371D01*
X161070000Y-103482930D01*
X161070000Y-102210000D01*
X161048547Y-102102148D01*
X161012148Y-101919160D01*
X160847401Y-101672599D01*
X160760000Y-101585198D01*
X160760000Y-100868416D01*
X161283139Y-101085642D01*
X161874267Y-101086158D01*
X162420595Y-100860420D01*
X162838951Y-100442794D01*
X163065642Y-99896861D01*
X163066158Y-99305733D01*
X162840420Y-98759405D01*
X162422794Y-98341049D01*
X161876861Y-98114358D01*
X161285733Y-98113842D01*
X160760000Y-98331070D01*
X160760000Y-98114802D01*
X161932343Y-96942459D01*
X162062599Y-97137401D01*
X162062599Y-97137401D01*
G37*
X162062599Y-97137401D02*
X164540000Y-99614802D01*
X164540000Y-101885198D01*
X162362599Y-104062599D01*
X162197852Y-104309161D01*
X162140000Y-104600000D01*
X162140000Y-105837537D01*
X162107808Y-105869673D01*
X161965162Y-106213201D01*
X161964838Y-106585167D01*
X162106883Y-106928943D01*
X162369673Y-107192192D01*
X162713201Y-107334838D01*
X163085167Y-107335162D01*
X163428943Y-107193117D01*
X163692192Y-106930327D01*
X163793931Y-106685313D01*
X163913201Y-106734838D01*
X163960077Y-106734879D01*
X165562599Y-108337401D01*
X165809161Y-108502148D01*
X166100000Y-108560000D01*
X166387253Y-108560000D01*
X166365162Y-108613201D01*
X166364838Y-108985167D01*
X166506883Y-109328943D01*
X166531453Y-109353556D01*
X166465162Y-109513201D01*
X166464838Y-109885167D01*
X166560613Y-110116960D01*
X166507808Y-110169673D01*
X166365162Y-110513201D01*
X166364838Y-110885167D01*
X166506883Y-111228943D01*
X166769673Y-111492192D01*
X167113201Y-111634838D01*
X167374648Y-111635066D01*
X167500000Y-111660000D01*
X168085198Y-111660000D01*
X169540000Y-113114802D01*
X169540000Y-116985198D01*
X168973646Y-117551552D01*
X168730327Y-117307808D01*
X168386799Y-117165162D01*
X168014833Y-117164838D01*
X167671057Y-117306883D01*
X167407808Y-117569673D01*
X167265162Y-117913201D01*
X167265121Y-117960077D01*
X164085198Y-121140000D01*
X161010002Y-121140000D01*
X161010002Y-119972226D01*
X161283139Y-120085642D01*
X161874267Y-120086158D01*
X162420595Y-119860420D01*
X162838951Y-119442794D01*
X163065642Y-118896861D01*
X163066158Y-118305733D01*
X162840420Y-117759405D01*
X162422794Y-117341049D01*
X161876861Y-117114358D01*
X161285733Y-117113842D01*
X161010002Y-117227772D01*
X161010002Y-117064800D01*
X162587403Y-115487399D01*
X162752150Y-115240838D01*
X162778795Y-115106883D01*
X162810002Y-114949998D01*
X162810002Y-112413604D01*
X162774953Y-112237401D01*
X162752150Y-112122764D01*
X162587403Y-111876203D01*
X160623797Y-109912597D01*
X160377235Y-109747850D01*
X160086396Y-109689998D01*
X156814802Y-109689998D01*
X156660000Y-109535196D01*
X156660000Y-107114802D01*
X156814802Y-106960000D01*
X159900000Y-106960000D01*
X160190839Y-106902148D01*
X160437401Y-106737401D01*
X160847401Y-106327401D01*
X161012148Y-106080839D01*
X161051030Y-105885369D01*
X161100303Y-105865010D01*
X161493629Y-105472370D01*
X161706757Y-104959100D01*
X161707242Y-104403339D01*
X161495010Y-103889697D01*
X161102370Y-103496371D01*
X161070000Y-103482930D01*
X161070000Y-102210000D01*
X161048547Y-102102148D01*
X161012148Y-101919160D01*
X160847401Y-101672599D01*
X160760000Y-101585198D01*
X160760000Y-100868416D01*
X161283139Y-101085642D01*
X161874267Y-101086158D01*
X162420595Y-100860420D01*
X162838951Y-100442794D01*
X163065642Y-99896861D01*
X163066158Y-99305733D01*
X162840420Y-98759405D01*
X162422794Y-98341049D01*
X161876861Y-98114358D01*
X161285733Y-98113842D01*
X160760000Y-98331070D01*
X160760000Y-98114802D01*
X161932343Y-96942459D01*
X162062599Y-97137401D01*
M02*
